<svg width="8" height="12" viewBox="0 0 8 12" fill="none" xmlns="http://www.w3.org/2000/svg">
<path d="M0.821386 11.491C0.638053 11.3076 0.546387 11.0743 0.546387 10.791C0.546387 10.5076 0.638053 10.2743 0.821386 10.091L4.72139 6.19097L0.821386 2.29097C0.638053 2.10763 0.546387 1.8743 0.546387 1.59097C0.546387 1.30763 0.638053 1.0743 0.821386 0.890966C1.00472 0.707633 1.23805 0.615967 1.52139 0.615967C1.80472 0.615967 2.03805 0.707633 2.22139 0.890966L6.82139 5.49097C6.92139 5.59097 6.99239 5.6993 7.03439 5.81597C7.07572 5.93263 7.09639 6.05763 7.09639 6.19097C7.09639 6.3243 7.07572 6.4493 7.03439 6.56597C6.99239 6.68263 6.92139 6.79097 6.82139 6.89097L2.22139 11.491C2.03805 11.6743 1.80472 11.766 1.52139 11.766C1.23805 11.766 1.00472 11.6743 0.821386 11.491Z" fill="#101828"/>
</svg>
