<svg width="18" height="19" viewBox="0 0 18 19" fill="none" xmlns="http://www.w3.org/2000/svg">
<path d="M9.00934 11.3675L2.47601 17.9008C2.23156 18.1452 1.92045 18.2675 1.54268 18.2675C1.1649 18.2675 0.853786 18.1452 0.609342 17.9008C0.364897 17.6564 0.242676 17.3452 0.242676 16.9675C0.242676 16.5897 0.364897 16.2786 0.609342 16.0341L7.14268 9.5008L0.609342 2.96746C0.364897 2.72302 0.242676 2.41191 0.242676 2.03413C0.242676 1.65635 0.364897 1.34524 0.609342 1.1008C0.853786 0.856353 1.1649 0.734131 1.54268 0.734131C1.92045 0.734131 2.23156 0.856353 2.47601 1.1008L9.00934 7.63413L15.5427 1.1008C15.7871 0.856353 16.0982 0.734131 16.476 0.734131C16.8538 0.734131 17.1649 0.856353 17.4093 1.1008C17.6538 1.34524 17.776 1.65635 17.776 2.03413C17.776 2.41191 17.6538 2.72302 17.4093 2.96746L10.876 9.5008L17.4093 16.0341C17.6538 16.2786 17.776 16.5897 17.776 16.9675C17.776 17.3452 17.6538 17.6564 17.4093 17.9008C17.1649 18.1452 16.8538 18.2675 16.476 18.2675C16.0982 18.2675 15.7871 18.1452 15.5427 17.9008L9.00934 11.3675Z" fill="#101828"/>
</svg>
