<svg width="16" height="12" viewBox="0 0 16 12" fill="none" xmlns="http://www.w3.org/2000/svg">
<path d="M5.54988 11.5749C5.41655 11.5749 5.29155 11.5539 5.17488 11.5119C5.05821 11.4706 4.94988 11.3999 4.84988 11.2999L0.549879 6.9999C0.366545 6.81657 0.278879 6.5789 0.286879 6.2869C0.295545 5.99557 0.391545 5.75824 0.574878 5.5749C0.758212 5.39157 0.991545 5.2999 1.27488 5.2999C1.55821 5.2999 1.79155 5.39157 1.97488 5.5749L5.54988 9.1499L14.0249 0.674902C14.2082 0.491569 14.4459 0.399902 14.7379 0.399902C15.0292 0.399902 15.2665 0.491569 15.4499 0.674902C15.6332 0.858236 15.7249 1.09557 15.7249 1.3869C15.7249 1.6789 15.6332 1.91657 15.4499 2.0999L6.24988 11.2999C6.14988 11.3999 6.04155 11.4706 5.92488 11.5119C5.80821 11.5539 5.68321 11.5749 5.54988 11.5749Z" fill="#101828"/>
</svg>
