<svg width="21" height="20" viewBox="0 0 21 20" fill="none" xmlns="http://www.w3.org/2000/svg">
<path d="M9.2665 11.8L7.0915 9.625C6.90817 9.44167 6.68317 9.35 6.4165 9.35C6.14984 9.35 5.9165 9.45 5.7165 9.65C5.53317 9.83333 5.4415 10.0667 5.4415 10.35C5.4415 10.6333 5.53317 10.8667 5.7165 11.05L8.5665 13.9C8.74984 14.0833 8.98317 14.175 9.2665 14.175C9.54984 14.175 9.78317 14.0833 9.9665 13.9L15.6415 8.225C15.8248 8.04167 15.9165 7.81667 15.9165 7.55C15.9165 7.28333 15.8165 7.05 15.6165 6.85C15.4332 6.66667 15.1998 6.575 14.9165 6.575C14.6332 6.575 14.3998 6.66667 14.2165 6.85L9.2665 11.8ZM10.6665 20C9.28317 20 7.98317 19.7373 6.7665 19.212C5.54984 18.6873 4.4915 17.975 3.5915 17.075C2.6915 16.175 1.97917 15.1167 1.4545 13.9C0.929171 12.6833 0.666504 11.3833 0.666504 10C0.666504 8.61667 0.929171 7.31667 1.4545 6.1C1.97917 4.88333 2.6915 3.825 3.5915 2.925C4.4915 2.025 5.54984 1.31233 6.7665 0.787C7.98317 0.262333 9.28317 0 10.6665 0C12.0498 0 13.3498 0.262333 14.5665 0.787C15.7832 1.31233 16.8415 2.025 17.7415 2.925C18.6415 3.825 19.3538 4.88333 19.8785 6.1C20.4038 7.31667 20.6665 8.61667 20.6665 10C20.6665 11.3833 20.4038 12.6833 19.8785 13.9C19.3538 15.1167 18.6415 16.175 17.7415 17.075C16.8415 17.975 15.7832 18.6873 14.5665 19.212C13.3498 19.7373 12.0498 20 10.6665 20Z" fill="#540375"/>
</svg>
