<svg width="24" height="24" viewBox="0 0 24 24" fill="none" xmlns="http://www.w3.org/2000/svg">
<path d="M5.025 21C4.475 21 4.00433 20.8043 3.613 20.413C3.221 20.021 3.025 19.55 3.025 19V11.05C2.64167 10.7 2.346 10.25 2.138 9.7C1.92933 9.15 1.925 8.55 2.125 7.9L3.175 4.5C3.30833 4.06667 3.546 3.70833 3.888 3.425C4.22933 3.14167 4.625 3 5.075 3H18.975C19.425 3 19.8167 3.13733 20.15 3.412C20.4833 3.68733 20.725 4.05 20.875 4.5L21.925 7.9C22.125 8.55 22.121 9.14167 21.913 9.675C21.7043 10.2083 21.4083 10.6667 21.025 11.05V19C21.025 19.55 20.8293 20.021 20.438 20.413C20.046 20.8043 19.575 21 19.025 21H5.025ZM14.225 10C14.675 10 15.0167 9.84567 15.25 9.537C15.4833 9.229 15.575 8.88333 15.525 8.5L14.975 5H13.025V8.7C13.025 9.05 13.1417 9.35433 13.375 9.613C13.6083 9.871 13.8917 10 14.225 10ZM9.725 10C10.1083 10 10.421 9.871 10.663 9.613C10.9043 9.35433 11.025 9.05 11.025 8.7V5H9.075L8.525 8.5C8.45833 8.9 8.546 9.25 8.788 9.55C9.02933 9.85 9.34167 10 9.725 10ZM5.275 10C5.575 10 5.83733 9.89167 6.062 9.675C6.28733 9.45833 6.425 9.18333 6.475 8.85L7.025 5H5.075L4.075 8.35C3.975 8.68333 4.029 9.04167 4.237 9.425C4.44567 9.80833 4.79167 10 5.275 10ZM18.775 10C19.2583 10 19.6083 9.80833 19.825 9.425C20.0417 9.04167 20.0917 8.68333 19.975 8.35L18.925 5H17.025L17.575 8.85C17.625 9.18333 17.7627 9.45833 17.988 9.675C18.2127 9.89167 18.475 10 18.775 10ZM5.025 19H19.025V11.95C18.9417 11.9833 18.8877 12 18.863 12H18.775C18.325 12 17.929 11.925 17.587 11.775C17.2457 11.625 16.9083 11.3833 16.575 11.05C16.275 11.35 15.9333 11.5833 15.55 11.75C15.1667 11.9167 14.7583 12 14.325 12C13.875 12 13.454 11.9167 13.062 11.75C12.6707 11.5833 12.325 11.35 12.025 11.05C11.7417 11.35 11.4127 11.5833 11.038 11.75C10.6627 11.9167 10.2583 12 9.825 12C9.34167 12 8.904 11.9167 8.512 11.75C8.12067 11.5833 7.775 11.35 7.475 11.05C7.125 11.4 6.77933 11.6457 6.438 11.787C6.096 11.929 5.70833 12 5.275 12H5.163C5.121 12 5.075 11.9833 5.025 11.95V19Z" fill="#540375"/>
</svg>
