<svg width="48" height="48" viewBox="0 0 48 48" fill="none" xmlns="http://www.w3.org/2000/svg">
<path fill-rule="evenodd" clip-rule="evenodd" d="M33.2886 6.1451H39.5591V3.375C39.5591 2.82272 40.0068 2.375 40.5591 2.375C41.1114 2.375 41.5591 2.82272 41.5591 3.375V6.1451H43.5852C45.7991 6.1451 47.5937 7.9397 47.5937 10.1535V41.6165C47.5937 43.8304 45.7991 45.625 43.5852 45.625H4.41478C2.20087 45.625 0.40625 43.8304 0.40625 41.6165V10.1535C0.40625 7.9397 2.20089 6.1451 4.41478 6.1451H6.79712V3.375C6.79712 2.82272 7.24483 2.375 7.79712 2.375C8.3494 2.375 8.79712 2.82272 8.79712 3.375V6.1451H14.9075V3.375C14.9075 2.82272 15.3552 2.375 15.9075 2.375C16.4598 2.375 16.9075 2.82272 16.9075 3.375V6.1451H23.0178V3.4104C23.0178 2.85812 23.4655 2.4104 24.0178 2.4104C24.5701 2.4104 25.0178 2.85812 25.0178 3.4104V6.1451H31.2886V3.4104C31.2886 2.85812 31.7363 2.4104 32.2886 2.4104C32.8409 2.4104 33.2886 2.85812 33.2886 3.4104V6.1451ZM7.79712 11.4466C8.3494 11.4466 8.79712 10.9988 8.79712 10.4466V8.1451H14.9075V10.4466C14.9075 10.9988 15.3552 11.4466 15.9075 11.4466C16.4598 11.4466 16.9075 10.9988 16.9075 10.4466V8.1451H23.0178V10.482C23.0178 11.0342 23.4655 11.482 24.0178 11.482C24.5701 11.482 25.0178 11.0342 25.0178 10.482V8.1451H31.2886V10.482C31.2886 11.0342 31.7363 11.482 32.2886 11.482C32.8409 11.482 33.2886 11.0342 33.2886 10.482V8.1451H39.5591V10.4466C39.5591 10.9988 40.0068 11.4466 40.5591 11.4466C41.1114 11.4466 41.5591 10.9988 41.5591 10.4466V8.1451H43.5852C44.6946 8.1451 45.5937 9.04431 45.5937 10.1535V14.5502H2.40625V10.1535C2.40625 9.04431 3.30542 8.1451 4.41478 8.1451H6.79712V10.4466C6.79712 10.9988 7.24483 11.4466 7.79712 11.4466ZM4.41478 43.625C3.30544 43.625 2.40625 42.7258 2.40625 41.6165V16.5502H45.5937V41.6165C45.5937 42.7258 44.6946 43.625 43.5852 43.625H4.41478Z" fill="#101828"/>
<path d="M40.5517 40.8H28.7466C28.0303 40.8 27.4492 40.2192 27.4492 39.5025V27.6974C27.4492 26.9809 28.0303 26.4 28.7466 26.4H40.5517C41.2684 26.4 41.8492 26.9809 41.8492 27.6974V39.5025C41.8492 40.2192 41.2684 40.8 40.5517 40.8Z" fill="#FF5A22"/>
<path fill-rule="evenodd" clip-rule="evenodd" d="M34.0508 34.9678L32.7559 33.6801C32.3643 33.2906 31.7312 33.2924 31.3417 33.684C30.9523 34.0756 30.954 34.7088 31.3456 35.0982L32.6966 36.4417C33.445 37.186 34.6564 37.1862 35.405 36.4417L38.7559 33.1091C39.1475 32.7196 39.1493 32.0865 38.7598 31.6949C38.3704 31.3033 37.7372 31.3015 37.3456 31.691L34.0508 34.9678Z" fill="#F2F4F7"/>
</svg>
