 <svg fill="none" viewBox="0 0 24 24" xmlns="http://www.w3.org/2000/svg">
      <g>
        <path
          d="M23.63 4.66671C23.168 3.87271 22.318 3.33337 21.3333 3.33337H12V4.66671H23.63ZM0 16.6667H24V18H0V16.6667ZM12 11.3334H24V12.6667H12V11.3334ZM12 8.66671H24V10H12V8.66671ZM0 14H24V15.3334H0V14ZM2.66667 20.6667H21.3333C22.318 20.6667 23.168 20.1274 23.63 19.3334H0.37C0.832 20.1274 1.682 20.6667 2.66667 20.6667ZM12 6.00004H24V7.33337H12V6.00004Z"
          fill="#D92D20"
        />
        <path
          d="m0.045333 18.453c0.011333 0.062 0.024 0.124 0.039333 0.1847 0.017333 0.0673 0.038666 0.132 0.061333 0.1973 0.059333 0.1727 0.13133 0.3394 0.222 0.4954l2e-3 0.0033h23.26l0.0013-0.0027c0.0895-0.1571 0.1636-0.3226 0.2214-0.494 0.0439-0.1251 0.0778-0.2535 0.1013-0.384 0.0273-0.1466 0.046-0.2973 0.046-0.4526h-24c0 0.1553 0.018667 0.3053 0.045333 0.4526zm-0.045333-3.1193h24v1.3333h-24v-1.3333zm0-2.6667v1.3334h24v-1.3334h-24zm12-2.6666h12v1.3333h-12v-1.3333zm0-2.6667h12v1.3333h-12v-1.3333zm-11.63-2.6667-2e-3 0.00333 2e-3 -0.00333zm-0.28467 0.696c0.016667-0.068 0.04-0.13267 0.061334-0.198-0.023152 0.06513-0.043613 0.13118-0.061334 0.198zm11.915 0.63733h12c0-0.15533-0.0187-0.306-0.046-0.45333-0.0233-0.1306-0.0575-0.25904-0.102-0.384-0.0578-0.17213-0.1321-0.33824-0.222-0.496h-11.63v1.3333z"
          fill="#F2F4F7"
        />
        <path
          d="m12 3.3334h-9.3333c-0.70725 0-1.3855 0.28096-1.8856 0.78105-0.5001 0.5001-0.78105 1.1784-0.78105 1.8856v6.6667h12v-9.3333z"
          fill="#0B70FE"
        />
        <path
          d="m1.334 5.1506 0.412 0.29933-0.15733 0.48333 0.41133-0.29866 0.412 0.29866-0.15733-0.48333 0.412-0.29933h-0.50933l-0.15734-0.484-0.15666 0.484h-0.50934zm1.3333 1.3333 0.412 0.29933-0.15734 0.48334 0.41134-0.29867 0.412 0.29867-0.15734-0.48334 0.412-0.29933h-0.50933l-0.15733-0.484-0.15667 0.484h-0.50933zm2.6667 0 0.41201 0.29933-0.15734 0.48334 0.41133-0.29867 0.412 0.29867-0.15733-0.48334 0.412-0.29933h-0.50933l-0.15734-0.484-0.15666 0.484h-0.50934zm2.6667 0 0.412 0.29933-0.15733 0.48334 0.41133-0.29867 0.412 0.29867-0.15733-0.48334 0.412-0.29933h-0.50933l-0.15734-0.484-0.15667 0.484h-0.50933zm-5.3333 2.6667 0.412 0.29933-0.15734 0.48333 0.41134-0.29866 0.412 0.29866-0.15734-0.48333 0.412-0.29933h-0.50933l-0.15733-0.484-0.15667 0.484h-0.50933zm2.6667 0 0.41201 0.29933-0.15734 0.48333 0.41133-0.29866 0.412 0.29866-0.15733-0.48333 0.412-0.29933h-0.50933l-0.15734-0.484-0.15666 0.484h-0.50934zm2.6667 0 0.412 0.29933-0.15733 0.48333 0.41133-0.29866 0.412 0.29866-0.15733-0.48333 0.412-0.29933h-0.50933l-0.15734-0.484-0.15667 0.484h-0.50933zm-4-4 0.412 0.29933-0.15733 0.48333 0.41133-0.29866 0.412 0.29866-0.15733-0.48333 0.412-0.29933h-0.50934l-0.15733-0.484-0.15667 0.484h-0.50933zm2.6667 0 0.412 0.29933-0.15734 0.48333 0.41134-0.29866 0.412 0.29866-0.15733-0.48333 0.41199-0.29933h-0.50933l-0.15733-0.484-0.15667 0.484h-0.50933zm2.6667 0 0.41201 0.29933-0.15734 0.48333 0.41133-0.29866 0.41202 0.29866-0.1573-0.48333 0.412-0.29933h-0.5094l-0.15732-0.484-0.15666 0.484h-0.50934zm-8 2.6667 0.412 0.29934-0.15733 0.48333 0.41133-0.29867 0.412 0.29867-0.15733-0.48333 0.412-0.29934h-0.50933l-0.15734-0.484-0.15666 0.484h-0.50934zm2.9213 0.78267 0.41133-0.29867 0.412 0.29867-0.15733-0.48333 0.412-0.29934h-0.50934l-0.15733-0.484-0.15667 0.484h-0.50933l0.412 0.29934-0.15733 0.48333zm2.412-0.78267 0.412 0.29934-0.15734 0.48333 0.41134-0.29867 0.412 0.29867-0.15733-0.48333 0.41199-0.29934h-0.50933l-0.15733-0.484-0.15667 0.484h-0.50933zm2.6667 0 0.41201 0.29934-0.15734 0.48333 0.41133-0.29867 0.41202 0.29867-0.1573-0.48333 0.412-0.29934h-0.5094l-0.15732-0.484-0.15666 0.484h-0.50934zm-8 2.6667 0.412 0.2993-0.15733 0.4833 0.41133-0.2986 0.412 0.2986-0.15733-0.4833 0.412-0.2993h-0.50933l-0.15734-0.48404-0.15666 0.48404h-0.50934zm2.9213 0.7826 0.41133-0.2986 0.412 0.2986-0.15733-0.4833 0.412-0.2993h-0.50934l-0.15733-0.48404-0.15667 0.48404h-0.50933l0.412 0.2993-0.15733 0.4833zm2.412-0.7826 0.412 0.2993-0.15734 0.4833 0.41134-0.2986 0.412 0.2986-0.15733-0.4833 0.41199-0.2993h-0.50933l-0.15733-0.48404-0.15667 0.48404h-0.50933zm2.6667 0 0.41201 0.2993-0.15734 0.4833 0.41133-0.2986 0.41202 0.2986-0.1573-0.4833 0.412-0.2993h-0.5094l-0.15732-0.48404-0.15666 0.48404h-0.50934z"
          fill="#fff"
        />
      </g>
      <defs>
        <clipPath id="a">
          <rect width="24" height="24" fill="#fff" />
        </clipPath>
      </defs>
    </svg>