<svg width="81" height="80" viewBox="0 0 81 80" fill="none" xmlns="http://www.w3.org/2000/svg">
  <path d="m60.876 64.771-.006 2.423L41.586 78.4l.007-2.422L60.876 64.77Z" fill="#fff" stroke="#101828"
    stroke-linejoin="round" />
  <path d="m41.593 75.978-.007 2.422L20.5 66l.006-2.42 21.087 12.398Z" fill="#fff" stroke="#101828"
    stroke-linejoin="round" />
  <path d="M60.876 64.771 41.593 75.978 20.5 63.5l18.914-11.12 21.462 12.391Z" fill="#101828" stroke="#101828"
    stroke-linejoin="round" />
  <path d="M41.5 75 22.565 63.823 22.5 30l19 10.863V75Zm.02-34.131L22.5 30l8.158-23.629L49.73 17.454 41.52 40.87Z"
    fill="#fff" stroke="#101828" stroke-linejoin="round" />
  <path d="m24.255 29.118 7.21-20.56 16.457 9.564-7.21 20.56-16.457-9.564Z" fill="#FF5A22" />
  <path d="m46.271 18.877-.24.672-.256.72-3.264 8.784-6.08-3.52-6.032-3.504-1.728-1.008 3.6-10.272 14 8.128Z"
    fill="#fff" />
  <path
    d="M49.73 17.454 30.658 6.371 38.921 1.6l19.072 11.083-8.263 4.771Zm8.263-4.771.033 52.776L41.5 75l.02-34.131 8.21-23.415 8.263-4.77Z"
    fill="#fff" stroke="#101828" stroke-linejoin="round" />
  <path d="M37.766 28.816v-.208l-.554.054-1.662 5.48 1.083-.102h.016l1.47-4.858.115-.366h-.468Z" fill="#fff" />
  <path d="m38.673 35.54.158.178-.475.044-2.806-1.62 1.083-.102h.016l1.9 1.098.402.224-.278.179Z" fill="#fff" />
  <path d="M38.882 35.224h.11L40.586 30l-1.653-.96v.084h-.81l-.017.06-1.472 4.857h.016l1.9 1.098.333.206v-.12Z"
    fill="#101828" />
  <path
    d="m38.282 28.662-.014-.015-.134-.074-1.159-.67-1.99 6.522 3.61 2.08.237-.787.104-.342.015-.014 1.634-5.363-2.303-1.337Zm.268 6.476-.193.624-2.808-1.619 1.664-5.481.891.52h.015l1.916 1.099-1.485 4.857Zm-11.943.802v2.036L37.6 44.333l.015-2.034-11.007-6.358Z"
    fill="#101828" />
</svg>