<svg width="20" height="20" viewBox="0 0 20 20" fill="none" xmlns="http://www.w3.org/2000/svg">
    <mask id="a" style="mask-type:alpha" maskUnits="userSpaceOnUse" x="0" y="0" width="20" height="20">
        <path fill="#D9D9D9" d="M0 0h20v20H0z" />
    </mask>
    <g mask="url(#a)">
        <path
            d="M3.375 18.334a.84.84 0 0 1-.615-.26.84.84 0 0 1-.26-.615.84.84 0 0 1 .26-.615.84.84 0 0 1 .615-.26h.792V14a2.546 2.546 0 0 1-1.198-.919 2.457 2.457 0 0 1-.469-1.476V5.77a.84.84 0 0 1 .26-.614.84.84 0 0 1 .615-.26h3.333a.84.84 0 0 1 .615.26.84.84 0 0 1 .26.614v5.833c0 .553-.156 1.045-.468 1.477a2.546 2.546 0 0 1-1.198.92v2.583h.791a.84.84 0 0 1 .615.26.84.84 0 0 1 .26.615.84.84 0 0 1-.26.614.84.84 0 0 1-.615.26H3.375Zm.875-9.25h1.583V6.646H4.25v2.438Zm.79 3.312a.776.776 0 0 0 .793-.781v-.781H4.25v.774c0 .22.076.406.227.559a.76.76 0 0 0 .562.23Zm5.793 5.938a1.69 1.69 0 0 1-1.236-.514 1.685 1.685 0 0 1-.514-1.236V8.723c0-.357.111-.688.334-.994.222-.305.507-.52.854-.645l.77-.271a.783.783 0 0 0 .365-.26.65.65 0 0 0 .136-.407V2.52a.842.842 0 0 1 .864-.853H15a.83.83 0 0 1 .609.245.825.825 0 0 1 .245.608v3.626a.65.65 0 0 0 .136.406c.09.118.211.205.364.26l.771.272c.347.125.635.34.865.645.229.306.343.637.343.994v7.86c0 .482-.171.894-.514 1.237a1.685 1.685 0 0 1-1.236.514h-5.75Zm2.459-14.105h.812v-.812h-.812v.812Zm-2.459 5.709h5.75V8.73l-.77-.272a2.512 2.512 0 0 1-1.25-.896 2.304 2.304 0 0 1-.459-1.396v-.188h-.812v.188c0 .514-.15.98-.448 1.396a2.457 2.457 0 0 1-1.23.896l-.78.27v1.209Zm0 6.646h5.75V15.02h-5.75v1.563Zm0-3.313h5.75v-1.583h-5.75v1.583Z"
            fill="#475467" />
    </g>
</svg>