<svg viewBox="0 0 64 64" fill="none" xmlns="http://www.w3.org/2000/svg">
    <path
        d="M48 44.8 20.054 61.341c-.688.404-1.64.349-2.687-.263-2.09-1.22-3.774-4.174-3.767-6.601L42.348 37.6c-.008 2.428 1.675 5.382 3.766 6.602.202.117 1.086.933 1.886.598Z"
        fill="#101828" />
    <path
        d="m48 44.8.255.43a.5.5 0 0 0-.448-.891L48 44.8ZM20.054 61.341l.253.431h.002l-.255-.43Zm-2.687-.263-.252.432.252-.432ZM13.6 54.477l-.253-.432a.5.5 0 0 0-.247.43l.5.002ZM42.348 37.6l.5.002a.5.5 0 0 0-.754-.433l.254.431Zm3.766 6.602.252-.432-.252.432Zm1.631.168L19.8 60.91l.51.86 27.946-16.54-.51-.861ZM19.801 60.91c-.477.28-1.227.294-2.182-.264l-.504.864c1.14.666 2.294.79 3.192.262l-.506-.862Zm-2.182-.263c-.951-.556-1.838-1.526-2.488-2.665-.65-1.138-1.034-2.398-1.03-3.504l-1-.003c-.005 1.322.448 2.752 1.162 4.003.713 1.25 1.713 2.367 2.852 3.032l.504-.863Zm-3.766-5.74 28.748-16.876-.507-.862-28.747 16.876.506.863Zm27.995-17.309c-.005 1.322.448 2.753 1.162 4.004.713 1.25 1.713 2.367 2.853 3.032l.503-.864c-.952-.555-1.838-1.525-2.488-2.664-.649-1.138-1.034-2.398-1.03-3.505l-1-.003Zm4.014 7.035c-.001 0 .013.008.063.046l.167.12c.133.095.31.213.514.317.39.2.982.399 1.587.145l-.386-.922c-.195.081-.445.04-.747-.114a3.181 3.181 0 0 1-.389-.24l-.155-.114a1.87 1.87 0 0 0-.15-.101l-.504.863Z"
        fill="#101828" />
    <path
        d="m50.399 3.2-.088 37.098c-.012 2.172-.774 3.708-2.026 4.433L19.2 61.6c1.25-.725 2.025-2.248 2.025-4.432l.089-37.099L50.4 3.2Z"
        fill="#fff" stroke="#101828" stroke-linejoin="round" />
    <path
        d="M37.473 17.899c3.848-2.223 6.972-.442 6.984 3.971.013 4.43-3.09 9.807-6.94 12.029-3.84 2.217-6.964.438-6.976-3.994-.013-4.413 3.09-9.789 6.932-12.006Z"
        fill="#FF5A22" />
    <path
        d="m39.58 25.215.499 3-2.566-.074-2.565 3.042.477-3.573-2.089-1.134 2.873-2.13 1.284-3.733 1.292 2.248 2.874-1.188-2.078 3.542Z"
        fill="#fff" />
    <path
        d="M48.195 32.462c.455-.264.83-.055.832.473 0 .523-.372 1.162-.826 1.424L24.333 48.137c-.46.265-.833.057-.836-.465 0-.53.372-1.167.832-1.433l23.866-13.778Zm0 6.011c.455-.264.83-.056.832.473 0 .523-.372 1.162-.826 1.424L24.333 54.148c-.46.264-.833.057-.836-.465 0-.53.372-1.167.832-1.433l23.866-13.779v.002Z"
        fill="#101828" />
</svg>