<svg width="81" height="80" viewBox="0 0 81 80" fill="none" xmlns="http://www.w3.org/2000/svg">
    <path fill-rule="evenodd" clip-rule="evenodd"
        d="m65 16.181 8.563 4.977c-1.217-.706-2.72-.913-4.4-.557l-8.57-4.981c1.683-.355 3.19-.147 4.407.561Zm-7.547-8.106 8.57 4.982c-1.966-1.143-4.69-.982-7.697.754-1.312.758-2.56 1.756-3.724 2.909l-5.95-3.458c-1.51.079-3.19.605-4.956 1.625-4.667 2.693-8.703 8.115-10.646 13.724l-8.57-4.98c1.944-5.608 5.98-11.03 10.646-13.725 3.31-1.91 6.314-2.09 8.48-.831l3.248 1.888a17.472 17.472 0 0 1 2.903-2.133c3.008-1.736 5.73-1.897 7.696-.755Zm-41.455 63.85-8.569-4.98c-1.944-1.13-3.148-3.532-3.157-6.95-.016-5.54 3.138-12.069 7.497-16.185l8.569 4.98c-4.358 4.116-7.513 10.647-7.497 16.187.01 3.417 1.214 5.82 3.157 6.949Zm-4.23-28.117 8.57 4.981-.004-.092a11.89 11.89 0 0 1-.013-.504c-.02-6.851 4.801-15.21 10.778-18.662a13.258 13.258 0 0 1 1.95-.92l-8.57-4.98a13.27 13.27 0 0 0-1.949.918c-5.978 3.453-10.8 11.812-10.78 18.663.002.204.01.397.018.596Z"
        fill="#101828" />
    <path
        d="m73.563 21.158-.251.432a.5.5 0 0 0 .502-.865l-.251.433ZM65 16.18l.251-.432-.25.432Zm4.163 4.42-.25.432a.5.5 0 0 0 .354.057l-.104-.49Zm-8.57-4.981-.103-.49a.5.5 0 0 0-.148.922l.25-.432Zm5.43-2.563-.25.432a.5.5 0 0 0 .502-.865l-.251.433Zm-8.57-4.982-.251.433.251-.432Zm.873 5.736-.25-.433.25.433Zm-3.724 2.909-.251.432a.5.5 0 0 0 .603-.077l-.352-.355Zm-5.95-3.458.252-.432a.5.5 0 0 0-.277-.067l.026.5Zm-4.956 1.625.25.434-.25-.434ZM33.05 28.611l-.25.433a.5.5 0 0 0 .723-.269l-.473-.164Zm-8.57-4.98-.473-.165a.5.5 0 0 0 .222.596l.25-.432ZM35.126 9.905l-.25-.433.25.433Zm8.48-.831.251-.433-.251.433Zm3.248 1.888-.251.432a.5.5 0 0 0 .585-.06l-.334-.373Zm2.903-2.133.25.433-.25-.433ZM7.428 66.945l.252-.432-.252.432Zm8.569 4.98-.252.433a.5.5 0 1 0 .503-.865l-.251.433ZM4.272 59.996h.5-.5Zm7.497-16.185.251-.433a.5.5 0 0 0-.594.07l.343.363Zm8.569 4.98.343.364a.5.5 0 0 0-.092-.795l-.251.432Zm-7.497 16.187-.5.001.5-.001Zm7.496-16.188-.251.433a.5.5 0 0 0 .75-.452l-.499.02Zm-8.569-4.98-.5.022a.5.5 0 0 0 .249.41l.251-.433Zm8.566 4.888-.5.02.5-.02Zm-.013-.504h.5v-.001l-.5.001Zm10.778-18.662-.249-.434.25.434Zm1.95-.92.176.468a.5.5 0 0 0 .076-.9l-.251.432Zm-8.57-4.98.251-.433a.5.5 0 0 0-.427-.036l.176.468Zm-1.949.918-.249-.433.25.433ZM11.75 43.212l-.5.002v.002l.5-.004Zm62.064-22.487-8.563-4.976-.502.864 8.563 4.977.502-.865Zm-4.547.365c1.58-.334 2.953-.133 4.045.5l.502-.865c-1.342-.778-2.975-.99-4.754-.613l.207.978Zm-8.925-5.038 8.57 4.981.503-.864-8.571-4.982-.502.865Zm4.91-.303c-1.343-.78-2.98-.994-4.762-.619l.206.979c1.584-.334 2.96-.131 4.053.504l.502-.864Zm1.023-3.125-8.57-4.98-.503.864 8.57 4.98.503-.864Zm-7.7 1.62c2.918-1.683 5.44-1.776 7.197-.755l.503-.865c-2.177-1.264-5.1-1.034-8.2.754l.5.866Zm-3.621 2.831c1.14-1.13 2.355-2.099 3.622-2.83l-.5-.867c-1.357.784-2.639 1.81-3.826 2.987l.704.71Zm-6.553-3.38 5.95 3.457.502-.864-5.95-3.458-.502.865Zm-4.454 1.625c1.713-.99 3.316-1.485 4.731-1.558l-.051-.999c-1.607.083-3.362.641-5.18 1.692l.5.865ZM33.523 28.776c1.912-5.521 5.882-10.834 10.423-13.454l-.5-.867c-4.792 2.766-8.895 8.296-10.868 13.994l.945.327Zm-9.294-4.712 8.57 4.98.503-.864-8.57-4.981-.503.864Zm10.647-14.59c-4.791 2.767-8.894 8.298-10.869 13.993l.945.328c1.914-5.52 5.883-10.833 10.424-13.455l-.5-.866Zm8.981-.83c-2.376-1.381-5.58-1.133-8.981.83l.5.866c3.219-1.858 6.022-1.969 7.979-.832l.502-.865Zm3.248 1.887-3.248-1.888-.502.865 3.248 1.888.502-.865Zm2.402-2.133a17.972 17.972 0 0 0-2.987 2.193l.668.745a16.973 16.973 0 0 1 2.818-2.072l-.5-.866Zm8.197-.754c-2.175-1.264-5.098-1.034-8.197.754l.5.866c2.917-1.683 5.44-1.776 7.195-.755l.502-.865ZM7.178 67.377l8.568 4.98.503-.864-8.568-4.98-.503.864Zm-3.406-7.38c.009 3.523 1.255 6.13 3.406 7.38l.502-.864c-1.737-1.01-2.9-3.207-2.908-6.519l-1 .003Zm7.654-16.55c-4.442 4.193-7.67 10.85-7.654 16.55l1-.003c-.015-5.379 3.063-11.782 7.34-15.82l-.686-.728Zm9.163 4.912-8.569-4.982-.502.865 8.569 4.981.502-.864Zm-7.248 16.616c-.015-5.378 3.065-11.784 7.34-15.82l-.686-.728c-4.44 4.193-7.67 10.85-7.654 16.551l1-.003Zm2.908 6.518c-1.735-1.008-2.898-3.206-2.908-6.518l-1 .003c.01 3.523 1.256 6.13 3.405 7.38l.503-.865Zm4.34-23.136-8.57-4.981-.502.865 8.569 4.98.503-.864Zm-.755.36.004.091.999-.038a22.819 22.819 0 0 0-.004-.093l-.999.04Zm-.013-.524c0 .184.006.358.013.523l1-.039a12.204 12.204 0 0 1-.013-.484h-1Zm11.028-19.095c-3.082 1.78-5.838 4.805-7.82 8.24-1.983 3.433-3.218 7.322-3.208 10.857l1-.003c-.01-3.317 1.155-7.033 3.073-10.355 1.918-3.321 4.56-6.202 7.456-7.874l-.5-.865Zm2.025-.955c-.7.263-1.376.582-2.024.954l.499.867a12.77 12.77 0 0 1 1.876-.885l-.351-.936Zm-8.646-4.08 8.57 4.98.503-.864-8.57-4.981-.503.864Zm-1.448.92c.6-.345 1.227-.641 1.875-.885l-.352-.936a13.82 13.82 0 0 0-2.022.954l.499.867ZM12.25 43.21c-.01-3.317 1.156-7.033 3.074-10.355s4.56-6.202 7.456-7.874l-.5-.866c-3.083 1.78-5.84 4.806-7.822 8.24-1.983 3.434-3.218 7.323-3.208 10.858l1-.003Zm.018.575a15.05 15.05 0 0 1-.018-.578l-1 .008c.002.213.01.414.019.615l.999-.045Z"
        fill="#101828" />
    <path
        d="M76.384 27.765c.03 6.868-4.8 15.245-10.794 18.687L23.368 70.849c-5.992 3.441-10.853.679-10.868-6.204-.015-5.54 3.14-12.062 7.502-16.183-.015-.196-.015-.392-.015-.604-.03-6.837 4.8-15.201 10.777-18.658a14.042 14.042 0 0 1 1.947-.92c1.947-5.6 5.978-11.02 10.643-13.721 4.846-2.793 9.042-1.872 10.914 1.841 1.162-1.162 2.4-2.158 3.713-2.913 5.979-3.457 10.84-.68 10.854 6.174 0 .196 0 .407-.015.619 4.377-.921 7.547 1.947 7.562 7.486l.002-.001Z"
        fill="#fff" stroke="#101828" stroke-linejoin="round" />
    <path
        d="M53.237 35.105c7.622-4.402 13.82-.865 13.846 7.894.024 8.752-6.133 19.422-13.757 23.824-7.615 4.397-13.818.862-13.842-7.889-.024-8.76 6.136-19.432 13.751-23.83h.002Z"
        fill="#FF5A22" />
    <path
        d="m55.999 38.161-.306 1.56c3.803-.944 6.455 1.544 6.469 6.095.014 4.578-2.657 10.163-6.494 13.597l-.37-1.315c3.243-2.898 5.5-7.623 5.489-11.488-.012-3.839-2.25-5.943-5.448-5.147l-.33 1.654-2.529-1.642L56 38.16Zm-5.093 4.305.362 1.31c-3.242 2.897-5.498 7.623-5.488 11.498.01 3.819 2.224 5.928 5.407 5.152l.554-1.729 2.053 2.375-3.664 2.692.497-1.56c-3.67.792-6.21-1.695-6.222-6.136-.014-4.578 2.655-10.174 6.501-13.602Z"
        fill="#fff" />
</svg>