<svg width="20" height="14" viewBox="0 0 20 14" fill="none" xmlns="http://www.w3.org/2000/svg">
    <path
        d="M5.875 0.700013L0.274999 6.30001C0.174999 6.40001 0.104333 6.50835 0.0629994 6.62501C0.0209994 6.74168 -5.86461e-07 6.86668 -5.74805e-07 7.00001C-5.63148e-07 7.13335 0.0209994 7.25835 0.0629994 7.37501C0.104333 7.49168 0.175 7.60001 0.275 7.70001L5.875 13.3C6.05833 13.4833 6.28767 13.575 6.563 13.575C6.83767 13.575 7.075 13.4833 7.275 13.3C7.475 13.1 7.575 12.8627 7.575 12.588C7.575 12.3127 7.475 12.075 7.275 11.875L3.4 8.00001L18.575 8.00001C18.8583 8.00001 19.0957 7.90434 19.287 7.71301C19.479 7.52101 19.575 7.28334 19.575 7.00001C19.575 6.71668 19.479 6.47934 19.287 6.28801C19.0957 6.09601 18.8583 6.00001 18.575 6.00001L3.4 6.00001L7.275 2.10001C7.45833 1.91668 7.55433 1.68768 7.563 1.41301C7.571 1.13768 7.475 0.900012 7.275 0.700013C7.09167 0.516679 6.85833 0.425011 6.575 0.425011C6.29167 0.425011 6.05833 0.516679 5.875 0.700013Z"
        fill="currentColor" />
</svg>