<svg width="56" height="56" viewBox="0 0 56 56" fill="none" xmlns="http://www.w3.org/2000/svg">
<rect width="56" height="56" rx="16" fill="#039855"/>
<path d="M20.1259 26.9717C20.043 26.4376 20 25.8904 20 25.3333C20 19.4423 24.8071 14.6666 30.7369 14.6666C36.6667 14.6666 41.4737 19.4423 41.4737 25.3333C41.4737 26.6641 41.2284 27.9379 40.7803 29.1126C40.6872 29.3566 40.6407 29.4786 40.6195 29.5738C40.5986 29.6682 40.5905 29.7346 40.5883 29.8312C40.586 29.9288 40.5992 30.0362 40.6256 30.2511L41.1624 34.6113C41.2205 35.0833 41.2496 35.3193 41.1711 35.4909C41.1023 35.6412 40.9801 35.7607 40.8282 35.826C40.6549 35.9005 40.4196 35.866 39.949 35.797L35.702 35.1745C35.4803 35.142 35.3694 35.1258 35.2684 35.1263C35.1685 35.1269 35.0994 35.1343 35.0016 35.1548C34.9028 35.1756 34.7765 35.2229 34.5241 35.3175C33.3463 35.7586 32.07 36 30.7369 36C30.1793 36 29.6316 35.9577 29.097 35.8763M22.1755 41.3333C26.1287 41.3333 29.3334 38.05 29.3334 34C29.3334 29.9499 26.1287 26.6666 22.1755 26.6666C18.2223 26.6666 15.0176 29.9499 15.0176 34C15.0176 34.8141 15.1471 35.5972 15.3861 36.3289C15.4872 36.6382 15.5377 36.7929 15.5543 36.8985C15.5716 37.0088 15.5746 37.0708 15.5682 37.1822C15.562 37.289 15.5353 37.4097 15.4819 37.651L14.6667 41.3333L18.6598 40.788C18.8778 40.7582 18.9867 40.7433 19.0819 40.744C19.1821 40.7446 19.2353 40.7501 19.3336 40.7697C19.4269 40.7883 19.5656 40.8372 19.8431 40.9352C20.5742 41.1932 21.3589 41.3333 22.1755 41.3333Z" stroke="white" stroke-width="2" stroke-linecap="round" stroke-linejoin="round"/>
</svg>
