<svg width="81" height="80" viewBox="0 0 81 80" fill="none" xmlns="http://www.w3.org/2000/svg">
  <path
    d="M76.281 49.266c1.486.858 1.494 2.244.017 3.102l-22.35 12.989c-1.476.858-3.87.858-5.355 0L5.873 40.733c-1.477-.853-1.485-2.24-.009-3.097l22.35-12.988c1.476-.858 3.87-.858 5.347-.005l42.72 24.623Z"
    fill="#fff" stroke="#101828" stroke-linejoin="round" />
  <path
    d="m74.8 53.243-4.868 2.828L21.85 28.35l4.866-2.83L74.8 53.243Zm-19.96 4.582c.431.25.434.648.005.897-.43.25-1.127.255-1.559.005L30.306 45.46c-.432-.25-.425-.653.004-.903s1.118-.25 1.55 0l22.98 13.268Zm-2.59 2.282c.431.25.434.649.005.898-.43.25-1.127.255-1.56.005l-10.478-6.05c-.432-.25-.426-.653.003-.903.43-.25 1.118-.25 1.55 0l10.48 6.05Z"
    fill="#101828" />
  <path d="m51.12 47.946-4.73 2.748-28.267-16.32 4.73-2.747 28.267 16.32Z" fill="#fff" />
  <path
    d="M23.475 36.262c-.003.06.034.11.119.158a.57.57 0 0 0 .36.067l1.656-.107-.146.992c-.023.073.014.138.104.189.09.053.189.076.296.073a.563.563 0 0 0 .273-.073c.07-.04.107-.088.11-.144l.172-1.104 1.906-.087a.546.546 0 0 0 .234-.068c.073-.042.113-.093.107-.155-.003-.062-.045-.115-.127-.16a.517.517 0 0 0-.32-.068l-1.71.11.174-.994c.023-.07-.02-.133-.118-.19a.543.543 0 0 0-.276-.07.531.531 0 0 0-.282.07.205.205 0 0 0-.107.142l-.183 1.104-1.873.09a.534.534 0 0 0-.234.065c-.087.05-.129.104-.135.16Zm-3.132-1.808c-.002.056.037.113.119.158a.62.62 0 0 0 .36.07l1.656-.11-.146.989c-.02.076.014.14.104.191.09.054.189.076.296.074a.562.562 0 0 0 .273-.074c.07-.039.104-.087.11-.143l.172-1.104 1.906-.088a.547.547 0 0 0 .234-.067c.073-.043.11-.096.107-.155-.003-.062-.045-.116-.127-.16a.517.517 0 0 0-.32-.068l-1.71.11c.134-.98.287-1.051.056-1.183a.59.59 0 0 0-.558-.003c-.059.037-.098.084-.107.144l-.186 1.104-1.87.09a.588.588 0 0 0-.233.065c-.085.05-.13.104-.136.16Zm6.264 3.616c-.002.06.037.113.119.158a.57.57 0 0 0 .36.068l1.656-.107-.146.988c-.023.076.014.141.104.192a.59.59 0 0 0 .569 0c.168-.095.082-.107.282-1.245l1.906-.09c.149-.014.354-.08.341-.223 0-.154-.27-.246-.445-.225l-1.715.107c.148-1.06.287-1.053.059-1.183a.544.544 0 0 0-.276-.07.514.514 0 0 0-.279.07.207.207 0 0 0-.11.14l-.183 1.105-1.876.09a.533.533 0 0 0-.23.065c-.088.05-.13.104-.136.16Z"
    fill="#101828" />
  <path
    d="M76.078 38.606c1.625.938 1.654 2.469.04 3.407l-23.82 13.843c-1.614.938-4.258.926-5.883-.012L4.819 31.827c-1.625-.938-1.654-2.47-.04-3.407l23.82-13.843c1.614-.938 4.258-.926 5.882.012l41.598 24.017Z"
    fill="#fff" stroke="#101828" stroke-linejoin="round" />
  <path opacity=".3"
    d="m55.886 32.845-.142.345-.675.154-.39-.012c-.868-.1-1.213-.646-2.015-1.187l.08-.214.266-.178.368-.142.656.023.165.072-.06.154-.02.154.164.119.246.047.186.131.184-.036.451.072c.233.096.462.26.536.498Zm-2.153 4.388.027.017c.15.305-.003-.227.477 1.033l.021.13-.45.238-.656-.214.042.332c.37.214.986.238 1.456.107l.102-.035.104.106-.082.095c-.267.379.556.945.97 1.152l.144.107-.06.25c-.153.344.45.561.823.64l.514.178-.408.356c-.434.095-1.026.023-1.56-.285-.6-.346-.474-.566-.866-.973-.538-.48-1.176-.246-1.333-.25l-.144-.059c-.679-.415-.806-1.104-.234-1.579l.04-.047-.041-.047c-1.225-1.083-3.393-1.235-3.495-1.805.685 0 1.342.568 2.195.226l.245-.072.493.119.368-.119.308.13c.259.15.745.122 1 .27Z"
    fill="#fff" />
  <path
    d="m17.908 32.029-2.492 1.449-7.26-4.19 2.492-1.45 7.26 4.19Zm17.48 10.091-2.492 1.448-7.259-4.19 2.493-1.448 7.258 4.19Zm-8.741-5.045-2.492 1.447-7.258-4.19 2.492-1.448 7.258 4.19ZM52.863 52.21l-2.492 1.45-7.259-4.192 2.493-1.448 7.258 4.19Zm-8.736-5.045-2.492 1.45-7.26-4.192 2.492-1.449 7.26 4.19Z"
    fill="#101828" />
  <path
    d="m72.738 40.138-4.842 2.813-15.319-8.844 4.841-2.813 15.32 8.844ZM34.164 17.866l-1.92 1.116-2.406-1.39 1.042-.605c.49-.285 1.269-.285 1.762 0l1.522.879ZM31.61 19.35l-1.899 1.104-2.406-1.39 1.9-1.104 2.406 1.39Zm-4.94.083 2.406 1.389-1.92 1.116-1.522-.879c-.494-.285-.496-.736-.006-1.02l1.042-.606Z"
    fill="#FF5A22" />
  <path
    d="m34.8 18.234-7.006 4.072-.638-.367 1.92-1.117-2.405-1.39.632-.367 2.406 1.389 1.9-1.105-2.406-1.389.634-.367 2.406 1.389 1.92-1.116.637.368Z"
    fill="#fff" />
  <path
    d="M39.9 21.178c.472.273.495.736.005 1.02l-1.042.606-2.406-1.389 1.92-1.116 1.522.879Zm-5.1-2.944 2.942 1.697-7.007 4.072-2.94-1.697 7.005-4.072Zm-.876 4.654 1.9-1.105 2.406 1.39-1.9 1.104-2.406-1.39Z"
    fill="#FF5A22" />
  <path
    d="m38.378 20.3-1.92 1.115 2.406 1.39-.634.367-2.406-1.389-1.9 1.105 2.406 1.389-.634.367-2.404-1.389-1.922 1.117-.637-.369 7.008-4.072.637.37Z"
    fill="#fff" />
  <path d="m31.37 24.372 1.92-1.116 2.407 1.389-1.042.605c-.49.285-1.29.273-1.763 0l-1.522-.878Z" fill="#FF5A22" />
</svg>