<svg width="24" height="24" viewBox="0 0 24 24" fill="currentColor" xmlns="http://www.w3.org/2000/svg">
<path d="M13.3 17.491L8.70005 12.891C8.60005 12.791 8.52938 12.6826 8.48805 12.566C8.44605 12.4493 8.42505 12.3243 8.42505 12.191C8.42505 12.0576 8.44605 11.9326 8.48805 11.816C8.52938 11.6993 8.60005 11.591 8.70005 11.491L13.3 6.89097C13.4834 6.70763 13.7167 6.61597 14 6.61597C14.2834 6.61597 14.5167 6.70763 14.7 6.89097C14.8834 7.0743 14.975 7.30763 14.975 7.59097C14.975 7.8743 14.8834 8.10763 14.7 8.29097L10.8 12.191L14.7 16.091C14.8834 16.2743 14.975 16.5076 14.975 16.791C14.975 17.0743 14.8834 17.3076 14.7 17.491C14.5167 17.6743 14.2834 17.766 14 17.766C13.7167 17.766 13.4834 17.6743 13.3 17.491Z" fill="currentColor"/>
</svg>
