<svg width="24" height="24" viewBox="0 0 24 24" fill="currentColor" xmlns="http://www.w3.org/2000/svg">
<path d="M8.82139 17.491C8.63805 17.3076 8.54639 17.0743 8.54639 16.791C8.54639 16.5076 8.63805 16.2743 8.82139 16.091L12.7214 12.191L8.82139 8.29097C8.63805 8.10763 8.54639 7.8743 8.54639 7.59097C8.54639 7.30763 8.63805 7.0743 8.82139 6.89097C9.00472 6.70763 9.23805 6.61597 9.52139 6.61597C9.80472 6.61597 10.0381 6.70763 10.2214 6.89097L14.8214 11.491C14.9214 11.591 14.9924 11.6993 15.0344 11.816C15.0757 11.9326 15.0964 12.0576 15.0964 12.191C15.0964 12.3243 15.0757 12.4493 15.0344 12.566C14.9924 12.6826 14.9214 12.791 14.8214 12.891L10.2214 17.491C10.0381 17.6743 9.80472 17.766 9.52139 17.766C9.23805 17.766 9.00472 17.6743 8.82139 17.491Z" fill="currentColor"/>
</svg>
