<svg width="81" height="80" viewBox="0 0 81 80" fill="none" xmlns="http://www.w3.org/2000/svg">
    <path
        d="m56.486 47.351-44.72 25.82c-.511.295-.861.26-1.052.149-.192-.111-.397-.4-.399-.989l-.099-37.166L58.326 7.39l.097 36.592c.001.59-.205 1.278-.567 1.91-.361.633-.852 1.162-1.37 1.46Z"
        fill="#fff" stroke="#101828" />
    <path
        d="M56.615 2.666c1.227-.707 2.213-.129 2.216 1.263l.008 2.571L9.715 34.862l-.006-2.573c-.003-1.39.977-3.104 2.202-3.812l44.704-25.81Z"
        fill="#101828" />
    <path
        d="M13.278 29.305c.642-.37 1.157-.077 1.159.66.003.753-.508 1.638-1.15 2.009-.642.37-1.156.077-1.158-.677-.003-.737.508-1.623 1.15-1.992Zm4.319-2.493c.641-.37 1.17-.086 1.172.651.002.754-.523 1.646-1.164 2.017-.642.37-1.156.077-1.159-.677-.001-.735.51-1.621 1.151-1.992v.001Zm4.332-2.501c.628-.363 1.156-.077 1.159.66.001.754-.523 1.646-1.151 2.009-.655.378-1.17.085-1.172-.67-.003-.736.507-1.62 1.164-2ZM55.52 5.212c.484-.28.9-.06.901.514.002.574-.41 1.286-.895 1.566l-20.663 11.93c-.514.296-.914.052-.916-.522-.001-.572.396-1.261.908-1.557L55.52 5.213Z"
        fill="#fff" />
    <path
        d="M55.11 43.388 13.573 67.372l-.03-13.553s.081-.2.18-.25c.149-.081.315.133.249 1.654 0 .165.132 3.306.892 2.859a.964.964 0 0 0 .215-.182c.016-.032.247-.181.28-1.157 0-.792.38-2.495.777-2.726.133-.066.248 0 .348.28l.628 3.223c.066 0 1.223-.066 1.306.76.081.728.43 1.62.826 1.39.066-.035.132-.116.215-.216.479-.777.662-1.9.693-2.942.017-.71.149-1.009.597-1.257.181-.115.446-.23.792-.363a2.62 2.62 0 0 0 .215-.1c.843-.495.596-1.52.545-1.949-.032-.38.166-3.835.514-4.034.064-.032.13.034.197.248.364 1.108.463 2.117.695 1.985.05-.034.116-.117.182-.299.066-.148.115-.23.181-.265.331-.181.596.86.645 1.29.066.529.529 2.727 1.223 2.497.71-.216 1.372.512 1.735.975.15.182.282.197.397.13.182-.115.363-.411.562-.61a.297.297 0 0 1 .117-.083c.115-.066.28-.082.429-.099.153-.009.304-.043.446-.1a.876.876 0 0 0 .215-.215c.297-.461-.033-1.652 1.305-2.43.1-.048.2-.114.314-.164a.99.99 0 0 0 .23-.115c.631-.365.944-.926 1.16-1.439.198-.512.33-.975.594-1.123.067-.05.165-.067.28-.05.647.132 1.654.646 2.414.2.314-.185.596-.531.777-1.142.496-1.686 1.586-7.174 2.562-7.735.23-.133.446 0 .661.529.843 2.197 1.108 5.67 2.116 5.074.264-.15.595-.53.992-1.339.032-.017.05-.017.083-.034.082-.032.165-.083.23-.115.629-.365.927-.926 1.14-1.438.216-.513.349-.976.596-1.14.083-.034.182-.05.297-.034.646.117 1.654.629 2.414.2.314-.183.595-.546.76-1.159.512-1.686 1.603-7.174 2.579-7.735.23-.132.446.015.646.53.858 2.215 1.123 5.668 2.114 5.09.281-.15.595-.596.992-1.405l.015 6.099h.002Z"
        fill="#FF5A22" />
    <path
        d="M20.448 34.01c3.489-2.016 6.326-.48 6.338 3.415.01 3.896-2.808 8.696-6.295 10.709a6.883 6.883 0 0 1-1.82.749l.943-3.139c.281-.089.57-.213.87-.386 2.114-1.221 3.825-4.129 3.82-6.501-.007-2.37-1.729-3.296-3.845-2.074l-.011-2.774Z"
        fill="#101828" />
    <path
        d="m20.448 34.01.007 2.775c-2.115 1.221-3.826 4.129-3.82 6.498.006 2.039 1.279 3.003 2.979 2.462l-.943 3.138c-2.605.625-4.508-.977-4.517-4.168-.01-3.893 2.81-8.695 6.294-10.707v.001Zm27.977-3.918.007 2.891-2.134 1.232-.009-2.89 2.136-1.233Zm-7.037 5.214.004 1.742-2.135 1.232-.005-1.74 2.136-1.234Zm-7.042 2.914.008 2.89-2.137 1.236-.01-2.89 2.14-1.236Z"
        fill="#101828" />
    <path
        d="m34.332 33.452.014 4.768-2.138 1.236-.014-4.77 2.138-1.234Zm3.528 1.253.012 4.375-2.133 1.232-.013-4.375 2.134-1.232Z"
        fill="#101828" />
    <path
        d="m37.84 24.714.02 9.99-2.134 1.233-.023-9.99 2.137-1.233Zm17.594-11.151.025 10.03-2.137 1.235-.027-10.031 2.139-1.234Z"
        fill="#101828" />
    <path
        d="m55.459 23.594.015 5.324-2.139 1.234-.014-5.324 2.138-1.234Zm-3.516 4.089.012 3.266-2.138 1.234-.01-3.268 2.136-1.232Z"
        fill="#101828" />
    <path
        d="m51.928 19.517.015 8.166-2.135 1.232-.016-8.166 2.136-1.232ZM48.41 22.55l.014 7.541-2.136 1.233-.015-7.54 2.137-1.234Zm-3.526-.371.018 9.038-2.137 1.234-.018-9.038 2.137-1.234Zm.019 9.039.01 3.796-2.136 1.235-.01-3.797 2.136-1.233Zm-3.524-1.561.009 5.65-2.136 1.233-.007-5.65 2.134-1.233Z"
        fill="#101828" />
    <path
        d="M47.589 50.425 72.123 36.26l.75-.432c.704-.406 1.227-.384 1.541-.207.312.176.592.602.594 1.39l.049 17.12c.002.786-.282 1.703-.768 2.542-.486.84-1.147 1.552-1.848 1.957L47.156 73.226c-.687.396-1.203.373-1.515.195-.312-.178-.591-.605-.593-1.392L45 54.909c-.003-.787.28-1.705.764-2.542.484-.838 1.138-1.546 1.825-1.942Z"
        fill="#fff" stroke="#101828" />
    <path
        d="M59.37 49.132 72.42 41.6l-.005-1.743-13.046 7.53v1.746Zm0 3.962 13.06-7.54-.004-1.743-13.057 7.537v1.746Zm0 7.923 7.29-4.21-.005-1.742-7.286 4.206v1.746Zm0-3.962 13.072-7.547-.005-1.743-13.068 7.544v1.747Z"
        fill="#101828" />
    <path
        d="M52.639 58.874 57.5 56.07c-.11 3.1-2.28 6.77-4.935 8.308-1.251.721-2.431.87-3.354.43l3.426-5.935h.002Zm.107-6.011c1.242-.657 2.406-.743 3.295-.237.893.508 1.404 1.543 1.457 2.945l-4.736 2.734-.016-5.442Zm-.431.247.016 5.588-3.426 5.936c-.84-.57-1.307-1.659-1.311-3.108-.011-3.05 2.089-6.77 4.72-8.417h.001Z"
        fill="#FF5A22" />
</svg>