<svg viewBox="0 0 64 64" fill="none" xmlns="http://www.w3.org/2000/svg">
    <path
        d="m31.98 42.98-5.796-3.281c-.119.516-.5 1.023-1.184 1.428-.22.13-.47.25-.753.355-1.3.5-3.047.534-4.369.083-2.427-.835-2.703-2.701-.834-3.808.681-.404 1.541-.643 2.442-.718l-5.804-3.286 13.136-7.784c1.684-.998 4.427-1.034 6.123-.074l13.23 7.49-5.765 3.417c-.149-.688-.804-1.329-1.95-1.735-1.29-.47-2.987-.465-4.296-.007a4.989 4.989 0 0 0-.893.408c-1.626.964-1.616 2.501.03 3.433.686.388 1.548.607 2.45.662L31.98 42.98Zm3.156 17.015c-1.684.998-4.428 1.024-6.124.065L15.79 52.574l5.766-3.416c.133.688.805 1.328 1.942 1.74 4.164 1.487 8.708-1.835 5.16-3.844-.687-.388-1.557-.602-2.443-.657l5.767-3.417 5.796 3.281c.113-.522.5-1.028 1.187-1.435 1.44-.853 3.585-.948 5.111-.436 2.435.84 2.711 2.706.842 3.813-.681.404-1.549.637-2.442.717l5.805 3.286-13.144 7.789Z"
        fill="#fff" stroke="#101828" stroke-linejoin="round" />
    <path
        d="m61.395 40.87-13.223-7.485-5.766 3.417c-.124-.516-.512-1.015-1.207-1.408-1.642-.93-4.305-.9-5.939.07a3.52 3.52 0 0 0-.64.48c-.808.779-.77 1.784.063 2.534.744.664 1.873 1.015 3.056 1.09L31.98 42.98l5.804 3.285c.11-.523.5-1.026 1.175-1.425 1.892-1.122 5.16-.991 6.625.433.87.85.778 2.066-.684 2.935-.675.4-1.53.639-2.426.712l5.805 3.286 13.136-7.784c1.684-.998 1.675-2.592-.02-3.552Zm-38.641 9.69c-.694-.392-1.091-.886-1.2-1.403l-5.765 3.417-13.231-7.49c-1.696-.96-1.705-2.544-.02-3.542l13.143-7.789 5.804 3.286c-.905.07-1.759.313-2.437.714-.219.13-.42.276-.597.44-.817.754-.851 1.738-.075 2.494 1.457 1.419 4.733 1.554 6.617.437.682-.404 1.065-.911 1.183-1.43l5.804 3.285-5.758 3.413c1.175.07 2.312.426 3.048 1.093.841.746.863 1.752.063 2.526-1.492 1.442-4.723 1.6-6.579.55Z"
        fill="#fff" stroke="#101828" stroke-linejoin="round" />
    <path
        d="m34.252 38.672-.159.744c-.096.26-.37.498-.785.665-.757.306-1.859.306-2.62 0-.422-.17-.7-.41-.799-.676l-.154-.745 4.517.012Z"
        fill="#101828" stroke="#101828" />
    <path
        d="m36.383 32.146-.003 4.412c-.002.646-.427 1.29-1.275 1.783-1.706.992-4.482.993-6.2 0-.865-.498-1.297-1.154-1.295-1.808l.003-4.412c-.001.654.43 1.31 1.295 1.809 1.718.992 4.494.991 6.2 0 .849-.494 1.273-1.138 1.275-1.784Z"
        fill="#101828" stroke="#101828" />
    <path
        d="M32.034 32.122c7.854 0 14.221-6.367 14.221-14.221S39.888 3.68 32.035 3.68c-7.855-.001-14.221 6.366-14.221 14.22 0 7.854 6.366 14.22 14.22 14.22Z"
        fill="#FF5A22" />
    <path
        d="M43.287 18.863c-.366-5.588-4.881-10.12-10.47-10.514-6.616-.474-12.132 4.756-12.132 11.283 0 3.88 1.95 7.305 4.926 9.334.966.662 1.574 1.735 1.574 2.906 0 .715.474 1.44 1.422 1.985 1.886 1.09 4.935 1.09 6.803 0 .948-.546 1.413-1.27 1.404-1.985a3.47 3.47 0 0 1 1.52-2.87 11.298 11.298 0 0 0 4.953-10.14Z"
        fill="#FF5A22" />
</svg>