<svg width="81" height="80" viewBox="0 0 81 80" fill="none" xmlns="http://www.w3.org/2000/svg">
  <path
    d="M13.902 60.094a2.454 2.454 0 0 1-1.204-.295.832.832 0 0 1 0-1.555 2.612 2.612 0 0 1 2.394 0 .939.939 0 0 1 .544.78.924.924 0 0 1-.538.775 2.393 2.393 0 0 1-1.196.295Zm-.02-1.837a2.119 2.119 0 0 0-1.04.25.641.641 0 0 0-.384.511.64.64 0 0 0 .39.519 2.33 2.33 0 0 0 2.094 0 .64.64 0 0 0 .387-.512.64.64 0 0 0-.394-.522 2.134 2.134 0 0 0-1.053-.246Z"
    fill="#101828" />
  <path
    d="m15.057 58.17 9.697-5.592.15.26-9.697 5.592-.15-.26Zm13.526 3.997a2.451 2.451 0 0 1-1.203-.29.96.96 0 0 1-.544-.785.922.922 0 0 1 .544-.771 2.602 2.602 0 0 1 2.394 0 .938.938 0 0 1 .544.78.925.925 0 0 1-.538.775c-.367.198-.78.299-1.197.291Zm-.019-1.833a2.154 2.154 0 0 0-1.04.246.538.538 0 0 0 0 1.034 2.317 2.317 0 0 0 2.093 0 .64.64 0 0 0 .384-.512.64.64 0 0 0-.381-.519 2.17 2.17 0 0 0-1.056-.25Z"
    fill="#101828" />
  <path
    d="m29.735 60.255 5.944-3.426.15.26-5.944 3.427-.15-.261Zm-14.029 4.274a2.445 2.445 0 0 1-1.203-.291.931.931 0 0 1-.544-.781.919.919 0 0 1 .535-.775 2.602 2.602 0 0 1 2.393 0 .931.931 0 0 1 .544.781.918.918 0 0 1-.534.775 2.436 2.436 0 0 1-1.19.29Zm-.022-1.834a2.14 2.14 0 0 0-1.037.247.64.64 0 0 0-.387.515.64.64 0 0 0 .394.518 2.312 2.312 0 0 0 2.09 0 .64.64 0 0 0 .386-.512.659.659 0 0 0-.393-.521 2.168 2.168 0 0 0-1.053-.247Z"
    fill="#101828" />
  <path
    d="m16.859 62.608 16.866-9.725.15.26-16.866 9.726-.15-.26Zm47.059-5.794a2.429 2.429 0 0 1-1.19-.288.925.925 0 0 1-.538-.775.937.937 0 0 1 .544-.78 2.601 2.601 0 0 1 2.393 0 .922.922 0 0 1 .538.77.938.938 0 0 1-.544.785 2.45 2.45 0 0 1-1.203.288Zm-1.04-.55a2.308 2.308 0 0 0 2.092 0 .64.64 0 0 0 .39-.522.641.641 0 0 0-.383-.512 2.317 2.317 0 0 0-2.093 0 .64.64 0 0 0-.39.521.64.64 0 0 0 .384.512Z"
    fill="#101828" />
  <path
    d="m52.919 49.56.15-.26 9.694 5.597-.15.26-9.694-5.597Zm4.47 13.375a2.435 2.435 0 0 1-1.19-.288.829.829 0 0 1 0-1.555 2.605 2.605 0 0 1 2.39 0 .924.924 0 0 1 .538.775.938.938 0 0 1-.544.784 2.48 2.48 0 0 1-1.194.284Zm-1.04-.55a2.317 2.317 0 0 0 2.093 0 .658.658 0 0 0 .394-.522.64.64 0 0 0-.387-.512 2.31 2.31 0 0 0-2.09 0 .66.66 0 0 0-.394.522.64.64 0 0 0 .384.512Z"
    fill="#101828" />
  <path
    d="m46.842 55.944.15-.26 9.242 5.335-.15.26-9.242-5.335Zm19.668 7.92a2.437 2.437 0 0 1-1.19-.289.92.92 0 0 1-.535-.774.93.93 0 0 1 .544-.78 2.595 2.595 0 0 1 2.39 0 .918.918 0 0 1 .538.77.93.93 0 0 1-.544.784c-.37.198-.784.297-1.203.288Zm.022-1.834c-.367-.008-.73.08-1.053.252a.64.64 0 0 0-.393.519.64.64 0 0 0 .387.512 2.301 2.301 0 0 0 2.09 0 .64.64 0 0 0 .393-.519.64.64 0 0 0-.387-.515 2.14 2.14 0 0 0-1.037-.25Z"
    fill="#101828" />
  <path
    d="m48.346 52.478.15-.26 16.861 9.734-.15.26-16.86-9.734Zm-27.1-20.845a2.714 2.714 0 0 1-1.332-.32.928.928 0 0 1 0-1.74 2.921 2.921 0 0 1 2.679 0 .928.928 0 0 1 0 1.74 2.73 2.73 0 0 1-1.347.32Zm.022-2.055a2.39 2.39 0 0 0-1.178.282.732.732 0 0 0-.441.582.718.718 0 0 0 .432.573 2.591 2.591 0 0 0 2.342 0 .733.733 0 0 0 .439-.598.714.714 0 0 0-.432-.573 2.362 2.362 0 0 0-1.162-.266Z"
    fill="#101828" />
  <path
    d="m22.557 31.382.17-.294 10.849 6.264-.17.294-10.85-6.264Zm-9.043 6.75a2.736 2.736 0 0 1-1.334-.32.93.93 0 0 1 0-1.74 2.921 2.921 0 0 1 2.678 0 .932.932 0 0 1 0 1.74 2.708 2.708 0 0 1-1.344.32Zm-1.174-.618a2.576 2.576 0 0 0 2.34 0 .733.733 0 0 0 .44-.582.72.72 0 0 0-.431-.573 2.591 2.591 0 0 0-2.343 0 .733.733 0 0 0-.438.583.714.714 0 0 0 .432.572Z"
    fill="#101828" />
  <path
    d="m14.827 37.883.17-.293 9.054 5.227-.17.294-9.054-5.227Zm-.346-4.768c-.464.01-.923-.1-1.331-.32a1.027 1.027 0 0 1-.602-.864 1.052 1.052 0 0 1 .608-.877 2.931 2.931 0 0 1 2.678 0 1.037 1.037 0 0 1 .602.867 1.05 1.05 0 0 1-.608.874c-.414.22-.878.33-1.347.32Zm.022-2.052a2.4 2.4 0 0 0-1.177.282.732.732 0 0 0-.439.582.72.72 0 0 0 .432.573 2.586 2.586 0 0 0 2.34 0 .733.733 0 0 0 .441-.582.724.724 0 0 0-.432-.576 2.41 2.41 0 0 0-1.165-.285v.006Z"
    fill="#101828" />
  <path
    d="m15.796 32.867.17-.293 18.866 10.892-.17.294-18.866-10.893Zm45.149.196a2.682 2.682 0 0 1-1.312-.32 1.021 1.021 0 0 1-.595-.854 1.008 1.008 0 0 1 .585-.845 2.847 2.847 0 0 1 2.611 0 1.02 1.02 0 0 1 .592.851 1.008 1.008 0 0 1-.585.845c-.397.218-.843.33-1.296.323Zm-.023-2a2.316 2.316 0 0 0-1.132.27.7.7 0 0 0-.423.56.716.716 0 0 0 .429.569 2.535 2.535 0 0 0 2.282 0 .697.697 0 0 0 .419-.56.714.714 0 0 0-.426-.567 2.354 2.354 0 0 0-1.149-.278v.006Z"
    fill="#101828" />
  <path
    d="M48.922 38.64 59.5 32.542l.165.286-10.579 6.1-.164-.286Zm17.95 1.649a2.657 2.657 0 0 1-1.313-.32 1.021 1.021 0 0 1-.592-.851 1.008 1.008 0 0 1 .586-.845 2.847 2.847 0 0 1 2.611 0 1.024 1.024 0 0 1 .592.854 1.014 1.014 0 0 1-.586.845 2.673 2.673 0 0 1-1.299.317Zm-.02-2.003a2.338 2.338 0 0 0-1.136.272.585.585 0 0 0 0 1.126 2.516 2.516 0 0 0 2.282 0 .701.701 0 0 0 .419-.557.716.716 0 0 0-.429-.57 2.352 2.352 0 0 0-1.136-.271Z"
    fill="#101828" />
  <path
    d="m52.915 46.975 12.515-7.22.164.286-12.514 7.22-.165-.286ZM67.537 34.51a2.682 2.682 0 0 1-1.312-.32 1.02 1.02 0 0 1-.595-.855 1.008 1.008 0 0 1 .585-.845 2.847 2.847 0 0 1 2.611 0 1.02 1.02 0 0 1 .592.852 1.008 1.008 0 0 1-.585.845 2.619 2.619 0 0 1-1.296.323Zm-.023-2a2.316 2.316 0 0 0-1.132.269.7.7 0 0 0-.423.56.717.717 0 0 0 .429.57 2.535 2.535 0 0 0 2.282 0 .698.698 0 0 0 .419-.56.713.713 0 0 0-.429-.564 2.355 2.355 0 0 0-1.146-.275Z"
    fill="#101828" />
  <path d="m47.702 44.593 18.394-10.611.164.285L47.866 44.88l-.164-.286Z" fill="#101828" />
  <path
    d="M41.316 32.182c5.324.029 10.112 1.301 13.549 3.31 3.45 2.016 5.447 4.712 5.432 7.573-.016 2.86-2.043 5.534-5.514 7.513-3.458 1.971-8.26 3.192-13.584 3.163-5.323-.028-10.112-1.301-13.548-3.31-3.45-2.016-5.448-4.712-5.432-7.572.015-2.861 2.042-5.535 5.514-7.514 3.457-1.971 8.26-3.192 13.583-3.163Z"
    fill="#101828" stroke="#101828" />
  <path d="M22.21 40.254h38.08v2.175H22.21v-2.175Z" fill="#fff" stroke="#101828" />
  <path
    d="M41.313 29.257c5.323.029 10.112 1.302 13.548 3.31 3.45 2.017 5.448 4.712 5.432 7.573-.015 2.86-2.042 5.535-5.514 7.514-3.457 1.97-8.26 3.192-13.583 3.163-5.324-.029-10.112-1.302-13.549-3.31-3.45-2.017-5.447-4.712-5.432-7.573.016-2.86 2.043-5.534 5.514-7.513 3.458-1.972 8.26-3.193 13.584-3.164Z"
    fill="#101828" stroke="#101828" />
  <path
    d="M41.305 30.614c4.674.025 8.874 1.143 11.886 2.904 3.024 1.768 4.76 4.123 4.747 6.61-.013 2.485-1.775 4.822-4.819 6.557-3.03 1.728-7.242 2.8-11.916 2.775-4.673-.025-8.874-1.143-11.885-2.904-3.025-1.768-4.76-4.123-4.748-6.61.014-2.485 1.776-4.821 4.82-6.557 3.03-1.728 7.242-2.8 11.915-2.775Z"
    fill="#fff" stroke="#101828" />
  <mask id="a" fill="#fff">
    <path fill-rule="evenodd" clip-rule="evenodd"
      d="M56.535 24.164H26.1V37.65h.006c.03 4.824 6.8 8.761 15.168 8.807 8.404.045 15.237-3.85 15.264-8.702 0-.062 0-.125-.003-.187V24.164Z" />
  </mask>
  <path fill-rule="evenodd" clip-rule="evenodd"
    d="M56.535 24.164H26.1V37.65h.006c.03 4.824 6.8 8.761 15.168 8.807 8.404.045 15.237-3.85 15.264-8.702 0-.062 0-.125-.003-.187V24.164Z"
    fill="#fff" />
  <path
    d="M26.1 24.164v-1h-1v1h1Zm30.435 0h1v-1h-1v1ZM26.1 37.65h-1v1h1v-1Zm.006 0 1-.006-.006-.994h-.994v1Zm15.168 8.807-.005 1 .005-1Zm15.264-8.702 1 .006-1-.006Zm-.003-.187h-1v.031l1-.031ZM26.1 25.164h30.435v-2H26.1v2Zm1 12.485V24.164h-2V37.65h2Zm-.994-1H26.1v2h.006v-2Zm-1 1.006c.018 2.916 2.063 5.374 4.954 7.054 2.919 1.695 6.881 2.723 11.209 2.747l.01-2c-4.04-.022-7.648-.986-10.214-2.476-2.593-1.506-3.947-3.43-3.959-5.337l-2 .012Zm16.163 9.8c4.345.024 8.334-.969 11.274-2.645 2.913-1.661 4.979-4.116 4.995-7.05l-2-.011c-.01 1.917-1.375 3.835-3.986 5.323-2.584 1.474-6.214 2.406-10.272 2.384l-.011 2Zm16.269-9.695c0-.075 0-.15-.003-.224l-2 .062.003.15 2 .012Zm-2.003-13.596v13.403h2V24.164h-2Z"
    fill="#101828" mask="url(#a)" />
  <path
    d="M41.593 16.66c4.13.043 7.834 1.049 10.483 2.615 2.661 1.574 4.169 3.65 4.146 5.822-.023 2.171-1.573 4.216-4.267 5.734-2.68 1.51-6.405 2.439-10.535 2.396-4.13-.044-7.834-1.05-10.483-2.616-2.661-1.574-4.168-3.65-4.146-5.822.023-2.171 1.573-4.216 4.267-5.734 2.681-1.51 6.406-2.439 10.535-2.396Z"
    fill="#fff" stroke="#101828" />
  <path
    d="M52.565 25.059c.037-3.526-4.884-6.436-10.992-6.5-6.108-.064-11.089 2.742-11.126 6.268-.037 3.526 4.885 6.436 10.993 6.5 6.107.064 11.088-2.743 11.125-6.268Z"
    fill="#FF5A22" />
</svg>