<svg width="129" height="40" viewBox="0 0 129 40" fill="none" xmlns="http://www.w3.org/2000/svg">
    <path
        d="M125.788 8.137a2 2 0 1 0-3.021-2.622l3.021 2.622ZM76.684 35.281l-.353-1.969.353 1.969ZM3.51 19.489a2 2 0 1 0-1.518 3.701l1.518-3.7Zm121.241 8.26a2 2 0 0 0 4-.071l-4 .07Zm1.67-18.627 2-.036v-.002l-2 .038Zm-4.561-4.757-.205 1.99h.002l.203-1.99ZM102.408.35a2 2 0 0 0-.41 3.98l.41-3.98Zm21.87 6.476c-1.511-1.31-1.51-1.31-1.51-1.311l-.002.001-.008.01-.039.044-.164.185c-.149.164-.373.41-.67.728a84.139 84.139 0 0 1-2.627 2.675 108.832 108.832 0 0 1-9.821 8.484c-8.382 6.41-19.985 13.318-33.106 15.67l.706 3.937c14-2.51 26.195-9.828 34.829-16.43a112.793 112.793 0 0 0 10.187-8.8 88.564 88.564 0 0 0 2.752-2.803 53.863 53.863 0 0 0 .963-1.055l.014-.016.004-.005.002-.002-1.51-1.312ZM76.331 33.312c-20.83 3.734-37.917.736-50.313-3.399a103.004 103.004 0 0 1-14.982-6.37 155.225 155.225 0 0 1-4.66-2.54c-1.163-.654-2.194-1.238-2.866-1.514L1.992 23.19c.381.156 1.125.57 2.425 1.3 1.233.693 2.836 1.594 4.774 2.601 3.88 2.017 9.11 4.465 15.561 6.617 12.91 4.306 30.681 7.414 52.285 3.541l-.706-3.937Zm52.42-5.634-.33-18.592-3.999.071.329 18.592 4-.071Zm-.33-18.594c-.066-3.534-2.859-6.352-6.358-6.709l-.406 3.98c1.63.166 2.739 1.433 2.765 2.804l3.999-.075Zm-6.356-6.709L102.408.35l-.41 3.98 19.657 2.024.41-3.979Z"
        fill="#039855" />
</svg>