<svg xmlns="http://www.w3.org/2000/svg" viewBox="0 0 1125 250">
    <defs>
        <style>
            .cls-1 {
                fill: #042d66;
            }

            .cls-2 {
                fill: #ff5a22;
            }
        </style>
    </defs>
    <g id="Layer_2" data-name="Layer 2">
        <g id="Layer_1-2" data-name="Layer 1">
            <g id="BestPOS_full_logo_white" data-name="BestPOS_full logo_white">
                <path class="cls-1"
                    d="M195.12,160.16A25,25,0,0,1,175,200H0v50H175a75,75,0,0,0,63.53-114.89A87.49,87.49,0,0,1,195.12,160.16Z" />
                <path class="cls-2" d="M50,150H175A75,75,0,0,0,175,0H0V187.5H50ZM50,50H175a25,25,0,0,1,0,50H50Z" />
                <path class="cls-1"
                    d="M300.38,199.69V51.49h32v148.2Zm28-67.4v-19.6h28.8q9.4,0,13.6-4.8t4.2-12.8q0-8.4-4.2-13.2t-13.6-4.8h-28.8V51.49h26.8q25.2,0,38.7,10.6t13.5,30.2v3q0,13.6-6.9,21.8t-18.6,11.7a93.34,93.34,0,0,1-26.7,3.5Zm0,67.4v-25.6h34.2q9.19,0,13.8-4.8t4.6-13.6q0-8.81-4.6-13.5t-13.8-4.7h-34.2v-19.8H361a90.17,90.17,0,0,1,27,3.7q11.81,3.7,18.6,11.9t6.8,22.2v2.8q0,13-6,22.3t-17.6,14.2q-11.59,4.91-28.8,4.9Z" />
                <path class="cls-1"
                    d="M477.51,202.49q-14,0-24.7-4.8a51,51,0,0,1-17.8-12.9,57.06,57.06,0,0,1-10.8-18.2,59.63,59.63,0,0,1-3.7-20.7v-4a60.78,60.78,0,0,1,3.7-21.1,56.85,56.85,0,0,1,10.7-18.1A50,50,0,0,1,452.41,90a58,58,0,0,1,23.9-4.7q17.6,0,29.7,7.9a52.47,52.47,0,0,1,18.5,20.6,60.77,60.77,0,0,1,6.4,27.7v10.8h-97v-18.2h77.6l-10.4,8.4a45.37,45.37,0,0,0-2.8-16.8A22.62,22.62,0,0,0,490,115q-5.5-3.7-13.7-3.7a25.37,25.37,0,0,0-14.2,3.8,23.43,23.43,0,0,0-8.8,11.1q-3,7.31-3,17.9a47.59,47.59,0,0,0,2.8,17.1,23.05,23.05,0,0,0,8.8,11.3q6,4,15.6,4,8.79,0,14.4-3.4a17.64,17.64,0,0,0,7.6-8.4h29.4a46.29,46.29,0,0,1-9.4,19.6,47.77,47.77,0,0,1-17.6,13.4A58.6,58.6,0,0,1,477.51,202.49Z" />
                <path class="cls-1"
                    d="M585,202.09q-23.4,0-36.6-9.6t-14-27h28.4q.79,5.2,6.3,9.3t16.5,4.1q8.4,0,13.9-2.9t5.5-8.3a8.94,8.94,0,0,0-4.2-7.7q-4.2-2.9-15-4.1l-8.6-.8q-19.8-2-29.7-11t-9.9-23q0-11.59,5.8-19.4a35.5,35.5,0,0,1,16.1-11.8,64.5,64.5,0,0,1,23.5-4q21.19,0,34.2,9.3t13.6,26.9h-28.4a13.8,13.8,0,0,0-5.6-9.1q-4.8-3.7-14.2-3.7-7.39,0-11.8,2.8a8.62,8.62,0,0,0-4.4,7.6,7.78,7.78,0,0,0,3.8,7q3.79,2.4,12.4,3.4l8.6.8q20.21,2.21,31.4,11.2t11.2,24.2a31.21,31.21,0,0,1-6,19.1q-6,8.1-17,12.4T585,202.09Z" />
                <path class="cls-1"
                    d="M642.86,112.49V89.09h61.8v23.4Zm46.4,87.6q-16.6,0-26.8-4.1a27.23,27.23,0,0,1-14.9-13.8q-4.71-9.7-4.7-26.3V59.49h29.8v97.6q0,7.8,4.1,11.9t11.7,4.1h16.2v27Z" />
                <path class="cls-1"
                    d="M725.88,199.69V51.49h32.8v148.2Zm28.8-42.8v-28.4h26.2a27,27,0,0,0,13.1-3,20.9,20.9,0,0,0,8.5-8.5,26.11,26.11,0,0,0,3-12.7,27,27,0,0,0-3-13.1,20.25,20.25,0,0,0-8.5-8.4,27.8,27.8,0,0,0-13.1-2.9h-26.2V51.49h24.6q18.6,0,31.9,6.2a46.47,46.47,0,0,1,20.4,17.6q7.09,11.4,7.1,27.4v3.2q0,15.6-7.1,27.1a46.23,46.23,0,0,1-20.4,17.7q-13.3,6.19-31.9,6.2Z" />
                <path class="cls-1"
                    d="M920.6,202.49q-19.8,0-34.5-6.9a70.88,70.88,0,0,1-24.3-18.2,78.06,78.06,0,0,1-14.3-24.5,75.71,75.71,0,0,1-4.7-25.4v-4.4a77.21,77.21,0,0,1,4.9-26.9,73.4,73.4,0,0,1,14.7-24.1,71.88,71.88,0,0,1,24.4-17.3q14.6-6.49,33.8-6.5t33.8,6.5a71.88,71.88,0,0,1,24.4,17.3,74.72,74.72,0,0,1,14.8,24.1,76,76,0,0,1,5,26.9v4.4a74.22,74.22,0,0,1-4.8,25.4,79.75,79.75,0,0,1-14.4,24.5,70.88,70.88,0,0,1-24.3,18.2Q940.4,202.49,920.6,202.49Zm0-30.6a46.55,46.55,0,0,0,18.7-3.6,41.49,41.49,0,0,0,14.2-10,42.93,42.93,0,0,0,8.9-14.8,53.12,53.12,0,0,0,3-18,54.15,54.15,0,0,0-3.1-18.7,42.94,42.94,0,0,0-9-14.8,40.1,40.1,0,0,0-14.1-9.7,52.58,52.58,0,0,0-37.2,0A40.1,40.1,0,0,0,887.9,92a41.67,41.67,0,0,0-8.9,14.8,55.86,55.86,0,0,0-3,18.7,53.12,53.12,0,0,0,3,18,42.93,42.93,0,0,0,8.9,14.8,41.67,41.67,0,0,0,14.1,10A45.85,45.85,0,0,0,920.6,171.89Z" />
                <path class="cls-1"
                    d="M1064.53,202.49q-19.8,0-33.4-6.3t-20.6-17.2a45.4,45.4,0,0,1-7-25.1h31.8a18.79,18.79,0,0,0,3.1,10.4,21.34,21.34,0,0,0,9.5,7.7q6.39,2.89,16.6,2.9a43,43,0,0,0,15.4-2.4,20.64,20.64,0,0,0,9.4-6.7,16.18,16.18,0,0,0,3.2-9.9,12.78,12.78,0,0,0-6-11.1q-6-4.09-19.4-5.3l-11-1q-21.81-1.8-34.8-13.6t-13-31.2q0-14,6.7-24.2a43.38,43.38,0,0,1,18.7-15.7q12-5.51,28.4-5.5,17.19,0,29.5,5.9a43.84,43.84,0,0,1,18.9,16.6q6.6,10.69,6.6,25.1h-32a19,19,0,0,0-10.3-17.2,26.1,26.1,0,0,0-12.7-2.8,27.35,27.35,0,0,0-12.1,2.4,16.64,16.64,0,0,0-7.3,6.5,17.3,17.3,0,0,0-2.4,8.9,15.1,15.1,0,0,0,4.4,10.8q4.39,4.61,14.4,5.4l11.2,1a86.6,86.6,0,0,1,28.2,6.9,46.77,46.77,0,0,1,19.1,15q6.9,9.5,6.9,23.1a41.9,41.9,0,0,1-7.3,24.5q-7.31,10.5-20.7,16.3T1064.53,202.49Z" />
                <path class="cls-1" d="M991.48,248.89V238.38h10.32v10.51Z" />
                <path class="cls-1"
                    d="M1019.81,250a17.58,17.58,0,0,1-7.24-1.38,14.67,14.67,0,0,1-5.13-3.72,15.68,15.68,0,0,1-3.06-5.31,19.24,19.24,0,0,1-1-6.13v-1.12a19,19,0,0,1,1.05-6.3,16.16,16.16,0,0,1,3.11-5.37,14.29,14.29,0,0,1,5.14-3.7,17.45,17.45,0,0,1,7.07-1.35,17,17,0,0,1,7.68,1.67,13.46,13.46,0,0,1,7.57,11.53h-9.21a6,6,0,0,0-1.73-3.66,5.84,5.84,0,0,0-4.31-1.5,6.33,6.33,0,0,0-3.91,1.17,7,7,0,0,0-2.31,3.23,13.94,13.94,0,0,0-.77,4.87,14.47,14.47,0,0,0,.71,4.66,6.4,6.4,0,0,0,2.26,3.23,6.7,6.7,0,0,0,4.07,1.14,7,7,0,0,0,3.2-.67,5.41,5.41,0,0,0,2.11-1.88,6.24,6.24,0,0,0,1-2.79h9.15a13.16,13.16,0,0,1-2.23,7,13.84,13.84,0,0,1-5.45,4.7A17.41,17.41,0,0,1,1019.81,250Z" />
                <path class="cls-1"
                    d="M1054,250a20,20,0,0,1-7.51-1.32,16.12,16.12,0,0,1-5.55-3.61,15.5,15.5,0,0,1-3.43-5.25,16.85,16.85,0,0,1-1.17-6.25v-1.35a17.08,17.08,0,0,1,1.2-6.36,15.5,15.5,0,0,1,3.52-5.31,16.73,16.73,0,0,1,5.6-3.61,21.29,21.29,0,0,1,14.76,0,16.37,16.37,0,0,1,5.54,3.61,16,16,0,0,1,3.52,5.31,16.71,16.71,0,0,1,1.23,6.36v1.35a16.85,16.85,0,0,1-1.17,6.25,15.5,15.5,0,0,1-3.43,5.25,16.12,16.12,0,0,1-5.55,3.61A20.16,20.16,0,0,1,1054,250Zm0-7.92a8.29,8.29,0,0,0,4.57-1.17,7.59,7.59,0,0,0,2.79-3.29,12,12,0,0,0,0-9.53,8.15,8.15,0,0,0-2.85-3.32,8.07,8.07,0,0,0-11.79,3.32,12.37,12.37,0,0,0,0,9.53,7.27,7.27,0,0,0,2.82,3.29A8.38,8.38,0,0,0,1054,242.08Z" />
                <path class="cls-1"
                    d="M1075.31,248.89V216.74h7.45v13.84h-.53a23.38,23.38,0,0,1,1.24-8.21,10,10,0,0,1,3.69-5,10.54,10.54,0,0,1,6-1.67h.41a10.54,10.54,0,0,1,6.08,1.67,10.29,10.29,0,0,1,3.69,5,23.12,23.12,0,0,1,1.26,8.21h-2.28a23.12,23.12,0,0,1,1.26-8.21,10.22,10.22,0,0,1,3.72-5,10.54,10.54,0,0,1,6-1.67h.41a10.83,10.83,0,0,1,6.14,1.67,10.31,10.31,0,0,1,3.78,5,22.63,22.63,0,0,1,1.29,8.21v18.31h-9.39V230.05a6.43,6.43,0,0,0-1.38-4.28,4.81,4.81,0,0,0-3.9-1.64,5.06,5.06,0,0,0-4,1.67,6.52,6.52,0,0,0-1.46,4.43v18.66h-9.45V230.05a6.43,6.43,0,0,0-1.38-4.28,4.76,4.76,0,0,0-3.84-1.64,5.13,5.13,0,0,0-4,1.67,6.52,6.52,0,0,0-1.46,4.43v18.66Z" />
            </g>
        </g>
    </g>
</svg>