<svg width="19" height="17" viewBox="0 0 19 17" fill="none" xmlns="http://www.w3.org/2000/svg">
    <path
        d="M7.333 16.5c-.458 0-.85-.163-1.177-.49a1.605 1.605 0 0 1-.49-1.176v-8.48c0-.222.046-.433.136-.635.09-.201.212-.378.365-.531l4.52-4.5c.209-.195.455-.313.74-.354.285-.042.56.007.823.146.264.138.455.333.573.583a1.1 1.1 0 0 1 .073.77l-.938 3.834H16.5c.445 0 .833.167 1.167.5.333.333.5.722.5 1.167V9a1.703 1.703 0 0 1-.125.625l-2.5 5.875a1.683 1.683 0 0 1-.625.709A1.628 1.628 0 0 1 14 16.5H7.333Zm-5 0c-.458 0-.85-.163-1.177-.49a1.605 1.605 0 0 1-.49-1.176v-7.5c0-.459.164-.85.49-1.177.327-.327.72-.49 1.177-.49.459 0 .851.163 1.177.49.327.326.49.718.49 1.177v7.5c0 .458-.163.85-.49 1.177-.326.326-.718.49-1.177.49Z"
        fill="#fff" />
</svg>