<svg width="19" height="18" viewBox="0 0 19 18" fill="none" xmlns="http://www.w3.org/2000/svg"><path d="M9.5 17.4c-.317 0-.625-.075-.925-.225-.3-.15-.55-.375-.75-.675L.625 5.675a2.177 2.177 0 0 1-.338-1.587C.38 3.513.65 3.075 1.1 2.775A17.361 17.361 0 0 1 5.1.75C6.517.25 7.983 0 9.5 0c1.517 0 2.983.246 4.4.738a16.47 16.47 0 0 1 4 2.037c.433.3.7.738.8 1.313a2.13 2.13 0 0 1-.325 1.587l-7.2 10.825c-.2.3-.45.525-.75.675-.3.15-.608.225-.925.225Zm0-2 7.3-10.95a14.915 14.915 0 0 0-3.475-1.788A11.262 11.262 0 0 0 9.5 2c-1.317 0-2.588.22-3.813.663A15.509 15.509 0 0 0 2.2 4.45L9.5 15.4ZM7 7c.417 0 .77-.146 1.062-.438.292-.291.438-.645.438-1.062 0-.417-.146-.77-.438-1.063A1.447 1.447 0 0 0 7 4c-.417 0-.77.146-1.063.438A1.447 1.447 0 0 0 5.5 5.5c0 .417.146.77.437 1.063C6.23 6.854 6.583 7 7 7Zm2.5 5c.417 0 .77-.146 1.063-.438.291-.291.437-.645.437-1.062 0-.417-.146-.77-.438-1.063A1.447 1.447 0 0 0 9.5 9c-.417 0-.77.146-1.063.438A1.446 1.446 0 0 0 8 10.5c0 .417.146.77.437 1.063A1.45 1.45 0 0 0 9.5 12Z" fill="currentColor"/></svg>