<svg viewBox="0 0 64 64" fill="none" xmlns="http://www.w3.org/2000/svg">
  <g clip-path="url(#a)">
    <path
      d="m62.843 54.693.494-.075-.494.075c.159 1.046.056 3.028-.515 5.245-.569 2.21-1.588 4.594-3.213 6.471l-.006.008-.006.008a13.05 13.05 0 0 1-4.527 3.611l-.006.003-.007.004c-3.995 2.072-9.265 3.122-14.563 3.122s-10.569-1.05-14.564-3.122l-.008-.005-.008-.004a12.625 12.625 0 0 1-4.744-3.89l-.008-.01-.009-.01a15.519 15.519 0 0 1-3.507-11.442c1.27-7.837 5.023-14.64 9.461-19.483 4.46-4.866 9.53-7.669 13.387-7.669 3.871 0 8.94 2.544 13.386 7.262 4.43 4.701 8.185 11.506 9.457 19.9Z"
      fill="#fff" stroke="#101828" />
    <path
      d="M53.727 51.868 57 49.922c-2.764-4.631-5.91-6.495-8.95-8.267a25.694 25.694 0 0 1-4.8-3.3 3.621 3.621 0 0 1-1.41-2.698 4.912 4.912 0 0 1 1.422-3.022l-2.602-2.767a8.63 8.63 0 0 0-2.66 5.79 7.267 7.267 0 0 0 2.648 5.418 28.468 28.468 0 0 0 5.447 3.844c2.914 1.633 5.377 3.069 7.632 6.948Z"
      fill="#FF5A22" />
    <path d="M54.405 40.868 55 37.15c-7.847-1.147-9.49-7.237-9.502-7.283L42 31.358c.093.322 2.052 7.915 12.405 9.51Z"
      fill="#FF5A22" />
    <path fill-rule="evenodd" clip-rule="evenodd"
      d="M46.432 28.918c.02-.121.03-.244.03-.37 0-2.06-2.893-3.73-6.462-3.73-3.529 0-6.398 1.633-6.461 3.662h-.001s-.05 1.4 0 2.394c.05.994.681 1.825 1.875 2.5a10.113 10.113 0 0 0 9.144 0c1.25-.725 1.875-1.681 1.875-2.638v-1.818Z"
      fill="#FF5A22" />
    <path
      d="M32.781 10.574c-3.75 2.162-3.75 5.669 0 7.831 3.75 2.163 9.819 2.163 13.569 0 3.75-2.162 3.75-6.306-.275-7.812-2.95-1.1-3.925-.475-3.638.312.238.669 1.663 1.406.726 1.875-2.057.925-7.294-3.987-10.382-2.206Z"
      fill="#101828" />
    <mask id="b" fill="#fff">
      <path fill-rule="evenodd" clip-rule="evenodd"
        d="M45.438 27.955S49 15.305 49 15.3c-.13.462-.813.98-1.221 1.29l-.11.085a9.375 9.375 0 0 1-4.613 1.806c-1.288.19-2.6.149-3.875-.119-.7-.168-1.437-.556-1.112-1.4a3.34 3.34 0 0 1 .158-.315c.2-.37.45-.834.223-1.147-.28-.379-.858-.367-1.443-.208a5.578 5.578 0 0 0-1.544.695c-.488.356-1.007.668-1.55.932l.001.006a3.69 3.69 0 0 1-1.614.312c-1.46-.039-2.089-1.56-2.205-1.879l-.02-.058.02.058 4.355 12.598h.113c0 1.105.99 2.077 2.487 2.636v.002c.395.152.803.267 1.219.343v-.006a9.124 9.124 0 0 0 1.731.163c3.003 0 5.438-1.405 5.438-3.138Z" />
    </mask>
    <path fill-rule="evenodd" clip-rule="evenodd"
      d="M45.438 27.955S49 15.305 49 15.3c-.13.462-.813.98-1.221 1.29l-.11.085a9.375 9.375 0 0 1-4.613 1.806c-1.288.19-2.6.149-3.875-.119-.7-.168-1.437-.556-1.112-1.4a3.34 3.34 0 0 1 .158-.315c.2-.37.45-.834.223-1.147-.28-.379-.858-.367-1.443-.208a5.578 5.578 0 0 0-1.544.695c-.488.356-1.007.668-1.55.932l.001.006a3.69 3.69 0 0 1-1.614.312c-1.46-.039-2.089-1.56-2.205-1.879l-.02-.058.02.058 4.355 12.598h.113c0 1.105.99 2.077 2.487 2.636v.002c.395.152.803.267 1.219.343v-.006a9.124 9.124 0 0 0 1.731.163c3.003 0 5.438-1.405 5.438-3.138Z"
      fill="#fff" />
    <path
      d="M49 15.299h1a1 1 0 0 0-1.962-.273l.962.273Zm-3.562 12.656v1a1 1 0 0 0 .962-.729l-.962-.27Zm2.34-11.365-.605-.796.606.796Zm-.11.084.599.802.012-.01-.61-.792Zm-4.612 1.806-.105-.994a1.034 1.034 0 0 0-.04.005l.145.99Zm-3.875-.119-.234.973a1 1 0 0 0 .029.006l.205-.979Zm-1.112-1.4-.929-.371-.004.012.933.36Zm.158-.315.88.475-.88-.475Zm.223-1.147.809-.588-.006-.008-.803.596Zm-1.443-.208.255.967.007-.002-.261-.965Zm-1.544.695-.567-.823a.814.814 0 0 0-.022.015l.589.808Zm-1.55.932-.437-.9a1 1 0 0 0-.538 1.123l.975-.223Zm.001.006.396.918a1 1 0 0 0 .579-1.142l-.975.224Zm-1.614.312.029-1h-.002l-.027 1ZM30.075 15.3l.945-.327a1 1 0 0 0-1.899.626l.954-.3Zm4.375 12.656-.945.327a1 1 0 0 0 .945.673v-1Zm.113 0h1a1 1 0 0 0-1-1v1Zm2.487 2.636.975-.224a1 1 0 0 0-.625-.713l-.35.937Zm0 .002-.974.223a1 1 0 0 0 .614.71l.36-.933Zm1.219.343-.18.984a1 1 0 0 0 1.18-1.005l-1 .021Zm0-.006.19-.982a1 1 0 0 0-1.19 1.003l1-.02Zm7.169-2.975v-1a1 1 0 0 0-1 1h1ZM48 15.3a2.06 2.06 0 0 1 .035-.26v-.001l-.001.003-.007.025-.03.106-.113.402-.403 1.434a25959.528 25959.528 0 0 1-2.45 8.7l-.403 1.433-.113.401-.03.106-.007.027-.002.007v.001l.962.272.962.271v-.002l.003-.007.008-.027.03-.106.112-.401.404-1.433c.334-1.186.78-2.768 1.224-4.35l1.225-4.35.404-1.435.113-.403.03-.107.008-.03.003-.01.003-.01.003-.013c.003-.012.024-.133.03-.243h-2Zm.384 2.087c.199-.151.515-.39.799-.66.25-.238.634-.643.78-1.154l-1.925-.546c.013-.046.022-.039-.027.026a1.894 1.894 0 0 1-.207.224 7.6 7.6 0 0 1-.63.518l1.21 1.592Zm-.105.08.105-.08-1.21-1.592-.115.088 1.22 1.584Zm-5.117 2.008a10.375 10.375 0 0 0 5.105-1.998l-1.196-1.604a8.375 8.375 0 0 1-4.12 1.614l.211 1.988Zm-4.186-.134c1.39.292 2.82.336 4.226.13l-.29-1.98a10.058 10.058 0 0 1-3.525-.107l-.411 1.957Zm-1.84-2.738c-.137.356-.19.739-.106 1.123.084.385.286.687.516.909.426.412 1 .603 1.401.7l.469-1.945a1.954 1.954 0 0 1-.338-.11.545.545 0 0 1-.142-.084c-.002-.001.033.035.048.104.015.07-.007.088.018.022l-1.866-.72Zm.211-.432c-.053.1-.144.264-.206.42l1.856.743c.01-.025.036-.076.11-.212l-1.76-.951Zm.294-.083a.524.524 0 0 1-.1-.272c-.003-.057.008-.079-.001-.046a1.1 1.1 0 0 1-.064.154 5.83 5.83 0 0 1-.129.247l1.76.951c.088-.163.257-.466.351-.787.094-.319.185-.895-.2-1.423l-1.617 1.176Zm-.372.17c.11-.03.21-.05.295-.061a.869.869 0 0 1 .182-.007c.037.003.034.008.007-.004a.303.303 0 0 1-.106-.09l1.606-1.192c-.36-.487-.88-.663-1.314-.705-.42-.04-.842.033-1.193.128l.523 1.93Zm-1.24.553a4.61 4.61 0 0 1 1.233-.552l-.51-1.934a6.562 6.562 0 0 0-1.856.839l1.134 1.647Zm-1.68 1.007c.597-.29 1.167-.632 1.703-1.023l-1.178-1.616c-.44.321-.908.602-1.398.84l.874 1.8Zm.54-1.117-.002-.006-1.949.447.002.007 1.949-.448Zm-2.618 1.536a4.688 4.688 0 0 0 2.04-.394l-.793-1.836a2.69 2.69 0 0 1-1.189.23l-.058 2ZM29.156 15.7c.076.21.31.792.77 1.343.467.56 1.235 1.164 2.347 1.194l.054-2c-.347-.009-.623-.185-.865-.474a2.679 2.679 0 0 1-.427-.747l-1.88.684Zm-.026-.073.02.058 1.89-.653-.02-.059-1.89.654Zm1.905-.61a.76.76 0 0 1-.007-.021v-.001a.055.055 0 0 0 0 .004h.001V15l-.954.3-.954.3v.002l.002.003.002.008a1.068 1.068 0 0 0 .03.087l1.88-.684Zm4.36 12.612L31.04 15.03l-1.89.654 4.355 12.598 1.89-.654Zm-.832-.673h-.113v2h.113v-2Zm1 1h-2 2Zm1.837 1.7c-1.377-.515-1.837-1.241-1.837-1.7h-2c0 1.752 1.52 2.97 3.137 3.573l.7-1.874Zm.625.714v-.002l-1.95.448v.001l1.95-.447Zm.424-.416a5.75 5.75 0 0 1-1.038-.293l-.721 1.865c.453.175.921.308 1.399.395l.36-1.967Zm-1.18.998v.007l2-.043v-.006l-2 .043ZM40 30.093a8.13 8.13 0 0 1-1.541-.145l-.38 1.964c.608.118 1.254.18 1.921.18v-2Zm4.438-2.138c0 .358-.26.872-1.093 1.353-.806.465-1.987.785-3.345.785v2c1.645 0 3.183-.383 4.345-1.053 1.135-.655 2.093-1.71 2.093-3.085h-2Zm0 0h2-2Zm1-1v2-2Z"
      fill="#101828" mask="url(#b)" />
    <path
      d="m25.344 61.674.4-1.913-.119-.068a9.893 9.893 0 0 1-4.162-5.763l-.082-.362 2.244.28.081.276c.47 1.719 2.082 3.312 3.382 4.062 2.125 1.25 3.625 1.107 3.925-.33.243-1.176-.72-2.5-3.038-4.182-2.85-2.038-5.156-3.981-4.494-7.163.663-3.18 4.15-1.956 5.2-1.493l.1.05.363-1.75 2.219 1.287-.344 1.763.094.068a8.262 8.262 0 0 1 3.262 4.444l.1.369-2.069-.175-.1-.238a7.325 7.325 0 0 0-2.93-3.175c-2.013-1.168-3.32-1.1-3.588.182-.288 1.387 1.056 2.5 2.837 3.75 2.931 2.13 5.5 4.325 4.806 7.637-.568 2.75-3.125 2.856-5.35 1.744l-.106-.056-.419 2.012-2.212-1.256Z"
      fill="#101828" />
  </g>
  <defs>
    <clipPath id="a">
      <path fill="#fff" d="M0 0h64v64H0z" />
    </clipPath>
  </defs>
</svg>