<svg width="20" height="14" viewBox="0 0 20 14" fill="none" xmlns="http://www.w3.org/2000/svg">
    <path
        d="M12.3 13.3a.948.948 0 0 1-.275-.7c0-.284.092-.517.275-.7L16.2 8H1a.965.965 0 0 1-.712-.288A.965.965 0 0 1 0 7c0-.284.096-.521.288-.713A.967.967 0 0 1 1 6h15.2l-3.9-3.9a.948.948 0 0 1-.275-.7c0-.284.092-.517.275-.7a.948.948 0 0 1 .7-.275c.283 0 .517.091.7.275l5.6 5.6c.1.1.171.208.213.325.041.116.062.241.062.375 0 .133-.02.258-.062.375a.883.883 0 0 1-.213.325l-5.6 5.6a.948.948 0 0 1-.7.275.948.948 0 0 1-.7-.275Z"
        fill="currentColor" />
</svg>