<svg width="20" height="20" viewBox="0 0 20 20" fill="none" xmlns="http://www.w3.org/2000/svg">
    <mask id="a" style="mask-type:alpha" maskUnits="userSpaceOnUse" x="0" y="0" width="20" height="20">
        <path fill="#D9D9D9" d="M0 0h20v20H0z" />
    </mask>
    <g mask="url(#a)">
        <path
            d="M3.146 16.875a.792.792 0 0 1-.271-.604.86.86 0 0 1 .27-.625l7.876-7.875c-.236-.583-.268-1.24-.094-1.969.174-.729.573-1.385 1.198-1.969.75-.75 1.576-1.184 2.48-1.302.902-.118 1.638.108 2.207.677.57.57.796 1.306.677 2.209-.118.903-.552 1.729-1.302 2.479-.583.625-1.243 1.024-1.979 1.198-.736.174-1.396.142-1.979-.094l-.958 1 5.666 5.667c.167.167.25.368.25.604a.823.823 0 0 1-.25.604.859.859 0 0 1-.625.271.793.793 0 0 1-.604-.27l-5.666-5.647-5.688 5.667a.823.823 0 0 1-.604.25.792.792 0 0 1-.604-.27Zm3.041-6.458-2.52-2.521c-.625-.625-.993-1.35-1.105-2.177A3.65 3.65 0 0 1 3 3.396a.807.807 0 0 1 .677-.427c.299-.021.566.087.802.323l4.417 4.416-2.709 2.709Z"
            fill="#475467" />
    </g>
</svg>