<svg width="48" height="48" viewBox="0 0 48 48" fill="none" xmlns="http://www.w3.org/2000/svg">
<g clip-path="url(#clip0_4180_15433)">
<path fill-rule="evenodd" clip-rule="evenodd" d="M15.2845 0.52123C15.6131 0.348344 16.0105 0.371825 16.3165 0.58221L20.1952 3.24881L23.3636 0.634879C23.7331 0.330043 24.2669 0.330043 24.6364 0.634879L27.8048 3.24881L31.6835 0.58221C31.9895 0.371825 32.3869 0.348344 32.7155 0.52123C33.0442 0.694116 33.25 1.03489 33.25 1.40625V3.25735C33.25 5.80486 32.3854 8.26327 30.8186 10.2402C31.8363 10.9653 32.5 12.1552 32.5 13.5C32.5 15.0313 31.6395 16.3616 30.3757 17.0338L37.8528 24.9782C40.1954 27.4674 41.5 30.7567 41.5 34.175C41.5 41.586 35.4923 47.5938 28.0812 47.5938H19.9187C12.5077 47.5938 6.5 41.586 6.5 34.175C6.5 30.7567 7.80453 27.4674 10.1472 24.9782L17.6243 17.0338C16.3605 16.3616 15.5 15.0313 15.5 13.5C15.5 12.1552 16.1637 10.9653 17.1814 10.2402C15.6146 8.26327 14.75 5.80486 14.75 3.25735V1.40625C14.75 1.03489 14.9558 0.694116 15.2845 0.52123ZM19.5 15.5H28.5C29.6046 15.5 30.5 14.6046 30.5 13.5C30.5 12.3964 29.6061 11.5015 28.5028 11.5H19.4972C18.3939 11.5015 17.5 12.3964 17.5 13.5C17.5 14.6046 18.3954 15.5 19.5 15.5ZM19.9321 17.5L11.6036 26.3489C9.6101 28.4671 8.5 31.2662 8.5 34.175C8.5 40.4814 13.6123 45.5938 19.9187 45.5938H28.0812C34.3877 45.5938 39.5 40.4814 39.5 34.175C39.5 31.2662 38.3899 28.4672 36.3964 26.349L28.0679 17.5H19.9321ZM28.8232 9.5H19.1768C17.6304 7.81173 16.7626 5.60523 16.7501 3.30738L19.6835 5.32404C20.0513 5.5769 20.5421 5.55541 20.8864 5.27138L24 2.70264L27.1136 5.27138C27.4579 5.55541 27.9487 5.5769 28.3165 5.32404L31.2499 3.30738C31.2374 5.60523 30.3696 7.81173 28.8232 9.5Z" fill="#101828"/>
<path d="M42.9487 1.18379C42.8126 0.775436 42.4304 0.499995 42 0.5C41.5695 0.500005 41.1874 0.775455 41.0513 1.18381L40.6304 2.44681C40.0256 4.26101 38.7134 5.75489 36.9926 6.58917L36.9691 6.6006C36.6251 6.76783 36.4066 7.11667 36.4063 7.49921C36.4059 7.88175 36.6239 8.23095 36.9677 8.39871L36.9911 8.41014L36.9934 8.41126C38.7143 9.24555 40.0255 10.7389 40.6303 12.5532L41.0513 13.8162C41.1874 14.2246 41.5696 14.5 42 14.5C42.4305 14.5 42.8126 14.2246 42.9487 13.8162L43.388 12.4982C43.9833 10.7124 45.2636 9.23629 46.9472 8.39442C47.286 8.22502 47.5 7.87877 47.5 7.5C47.5 7.12123 47.286 6.77498 46.9472 6.60558C45.2636 5.76371 43.9832 4.28754 43.388 2.5018L42.9487 1.18379Z" fill="#FF5A22"/>
<path d="M6.94869 10.1838C6.81258 9.77544 6.43043 9.5 5.99999 9.5C5.56955 9.5 5.1874 9.77545 5.0513 10.1838L4.63037 11.4468C4.02556 13.261 2.71338 14.7549 0.992647 15.5892L0.969116 15.6006C0.625061 15.7678 0.406551 16.1167 0.40625 16.4992C0.40595 16.8818 0.623911 17.2309 0.967702 17.3987L0.99114 17.4101L0.993439 17.4113C2.71427 18.2455 4.0255 19.7389 4.63029 21.5532L5.05132 22.8162C5.18745 23.2246 5.56959 23.5 6.00002 23.5C6.43045 23.5 6.81259 23.2246 6.94869 22.8162L7.388 21.4982C7.98325 19.7124 9.26358 18.2363 10.9472 17.3944C11.286 17.225 11.5 16.8788 11.5 16.5C11.5 16.1212 11.286 15.775 10.9472 15.6056C9.26358 14.7637 7.98325 13.2875 7.388 11.5018L6.94869 10.1838Z" fill="#FF5A22"/>
<path fill-rule="evenodd" clip-rule="evenodd" d="M22.9131 25.8861C22.299 25.9987 21.6995 26.2313 21.184 26.6089C20.3329 27.2323 19.7771 28.2073 19.7658 29.4676C19.7551 30.6605 20.2462 31.5321 20.9872 32.1517C21.6695 32.7221 22.5448 33.0615 23.2874 33.3238C23.3191 33.335 23.3511 33.3445 23.3831 33.3524C23.4694 33.3823 23.5542 33.4115 23.6373 33.4402L23.6387 33.4407L23.6397 33.441C24.3775 33.6952 24.9876 33.9054 25.4761 34.2173C25.7521 34.3935 25.9336 34.5719 26.0484 34.7596C26.1578 34.9385 26.2386 35.1775 26.2354 35.5343C26.2298 36.1583 25.9813 36.5439 25.6353 36.7973C25.2559 37.0752 24.695 37.234 24.071 37.214C23.4482 37.1939 22.8643 36.9982 22.4613 36.6932C22.0797 36.4045 21.8677 36.0322 21.8677 35.5551C21.8677 35.0028 21.42 34.5551 20.8677 34.5551C20.3154 34.5551 19.8677 35.0028 19.8677 35.5551C19.8677 36.7461 20.4474 37.6774 21.2545 38.2881C21.7916 38.6945 22.4296 38.963 23.0879 39.1021V40.4881C23.0879 41.0404 23.5356 41.4881 24.0879 41.4881C24.6402 41.4881 25.0879 41.0404 25.0879 40.4881V39.1336C25.702 39.021 26.3015 38.7884 26.8171 38.4108C27.6682 37.7874 28.224 36.8124 28.2353 35.5522C28.2416 34.8546 28.0761 34.2418 27.7546 33.7162C27.4385 33.1992 27.0047 32.8204 26.5524 32.5316C25.8419 32.0779 24.9465 31.7722 24.2014 31.5178C24.0506 31.4663 23.906 31.417 23.7704 31.3689C23.7482 31.361 23.7259 31.354 23.7035 31.3478C23.0803 31.1176 22.6034 30.896 22.2701 30.6173C21.9522 30.3516 21.7608 30.0341 21.7657 29.4854C21.7713 28.8614 22.0198 28.4758 22.3658 28.2224C22.7451 27.9446 23.3061 27.7857 23.9301 27.8058C24.5528 27.8258 25.1368 28.0215 25.5398 28.3265C25.9214 28.6152 26.1334 28.9876 26.1334 29.4647C26.1334 30.017 26.5812 30.4647 27.1334 30.4647C27.6857 30.4647 28.1334 30.017 28.1334 29.4647C28.1334 28.2736 27.5537 27.3423 26.7466 26.7316C26.2095 26.3252 25.5714 26.0567 24.9131 25.9176V24.5745C24.9131 24.0222 24.4654 23.5745 23.9131 23.5745C23.3608 23.5745 22.9131 24.0222 22.9131 24.5745V25.8861Z" fill="#101828"/>
</g>
<defs>
<clipPath id="clip0_4180_15433">
<rect width="48" height="48" fill="white"/>
</clipPath>
</defs>
</svg>
