<svg width="14" height="18" viewBox="0 0 14 18" fill="none" xmlns="http://www.w3.org/2000/svg">
    <path
        d="M2 17.334c-.458 0-.85-.163-1.177-.49a1.605 1.605 0 0 1-.49-1.177v-10c0-.458.163-.85.49-1.177C1.149 4.164 1.542 4 2 4h1.667c0-.916.326-1.701.979-2.354A3.21 3.21 0 0 1 7 .667a3.21 3.21 0 0 1 2.354.98A3.21 3.21 0 0 1 10.334 4H12c.458 0 .85.164 1.177.49.326.326.49.719.49 1.177v10c0 .458-.164.85-.49 1.177-.326.326-.719.49-1.177.49H2Zm0-1.667h10v-10h-1.667v1.667c0 .236-.08.434-.24.593a.806.806 0 0 1-.593.24.806.806 0 0 1-.594-.24.806.806 0 0 1-.24-.593V5.667H5.334v1.667c0 .236-.08.434-.24.593a.806.806 0 0 1-.593.24.806.806 0 0 1-.594-.24.806.806 0 0 1-.24-.593V5.667H2v10ZM5.333 4h3.334c0-.458-.164-.85-.49-1.177A1.605 1.605 0 0 0 7 2.333c-.458 0-.85.164-1.177.49-.327.327-.49.719-.49 1.177Z"
        fill="#475467" />
</svg>