<svg width="24" height="24" viewBox="0 0 24 24" fill="none" xmlns="http://www.w3.org/2000/svg">
<path d="M12.0008 18.275L7.8508 20.775C7.66747 20.8916 7.4758 20.9416 7.2758 20.9249C7.0758 20.9083 6.9008 20.8416 6.7508 20.725C6.6008 20.6083 6.48414 20.4626 6.4008 20.288C6.31747 20.1126 6.3008 19.9166 6.3508 19.7L7.4508 14.975L3.7758 11.8C3.60914 11.65 3.50514 11.479 3.4638 11.287C3.4218 11.0956 3.43414 10.9083 3.5008 10.725C3.56747 10.5416 3.66747 10.3916 3.8008 10.275C3.93414 10.1583 4.11747 10.0833 4.3508 10.05L9.2008 9.62495L11.0758 5.17495C11.1591 4.97495 11.2885 4.82495 11.4638 4.72495C11.6385 4.62495 11.8175 4.57495 12.0008 4.57495C12.1841 4.57495 12.3635 4.62495 12.5388 4.72495C12.7135 4.82495 12.8425 4.97495 12.9258 5.17495L14.8008 9.62495L19.6508 10.05C19.8841 10.0833 20.0675 10.1583 20.2008 10.275C20.3341 10.3916 20.4341 10.5416 20.5008 10.725C20.5675 10.9083 20.5801 11.0956 20.5388 11.287C20.4968 11.479 20.3925 11.65 20.2258 11.8L16.5508 14.975L17.6508 19.7C17.7008 19.9166 17.6841 20.1126 17.6008 20.288C17.5175 20.4626 17.4008 20.6083 17.2508 20.725C17.1008 20.8416 16.9258 20.9083 16.7258 20.9249C16.5258 20.9416 16.3341 20.8916 16.1508 20.775L12.0008 18.275Z" fill="currentColor"/>
</svg>
