<svg width="21" height="20" viewBox="0 0 21 20" fill="none" xmlns="http://www.w3.org/2000/svg"><path d="M5.5 6c-.55 0-1.02-.196-1.412-.588A1.923 1.923 0 0 1 3.5 4V2c0-.55.196-1.021.588-1.413A1.925 1.925 0 0 1 5.5 0h10c.55 0 1.021.196 1.413.587.391.392.587.863.587 1.413v2c0 .55-.196 1.02-.587 1.412A1.927 1.927 0 0 1 15.5 6h-10ZM6 4h9a.48.48 0 0 0 .35-.15c.1-.1.15-.217.15-.35v-1a.48.48 0 0 0-.15-.35A.48.48 0 0 0 15 2H6a.48.48 0 0 0-.35.15.48.48 0 0 0-.15.35v1c0 .133.05.25.15.35.1.1.217.15.35.15ZM2.5 20c-.55 0-1.02-.196-1.412-.587A1.927 1.927 0 0 1 .5 18v-1h20v1a1.93 1.93 0 0 1-.587 1.413A1.928 1.928 0 0 1 18.5 20h-16Zm-2-4 3.475-7.825A1.967 1.967 0 0 1 5.8 7h9.4a1.969 1.969 0 0 1 1.825 1.175L20.5 16H.5ZM7 14h1a.48.48 0 0 0 .35-.15.48.48 0 0 0 0-.7A.48.48 0 0 0 8 13H7a.48.48 0 0 0-.35.15.48.48 0 0 0 0 .7c.1.1.217.15.35.15Zm0-2h1a.48.48 0 0 0 .35-.15.48.48 0 0 0 0-.7A.48.48 0 0 0 8 11H7a.48.48 0 0 0-.35.15.48.48 0 0 0 0 .7c.1.1.217.15.35.15Zm0-2h1a.48.48 0 0 0 .35-.15.48.48 0 0 0 0-.7A.48.48 0 0 0 8 9H7a.48.48 0 0 0-.35.15.48.48 0 0 0 0 .7c.1.1.217.15.35.15Zm3 4h1a.48.48 0 0 0 .35-.15.48.48 0 0 0 0-.7A.48.48 0 0 0 11 13h-1a.48.48 0 0 0-.35.15.48.48 0 0 0 0 .7c.1.1.217.15.35.15Zm0-2h1a.48.48 0 0 0 .35-.15.48.48 0 0 0 0-.7A.48.48 0 0 0 11 11h-1a.48.48 0 0 0-.35.15.48.48 0 0 0 0 .7c.1.1.217.15.35.15Zm0-2h1a.48.48 0 0 0 .35-.15.48.48 0 0 0 0-.7A.48.48 0 0 0 11 9h-1a.48.48 0 0 0-.35.15.48.48 0 0 0 0 .7c.1.1.217.15.35.15Zm3 4h1a.48.48 0 0 0 .35-.15.48.48 0 0 0 0-.7A.48.48 0 0 0 14 13h-1a.48.48 0 0 0-.35.15.48.48 0 0 0 0 .7c.1.1.217.15.35.15Zm0-2h1a.48.48 0 0 0 .35-.15.48.48 0 0 0 0-.7A.48.48 0 0 0 14 11h-1a.48.48 0 0 0-.35.15.48.48 0 0 0 0 .7c.1.1.217.15.35.15Zm0-2h1a.48.48 0 0 0 .35-.15.48.48 0 0 0 0-.7A.48.48 0 0 0 14 9h-1a.48.48 0 0 0-.35.15.48.48 0 0 0 0 .7c.1.1.217.15.35.15Z" fill="currentColor"/></svg>