<svg width="25" height="24" viewBox="0 0 25 24" fill="none" xmlns="http://www.w3.org/2000/svg"><g clip-path="url(#a)"><mask id="b" style="mask-type:luminance" maskUnits="userSpaceOnUse" x="0" y="3" width="25" height="18"><path d="M.5 3h24v18H.5V3Z" fill="#fff"/></mask><g mask="url(#b)"><path fill-rule="evenodd" clip-rule="evenodd" d="M.5 3v18h24V3H.5Z" fill="#FFB400"/><mask id="c" style="mask-type:luminance" maskUnits="userSpaceOnUse" x="0" y="3" width="25" height="18"><path fill-rule="evenodd" clip-rule="evenodd" d="M.5 3v18h24V3H.5Z" fill="#fff"/></mask><g mask="url(#c)"><path fill-rule="evenodd" clip-rule="evenodd" d="M.5 3v4.5h24V3H.5Zm0 13.5V21h24v-4.5H.5Z" fill="#D92D20"/><path d="M4.256 10.704h.84v4.368h-.84v-4.368Z" fill="#F2F4F7"/><path fill-rule="evenodd" clip-rule="evenodd" d="M5.432 9.948H3.92v.42h.252v.336H5.18v-.336h.252v-.42Zm-.252 5.376h.252v.42H3.92v-.42h.252v-.336H5.18v.336Z" fill="#F79009"/><path fill-rule="evenodd" clip-rule="evenodd" d="M4.676 10.032c.183 0 .202-.07.309-.172.084-.08.279-.178.279-.29 0-.255-.263-.462-.588-.462-.325 0-.588.207-.588.462 0 .124.135.207.236.29.107.088.185.172.352.172Z" fill="#D92D20"/><path fill-rule="evenodd" clip-rule="evenodd" d="M3.92 15.744h1.512v.672s-.19-.084-.378-.084c-.19 0-.378.084-.378.084s-.19-.084-.378-.084c-.19 0-.378.084-.378.084v-.672Z" fill="#0B70FE"/><mask id="d" style="mask-type:luminance" maskUnits="userSpaceOnUse" x="3" y="15" width="3" height="2"><path fill-rule="evenodd" clip-rule="evenodd" d="M3.92 15.744h1.512v.672s-.19-.084-.378-.084c-.19 0-.378.084-.378.084s-.19-.084-.378-.084c-.19 0-.378.084-.378.084v-.672Z" fill="#fff"/></mask><g mask="url(#d)"><path d="m3.907 16.284-.033-.08a.997.997 0 0 1 .409-.092c.089 0 .135.013.213.047a.366.366 0 0 0 .18.04.367.367 0 0 0 .18-.04.445.445 0 0 1 .214-.047c.136 0 .273.03.41.092l-.034.08a.92.92 0 0 0-.376-.084.368.368 0 0 0-.18.04.445.445 0 0 1-.214.048.444.444 0 0 1-.213-.048.368.368 0 0 0-.18-.04.917.917 0 0 0-.376.084Zm0-.252-.033-.08a.997.997 0 0 1 .409-.092c.089 0 .135.013.213.047a.366.366 0 0 0 .18.04.367.367 0 0 0 .18-.04.445.445 0 0 1 .214-.047c.136 0 .273.03.41.092l-.034.08a.92.92 0 0 0-.376-.084.368.368 0 0 0-.18.04.445.445 0 0 1-.214.048.444.444 0 0 1-.213-.048.368.368 0 0 0-.18-.04.917.917 0 0 0-.376.084Z" fill="#fff"/></g><path d="M12.488 10.704h.84v4.368h-.84v-4.368Z" fill="#F2F4F7"/><path fill-rule="evenodd" clip-rule="evenodd" d="M13.664 9.948h-1.512v.42h.252v.336h1.008v-.336h.252v-.42Zm-.252 5.376h.252v.42h-1.512v-.42h.252v-.336h1.008v.336Z" fill="#F79009"/><path fill-rule="evenodd" clip-rule="evenodd" d="M12.908 10.032c.183 0 .2-.07.309-.172.084-.08.279-.178.279-.29 0-.255-.263-.462-.588-.462-.325 0-.588.207-.588.462 0 .124.135.207.236.29.107.088.185.172.352.172Z" fill="#D92D20"/><path fill-rule="evenodd" clip-rule="evenodd" d="M12.152 15.744h1.512v.672s-.19-.084-.378-.084c-.19 0-.378.084-.378.084s-.19-.084-.378-.084c-.19 0-.378.084-.378.084v-.672Z" fill="#0B70FE"/><mask id="e" style="mask-type:luminance" maskUnits="userSpaceOnUse" x="12" y="15" width="2" height="2"><path fill-rule="evenodd" clip-rule="evenodd" d="M12.152 15.744h1.512v.672s-.19-.084-.378-.084c-.19 0-.378.084-.378.084s-.19-.084-.378-.084c-.19 0-.378.084-.378.084v-.672Z" fill="#fff"/></mask><g mask="url(#e)"><path d="m12.139 16.284-.034-.08a.997.997 0 0 1 .41-.092c.088 0 .135.013.213.047a.366.366 0 0 0 .18.04.367.367 0 0 0 .18-.04.445.445 0 0 1 .214-.047c.136 0 .273.03.41.092l-.034.08a.92.92 0 0 0-.376-.084.368.368 0 0 0-.18.04.445.445 0 0 1-.214.048.444.444 0 0 1-.213-.048.368.368 0 0 0-.18-.04.917.917 0 0 0-.377.084Zm0-.252-.034-.08a.997.997 0 0 1 .41-.092c.088 0 .135.013.213.047a.366.366 0 0 0 .18.04.367.367 0 0 0 .18-.04.445.445 0 0 1 .214-.047c.136 0 .273.03.41.092l-.034.08a.92.92 0 0 0-.376-.084.368.368 0 0 0-.18.04.445.445 0 0 1-.214.048.444.444 0 0 1-.213-.048.368.368 0 0 0-.18-.04.917.917 0 0 0-.377.084Z" fill="#fff"/></g><path fill-rule="evenodd" clip-rule="evenodd" d="M4.241 14.76c.152-.184.236-.351.236-.528a.474.474 0 0 0-.091-.287l.01-.005c-.001 0 .165-.072.224-.1.104-.05.203-.107.296-.174.06-.044.139-.09.26-.155l.114-.06.03-.018a2.09 2.09 0 0 0 .144-.079.911.911 0 0 0 .275-.215.401.401 0 0 0-.093-.599c-.104-.071-.245-.112-.45-.144l-.044-.006a113.16 113.16 0 0 1-.517-.083c.516-.086 1.253-.054 1.578.113l.307-.597c-.66-.341-2.166-.307-2.729.081-.412.284-.357.714.072.899.18.077.413.128.846.197a2.139 2.139 0 0 0-.188.122 1.2 1.2 0 0 1-.191.113l-.188.083-.025.01c-.35.16-.52.379-.468.777l.027.215.05.015.515.425Zm-.432-.555-.001.002v-.003l.001.001Zm9.22.027c0 .177.085.345.237.528l.516-.425.049-.015.027-.216c.05-.397-.119-.617-.468-.776l-.024-.01a9.934 9.934 0 0 1-.188-.084 1.198 1.198 0 0 1-.192-.112 2.115 2.115 0 0 0-.189-.121c.433-.07.668-.12.846-.198.43-.185.485-.616.072-.899-.562-.388-2.068-.422-2.73-.081l.31.597c.324-.167 1.061-.199 1.577-.113l-.517.083-.043.006c-.206.032-.347.073-.45.144a.402.402 0 0 0-.094.599.91.91 0 0 0 .275.216c.04.024.084.047.143.078l.031.017.114.06c.121.066.2.112.26.156.093.067.187.122.296.174l.224.1.01.005a.475.475 0 0 0-.091.287Z" fill="#D92D20"/><path d="m4.942 12.3.248.051v.37c-.264.21-.934.566-.934.566V12.3h.686Zm7.794 0-.248.051v.37c.264.21.934.566.934.566V12.3h-.686Z" fill="#F2F4F7"/><path fill-rule="evenodd" clip-rule="evenodd" d="M11.582 8.405v-.123c-.432-.31-.885-.465-1.358-.465a2.71 2.71 0 0 0-1.376-.234V7.58c-.697-.067-1.402.237-1.402.237-.71 0-1.357.465-1.357.465v.123l.847.85s.239.82 1.91.627v.002s1.105-.03 1.182-.056l.096-.03c.217-.062.463-.134.61-.543l.848-.85ZM8.844 7.62c-.024.283-.16 1.99 0 2.255V7.621Z" fill="#D92D20"/><path fill-rule="evenodd" clip-rule="evenodd" d="M6.736 9.113V9.11l-.596-.561.058-.061.559.526.015-.066c.064.017.13.025.196.023v-.113l.125.067c.06.033.148.042.262.023.086-.014.143-.112.16-.32l.038-.423.127.405c.057.182.144.263.268.263.121 0 .17-.044.175-.156l.015-.318.144.284c.052.102.123.148.225.148.145 0 .242-.12.242-.31h.17c0 .19.097.31.242.31.102 0 .173-.046.225-.148l.143-.284.015.318c.006.112.055.156.176.156.124 0 .211-.08.268-.264l.126-.405.038.423c.019.209.076.308.16.321.115.02.203.01.264-.023l.123-.067v.114a.713.713 0 0 0 .198-.023l.027.122.618-.582.058.06-.77.726c-.113.207-.17.343-.17.4 0 .086-.225.138-.664.19-.345.042-.75.07-1.084.074h-.084c-.362-.006-.724-.03-1.084-.073-.44-.053-.665-.105-.665-.19a.177.177 0 0 0-.006-.041.66.66 0 0 1-.096-.233 4.264 4.264 0 0 0-.067-.127l-.17-.162-.004-.001Zm4.128.013c-.137.024-.237.022-.29-.02a.66.66 0 0 1-.289.007c-.117-.02-.2-.098-.25-.228a.385.385 0 0 1-.243.15c.538.075.914.183.914.183s-.009.08-.031.173c.023-.049.052-.103.084-.163l.008-.01.097-.092Zm-1.326-.123a.27.27 0 0 1-.11-.1.375.375 0 0 1-.137.077c.085.006.167.015.247.023Zm-.543-.04a.385.385 0 0 1-.16-.14.385.385 0 0 1-.16.14l.116-.003h.067c.046 0 .092.002.137.003Zm-2.028.248-.078-.073c.093.01.163 0 .204-.033.083.024.18.026.29.008.118-.02.2-.098.249-.228.057.077.141.13.235.148a7.647 7.647 0 0 0-.9.179V9.21Zm1.407-.233A7.21 7.21 0 0 0 8.135 9a.27.27 0 0 0 .105-.097.37.37 0 0 0 .134.075Zm2.066.698c.06.028.106 0 .143-.053a.296.296 0 0 0-.006.04.81.81 0 0 1-.147.047 4.6 4.6 0 0 1-.444.072c-.356.042-.78.07-1.116.072a10.645 10.645 0 0 1-1.116-.072 4.602 4.602 0 0 1-.444-.072.946.946 0 0 1-.11-.03.14.14 0 0 0 .009-.004c.184-.086 1.397-.167 1.615-.18.219.013 1.433.094 1.616.18Z" fill="#F79009"/><path fill-rule="evenodd" clip-rule="evenodd" d="M8.67 8.248a.33.33 0 0 0 .024.076.319.319 0 0 0-.112-.02c-.116 0-.21.057-.21.126 0 .07.094.126.21.126.116 0 .21-.056.21-.126 0 .07.094.126.21.126.116 0 .21-.056.21-.126 0-.069-.094-.126-.21-.126a.334.334 0 0 0-.083.01.318.318 0 0 0-.001-.114c-.023-.114-.096-.195-.164-.182-.068.013-.105.116-.084.23Zm-1.236.16a.335.335 0 0 1-.024-.076c-.022-.114.015-.218.084-.23.068-.014.142.067.164.182a.33.33 0 0 1 .001.115.334.334 0 0 1 .083-.01c.116 0 .21.056.21.125 0 .07-.094.126-.21.126-.116 0-.21-.056-.21-.126 0 .07-.094.126-.21.126-.116 0-.21-.056-.21-.126 0-.069.094-.126.21-.126a.31.31 0 0 1 .112.02Zm2.631.077c-.01.069-.11.112-.225.095-.115-.016-.2-.085-.19-.154.009-.069.11-.111.225-.095a.318.318 0 0 1 .109.035.33.33 0 0 1-.014-.08c-.006-.115.045-.211.115-.215.07-.004.131.087.137.202a.319.319 0 0 1-.014.115.334.334 0 0 1 .082.002c.116.015.201.084.192.153-.01.07-.111.112-.226.096s-.2-.085-.19-.154Zm.8.333c.103.055.212.049.244-.013l.003-.003c.01.01.021.018.035.023.067.02.148-.053.182-.165.034-.11.008-.217-.06-.237-.066-.02-.147.053-.18.164a.34.34 0 0 0-.016.079.317.317 0 0 0-.09-.07c-.102-.055-.211-.049-.244.012-.032.061.024.156.126.21Zm-4.121.026c-.103.054-.213.049-.245-.013a.086.086 0 0 1-.001-.003.082.082 0 0 1-.036.022c-.067.02-.148-.052-.183-.163-.033-.111-.007-.218.06-.238.066-.02.148.052.182.163a.334.334 0 0 1 .014.08.318.318 0 0 1 .09-.07c.103-.055.212-.05.245.012s-.024.155-.126.21ZM8.74 6.058h.175v.11h.115v.175h-.115v.35h.115v.175h-.406v-.175h.116v-.35h-.116v-.175h.116v-.11Z" fill="#F79009"/><path d="M8.708 7.008h.336V8.1h-.336V7.008Zm-2.463 1.27-.158.056c-.165-.469-.118-.787.163-.924.248-.12.608-.17 1.085-.15l-.008.167c-.45-.018-.785.028-1.003.134-.185.09-.219.32-.08.717Z" fill="#F79009"/><path d="M8.098 7.08c-.385 0-.543.092-.633.369-.057.175-.002.326.179.466l-.103.133c-.234-.181-.316-.404-.235-.652.114-.352.34-.485.79-.485.297 0 .527.077.688.236l.025.024v.81h-.168v-.738c-.125-.108-.306-.165-.544-.165v.001Zm3.352 1.282.158.056c.165-.469.117-.787-.163-.924-.248-.12-.61-.17-1.085-.15l.007.167c.45-.018.786.028 1.004.134.185.09.219.32.078.717h.001Z" fill="#F79009"/><path d="M9.588 7.092c.384 0 .542.094.632.37.058.176.002.326-.18.466l.104.133c.234-.181.317-.404.236-.65-.115-.353-.34-.487-.792-.487-.296 0-.527.078-.687.236l-.025.025v.81h.168v-.739c.125-.108.305-.164.544-.164Z" fill="#F79009"/><path opacity=".3" fill-rule="evenodd" clip-rule="evenodd" d="M6.104 9.948h5.46v4.905s-.405 1.647-2.73 1.647-2.73-1.69-2.73-1.69V9.948Z" fill="#D0D5DD"/><mask id="f" style="mask-type:luminance" maskUnits="userSpaceOnUse" x="6" y="9" width="6" height="8"><path fill-rule="evenodd" clip-rule="evenodd" d="M6.104 9.948h5.46v4.905s-.405 1.647-2.73 1.647-2.73-1.69-2.73-1.69V9.948Z" fill="#fff"/></mask><g mask="url(#f)"><path d="M6.104 12.972h2.772v3.276H6.104v-3.276Z" fill="#F79009"/><path d="M6.44 13.14h.336v3.108H6.44V13.14Zm1.176 0h.336v3.108h-.336V13.14Zm-.588 0h.336v3.108h-.336V13.14Zm1.176 0h.336v3.108h-.336V13.14Zm-2.1-3.276h2.772v3.192H6.104V9.864Z" fill="#D92D20"/><path d="M8.792 12.888h2.772v3.192H8.792v-3.192Z" fill="#D92D20"/><path d="M8.792 9.948h2.94v3.108h-2.94V9.948Z" fill="#F2F4F7"/><path fill-rule="evenodd" clip-rule="evenodd" d="M11.27 15.105v-1.839h-2.1v1.824l.004.014c.105.453.468.682 1.046.682.577 0 .94-.223 1.046-.666l.004-.015Zm-1.05.43c-.464 0-.718-.157-.798-.475v-1.542h1.596v1.556c-.08.308-.334.46-.798.46Z" fill="#F79009"/><path fill-rule="evenodd" clip-rule="evenodd" d="M10.307 13.42h-.176v.834l-.69-.75-.123.112.624.679h-.565v.252h.579l-.638.694.124.114.69-.75v.974h.175v-.887l.609.663.124-.114-.638-.694h.712v-.252h-.698l.624-.678-.124-.114-.61.663v-.746Z" fill="#F79009"/><path fill-rule="evenodd" clip-rule="evenodd" d="M10.613 16.082s-1.78.14-1.78-1.008c0 0-.017 1.008-1.875 1.008v.905h3.655v-.905Z" fill="#F2F4F7"/><path fill-rule="evenodd" clip-rule="evenodd" d="M8.834 13.644c.348 0 .63-.3.63-.672 0-.371-.282-.672-.63-.672-.348 0-.63.3-.63.672 0 .371.282.672.63.672Z" fill="#0B70FE" stroke="#D92D20" stroke-width="1.167"/></g></g></g></g><defs><clipPath id="a"><path fill="#fff" d="M.5 0h24v24H.5z"/></clipPath></defs></svg>