<svg width="81" height="80" viewBox="0 0 81 80" fill="none" xmlns="http://www.w3.org/2000/svg"><path d="m62.805 68.453-8.835-3.458a38.558 38.558 0 0 1-6.555 1.565l-1.99 6.065-9.6-.003-2.056-6.062a38.633 38.633 0 0 1-6.566-1.57l-8.806 3.46-6.818-3.935 5.944-5.114c-1.216-1.2-2.123-2.483-2.727-3.795L4.32 54.433l-.034-5.56 10.46-1.173c.589-1.318 1.48-2.597 2.687-3.8l-6.002-5.11 6.778-3.937 8.837 3.46a37.84 37.84 0 0 1 6.551-1.569l1.993-6.063 9.606-.002 2.053 6.068a38.56 38.56 0 0 1 6.566 1.564l8.801-3.457 6.817 3.937-5.937 5.11c1.22 1.202 2.131 2.48 2.726 3.8l10.479 1.167.027 5.565-10.462 1.173c-.58 1.32-1.48 2.596-2.682 3.8l5.998 5.107-6.777 3.94Zm-36.859-8.337c8.09 4.67 21.174 4.67 29.217-.003 8.04-4.672 7.994-12.249-.097-16.92-8.097-4.675-21.173-4.675-29.215 0-8.042 4.674-8.002 12.248.095 16.923Z" fill="#FF5A22"/><path d="M46.942 44.943v5.822a6.444 6.444 0 0 1-12.887 0v-5.822h12.887Z" fill="#101828" stroke="#101828" stroke-linejoin="round"/><path d="m50.206 47.645-.008 1.947c-.003 1.42-.936 2.838-2.806 3.925-3.786 2.2-9.917 2.178-13.728-.023-1.917-1.106-2.876-2.55-2.871-3.99l.007-1.948c-.004 1.442.953 2.886 2.871 3.993 3.81 2.199 9.943 2.222 13.729.022 1.871-1.086 2.801-2.505 2.807-3.924l-.001-.002Z" fill="#101828" stroke="#101828" stroke-linejoin="round"/><path d="m49.904 44.84-.008 2.325c-.004 1.378-.906 2.75-2.718 3.804-3.668 2.131-9.61 2.11-13.301-.021-1.857-1.072-2.785-2.471-2.78-3.869l.005-2.324c-.003 1.396.924 2.795 2.782 3.867 3.69 2.131 9.633 2.154 13.3.023 1.813-1.054 2.715-2.428 2.72-3.804Z" fill="#101828" stroke="#101828" stroke-linejoin="round"/><path d="M47.102 40.94c3.692 2.132 3.75 5.573.082 7.705-3.668 2.13-9.61 2.108-13.3-.023-3.692-2.131-3.71-5.55-.044-7.682 3.668-2.13 9.57-2.13 13.262 0Z" fill="#fff" stroke="#101828" stroke-linejoin="round"/><path d="m49.904 41.635-.008 2.324c-.004 1.378-.906 2.75-2.718 3.804-3.668 2.131-9.61 2.11-13.301-.023-1.857-1.071-2.785-2.47-2.78-3.867l.005-2.324c-.003 1.396.924 2.795 2.782 3.867 3.69 2.131 9.633 2.154 13.3.023 1.813-1.054 2.715-2.428 2.72-3.804Z" fill="#101828" stroke="#101828" stroke-linejoin="round"/><path d="M47.102 37.734c3.692 2.132 3.75 5.573.082 7.704-3.668 2.132-9.61 2.11-13.3-.022-3.692-2.131-3.71-5.55-.044-7.682 3.668-2.131 9.57-2.131 13.262 0Z" fill="#101828" stroke="#101828" stroke-linejoin="round"/><path d="M56.598 15.943c1.624 6.158-.189 11.975-3.929 15.954a12.887 12.887 0 0 0-3.53 8.82c0 1.268-.79 2.61-2.538 3.532-3.328 1.938-8.81 1.938-12.211 0-1.651-.953-2.468-2.159-2.533-3.374a1.045 1.045 0 0 0-.06-.307s-.015-.076-.015-.094c-.013-3.102-1.107-6.154-3.267-8.382a16.628 16.628 0 0 1-4.708-11.618c0-10.767 10.189-19.164 21.472-16.04 5.545 1.534 9.852 5.946 11.32 11.509Z" fill="#fff" stroke="#101828" stroke-linejoin="round"/><path d="M46.105 37.813c3.135 1.811 3.184 4.732.07 6.542-3.114 1.811-8.16 1.791-11.294-.018-3.135-1.812-3.15-4.714-.036-6.524 3.114-1.81 8.125-1.81 11.26 0Z" fill="#fff" stroke="#101828" stroke-linejoin="round"/><path fill-rule="evenodd" clip-rule="evenodd" d="M43.786 24.347a1.406 1.406 0 0 1-.546-.131c-.044.416-.22.73-.51.896a.932.932 0 0 1-.47.121c-.177 0-.369-.043-.564-.13-.044.416-.221.73-.51.895a.931.931 0 0 1-.47.124c-.178 0-.369-.044-.565-.131-.045.416-.222.731-.51.896a.935.935 0 0 1-.472.121l.002.002c-.179 0-.369-.044-.564-.13-.044.415-.22.73-.51.895a.929.929 0 0 1-.47.122c-.179 0-.369-.043-.564-.13-.03.286-.124.524-.273.7.201.28.696 1.148 1.136 2.781.481 1.778 1.011 4.924.818 9.804a.3.3 0 0 1-.3.288h-.012a.3.3 0 0 1-.287-.312c.184-4.667-.314-7.72-.765-9.46-.486-1.873-1.028-2.69-1.08-2.762a.297.297 0 0 1-.03-.038.942.942 0 0 1-.189.017 1.52 1.52 0 0 1-.754-.228c-.89-.513-1.61-1.762-1.606-2.782.003-.524.187-.918.522-1.11.285-.166.648-.16 1.034.01.045-.418.223-.732.51-.898.287-.166.65-.16 1.033.01.045-.418.223-.733.51-.898.291-.167.651-.16 1.035.01.046-.418.222-.733.51-.898.287-.166.65-.161 1.035.01.045-.418.222-.732.51-.899.286-.165.65-.16 1.033.01.045-.417.223-.731.51-.897.337-.193.772-.154 1.226.108.888.514 1.608 1.764 1.606 2.787-.002.4-.112.725-.315.941a.302.302 0 0 1-.011.185h.001c-.02.045-.699 1.698-1.303 4.412-.538 2.429-1.118 6.213-.81 10.451a.3.3 0 0 1-.272.32l-.029.002a.302.302 0 0 1-.3-.278c-.529-7.31 1.47-13.302 2.03-14.806Zm.103-.27c-.19.021-.408-.028-.64-.15-.032-.985-.704-2.15-1.541-2.67.017-.385.152-.668.387-.803a.666.666 0 0 1 .338-.086c.221.01.436.077.624.195.815.47 1.474 1.617 1.474 2.555 0 .319-.08.573-.225.74a.302.302 0 0 0-.376.12l-.003.005a3.572 3.572 0 0 0-.038.093Zm-.917-.325c-.092-.8-.604-1.687-1.252-2.166.091.798.604 1.686 1.252 2.166Zm.013.328c-.839-.52-1.511-1.689-1.542-2.671a1.274 1.274 0 0 0-.554-.153.667.667 0 0 0-.337.086c-.235.135-.37.42-.386.807.834.52 1.505 1.682 1.539 2.664.342.181.657.206.894.07.234-.135.371-.417.386-.803Zm-6.178 3.55c-.012.29-.092.523-.23.677a.3.3 0 0 0-.34.197c-.222.049-.491-.01-.779-.177-.815-.47-1.476-1.615-1.473-2.55.001-.426.14-.74.39-.884a.665.665 0 0 1 .336-.085c.195.008.385.06.556.153.03.981.702 2.148 1.54 2.67Zm4.62-2.993c-.093-.797-.604-1.682-1.249-2.16.091.796.602 1.68 1.249 2.16ZM39.9 22.298c.03.98.702 2.146 1.54 2.668-.016.386-.151.67-.385.804-.233.136-.548.113-.894-.068-.034-.984-.706-2.146-1.541-2.667.017-.386.153-.671.387-.806a.665.665 0 0 1 .337-.084v-.002c.195.009.385.062.556.155Zm-.018 3.228c-.092-.798-.604-1.684-1.25-2.162.09.797.603 1.682 1.25 2.162Zm.014.328c-.84-.52-1.51-1.685-1.541-2.668a1.276 1.276 0 0 0-.555-.155v.001a.668.668 0 0 0-.338.086c-.235.135-.37.418-.387.804.837.52 1.509 1.684 1.542 2.668.344.18.659.204.892.068.235-.134.372-.418.386-.804Zm-1.557.561c-.091-.8-.603-1.686-1.252-2.165.092.798.604 1.687 1.252 2.165Zm-1.53-2.342c.032.982.704 2.149 1.544 2.67-.016.386-.153.669-.387.803-.234.136-.55.112-.894-.068-.033-.983-.705-2.146-1.54-2.667.017-.387.152-.67.387-.805a.667.667 0 0 1 .337-.086c.194.008.383.06.554.153Zm-.015 3.23c-.091-.798-.603-1.683-1.249-2.163.09.797.602 1.683 1.25 2.162Z" fill="#101828"/><path d="m43.24 24.216.203-.457a.5.5 0 0 0-.7.404l.497.053Zm.546.131.468.174a.5.5 0 0 0-.46-.674l-.008.5Zm-1.056.765.246.436.004-.002-.25-.434Zm-.47.121.007-.5h-.006v.5Zm-.564-.13.203-.457a.5.5 0 0 0-.7.405l.497.052Zm-.51.895.25.434-.25-.434Zm-.47.124.003-.5h-.003v.5Zm-.565-.131.203-.457a.5.5 0 0 0-.7.403l.497.054Zm-.51.896.247.436.003-.002-.25-.434Zm-.472.121.007-.5a.5.5 0 0 0-.36.854l.353-.354Zm.002.002v.5a.5.5 0 0 0 .353-.854l-.353.354Zm-.564-.13.203-.458a.5.5 0 0 0-.7.404l.497.053Zm-.51.895.248.434-.248-.434Zm-.47.122.005-.5h-.006v.5Zm-.564-.13.203-.457a.5.5 0 0 0-.7.405l.497.052Zm-.273.7-.38-.325a.5.5 0 0 0-.026.616l.406-.291Zm1.136 2.781-.483.13.483-.13Zm.818 9.804.5.02-.5-.02Zm-.092.205-.346-.361.346.36Zm-.208.083v-.5.5Zm-.012 0-.023.5h.023v-.5Zm-.208-.097.368-.338-.368.338Zm-.08-.215.5.02-.5-.02Zm-.764-9.46-.484.126.484-.126Zm-1.08-2.762.408-.289a.502.502 0 0 0-.04-.05l-.368.339Zm-.03-.038.417-.276a.5.5 0 0 0-.51-.215l.094.491Zm-.189.017.007-.5h-.007v.5Zm-.754-.228.25-.432v-.001l-.25.433Zm-1.606-2.782-.5-.003v.002l.5.001Zm.522-1.11.25.432-.25-.433Zm1.034.01-.203.457a.5.5 0 0 0 .7-.403l-.497-.054Zm.51-.898-.25-.434h-.001l.25.434Zm1.033.01-.203.456a.5.5 0 0 0 .7-.403l-.497-.054Zm.51-.898-.25-.434.25.434Zm1.035.01-.204.457a.5.5 0 0 0 .701-.402l-.497-.054Zm.51-.898.25.434h.001l-.25-.434Zm1.035.01-.204.457a.5.5 0 0 0 .7-.403l-.496-.053Zm.51-.899-.25-.433h-.001l.25.433Zm1.033.01-.203.457a.5.5 0 0 0 .7-.403l-.497-.054Zm.51-.897-.249-.434-.002.001.25.433Zm1.226.108.25-.432-.25.433Zm1.606 2.787.5.003v-.002l-.5-.001Zm-.315.941-.364-.343a.5.5 0 0 0-.12.467l.484-.124Zm-.011.185-.466-.182a.5.5 0 0 0 .466.682v-.5Zm.001 0 .459.199a.5.5 0 0 0-.459-.699v.5Zm-1.303 4.412-.488-.109.488.11Zm-.81 10.451-.499.037.499-.037Zm-.07.216.38.324-.38-.324Zm-.202.104.026.5.018-.002-.044-.498Zm-.029.002v.5h.027l-.026-.5Zm-.204-.08-.34.367.34-.367Zm-.096-.198-.499.036v.004l.5-.04Zm1.494-15.226-.5.017a.5.5 0 0 0 .267.426l.233-.443Zm.639.15.057.496a.5.5 0 0 0 .408-.313l-.465-.184Zm-2.181-2.82-.5-.022a.5.5 0 0 0 .236.448l.264-.425Zm.387-.803-.246-.435-.002.001.248.434Zm.338-.086.022-.5h-.014l-.008.5Zm.624.195-.267.423a.925.925 0 0 0 .017.01l.25-.433Zm1.474 2.555.5.002v-.002h-.5Zm-.225.74-.197.46a.5.5 0 0 0 .575-.132l-.378-.328Zm-.202-.012-.14-.48.14.48Zm-.174.133.416.277a.367.367 0 0 0 .01-.017l-.426-.26Zm-.003.004-.416-.277a.505.505 0 0 0-.04.072l.456.205Zm-.955-.231-.297.402a.5.5 0 0 0 .794-.459l-.497.057Zm-1.252-2.166.297-.402a.5.5 0 0 0-.794.459l.497-.057Zm-.277-.177.5-.016a.5.5 0 0 0-.262-.424l-.238.44Zm1.542 2.671.5.02a.5.5 0 0 0-.236-.444l-.264.424Zm-2.096-2.824.02-.5h-.014l-.006.5Zm-.337.086-.246-.436-.002.002.248.434Zm-.386.807-.5-.02a.5.5 0 0 0 .235.444l.265-.424Zm1.539 2.664-.5.017a.5.5 0 0 0 .266.425l.234-.442Zm.894.07.249.433-.25-.433Zm-6.022 3.424-.093.491a.5.5 0 0 0 .465-.157l-.372-.334Zm.23-.676.5.021a.5.5 0 0 0-.235-.446l-.265.425Zm-.307.672-.035-.5.035.5Zm-.198.094.365.342-.365-.342Zm-.065.107.106.489a.5.5 0 0 0 .367-.326l-.473-.163Zm-.779-.177.25-.432-.25.433Zm-1.473-2.55-.5-.002.5.002Zm.39-.884-.247-.435-.003.002.25.433Zm.336-.085.02-.5h-.013l-.007.5Zm.556.153.5-.015a.5.5 0 0 0-.262-.425l-.238.44Zm6.16-.324-.298.402a.5.5 0 0 0 .795-.46l-.497.058Zm-1.249-2.16.298-.402a.5.5 0 0 0-.794.458l.496-.056Zm1.262 2.489.5.02a.5.5 0 0 0-.235-.445l-.265.425Zm-1.54-2.668.5-.015a.5.5 0 0 0-.261-.424l-.24.44Zm1.155 3.473-.25-.433h-.001l.251.432Zm-.894-.069-.5.018a.5.5 0 0 0 .268.425l.232-.443Zm-1.541-2.667-.5-.022a.5.5 0 0 0 .235.447l.265-.425Zm.387-.806-.244-.436-.005.003.25.433Zm.337-.084-.01.5a.5.5 0 0 0 .51-.5h-.5Zm0-.002.022-.5a.5.5 0 0 0-.522.5h.5Zm.538 3.383-.298.401a.5.5 0 0 0 .795-.459l-.497.058Zm-1.25-2.162.297-.402a.5.5 0 0 0-.794.459l.497-.057Zm-.277-.178.5-.015a.5.5 0 0 0-.26-.423l-.24.438Zm1.54 2.668.5.02a.5.5 0 0 0-.236-.444l-.264.424ZM37.8 23.031l.023-.5a.5.5 0 0 0-.523.5h.5Zm0 .001-.007.5a.5.5 0 0 0 .507-.5h-.5Zm-.338.086-.245-.435-.003.002.248.433Zm-.387.804-.5-.023a.5.5 0 0 0 .236.448l.264-.425Zm1.542 2.668-.5.017a.5.5 0 0 0 .267.426l.233-.443Zm.892.068-.248-.434-.004.002.252.432Zm-1.17-.243-.297.403a.5.5 0 0 0 .794-.46l-.497.057Zm-1.252-2.165.297-.402a.5.5 0 0 0-.794.46l.497-.058Zm1.265 2.493.5.02a.5.5 0 0 0-.236-.445l-.264.425Zm-1.542-2.67.5-.016a.5.5 0 0 0-.262-.423l-.238.44Zm1.156 3.473-.248-.435-.003.002.251.433Zm-.894-.068-.5.017a.5.5 0 0 0 .268.426l.232-.443Zm-1.54-2.667-.499-.02a.5.5 0 0 0 .235.445l.265-.425Zm.387-.805-.245-.436-.003.002.248.434Zm.337-.086.021-.5h-.015l-.006.5Zm.538 3.382-.297.402a.5.5 0 0 0 .794-.459l-.497.057Zm-1.249-2.162.298-.402a.5.5 0 0 0-.795.457l.497-.055Zm7.492-.467c.238.105.488.17.74.174l.016-1a.913.913 0 0 1-.35-.088l-.406.914Zm-.057.873c.465-.268.701-.75.757-1.277l-.994-.106c-.033.305-.15.45-.263.516l.5.867Zm-.725.187a1.43 1.43 0 0 0 .721-.186l-.492-.87a.432.432 0 0 1-.218.056l-.011 1Zm-.763-.174c.25.111.51.174.769.174v-1a.9.9 0 0 1-.362-.087l-.407.913Zm-.056.873c.464-.267.702-.749.757-1.277l-.995-.104c-.031.304-.148.45-.26.514l.498.867Zm-.724.19c.254.002.504-.064.724-.19l-.498-.867a.431.431 0 0 1-.219.057l-.007 1Zm-.764-.174a1.9 1.9 0 0 0 .768.174v-1a.9.9 0 0 1-.361-.088l-.407.914Zm-.057.873c.465-.267.7-.75.757-1.276l-.994-.108c-.033.308-.15.453-.261.517l.498.867Zm-.728.187c.253.004.504-.06.725-.185l-.492-.87a.434.434 0 0 1-.22.055l-.014 1Zm.361-.852-.001-.002-.707.708.002.002.706-.708Zm-1.12.68c.247.11.506.174.767.174v-1a.897.897 0 0 1-.36-.088l-.407.914Zm-.058.873c.466-.267.702-.75.758-1.277l-.994-.106c-.033.306-.15.451-.26.515l.496.868Zm-.725.188a1.43 1.43 0 0 0 .724-.188l-.496-.868a.43.43 0 0 1-.217.056l-.011 1Zm-.761-.173c.248.11.507.173.766.173v-1a.898.898 0 0 1-.36-.087l-.406.914Zm.31.567c.23-.269.352-.61.39-.972l-.995-.104c-.022.21-.086.346-.155.427l.76.649Zm1.239 2.327c-.451-1.676-.968-2.601-1.212-2.942l-.813.582c.158.22.631 1.03 1.06 2.62l.965-.26Zm.835 9.954c.195-4.925-.34-8.122-.835-9.954l-.966.26c.467 1.724.993 4.819.802 9.654l.999.04Zm-.246.545a.8.8 0 0 0 .246-.545l-1-.04a.2.2 0 0 1 .062-.136l.692.721Zm-.555.223a.8.8 0 0 0 .555-.223l-.692-.721a.2.2 0 0 1 .138-.056v1Zm-.011 0h.012v-1h-.012v1Zm-.577-.259a.8.8 0 0 0 .555.259l.044-1a.2.2 0 0 1 .138.065l-.737.676Zm-.21-.574a.8.8 0 0 0 .21.575l.737-.677a.2.2 0 0 1 .053.143l-1-.04Zm-.75-9.313c.439 1.687.933 4.691.75 9.314l1 .04c.185-4.712-.317-7.815-.781-9.605l-.968.25Zm-1.003-2.599s.01.013.026.04c.017.026.04.064.07.116.057.103.138.257.233.467.191.42.439 1.066.675 1.976l.968-.251c-.5-1.926-1.066-2.799-1.156-2.926l-.816.578Zm-.038-.05c.023.035.05.068.079.1l.735-.678a.207.207 0 0 1 .02.025l-.834.552Zm.22.24c.098.001.196-.008.291-.026l-.189-.982a.431.431 0 0 1-.088.008l-.013 1Zm-.998-.296c.32.187.663.296 1.005.296v-1c-.128 0-.299-.042-.503-.16l-.502.864Zm-1.855-3.215c-.002.619.212 1.272.535 1.832.322.56.782 1.073 1.321 1.384l.5-.866c-.352-.203-.697-.57-.955-1.018-.259-.448-.403-.929-.401-1.33l-1-.002Zm.772-1.543c-.543.313-.769.912-.772 1.541l1 .006c.002-.419.145-.607.272-.68l-.5-.867Zm1.487-.013c-.485-.215-1.024-.254-1.487.013l.5.866c.108-.062.295-.092.581.035l.406-.914Zm.056-.874c-.462.267-.7.75-.756 1.277l.994.108c.033-.308.151-.455.263-.52l-.501-.865Zm1.487-.015c-.484-.214-1.022-.253-1.486.014l.5.867c.11-.064.296-.093.58.033l.406-.914Zm.057-.873c-.463.266-.7.75-.757 1.277l.994.107c.034-.308.152-.454.261-.517l-.498-.867Zm1.49-.013c-.485-.216-1.021-.256-1.49.012l.498.868c.115-.066.3-.093.583.033l.408-.913Zm.057-.876c-.466.267-.702.752-.759 1.279l.994.108c.034-.31.152-.456.262-.519l-.497-.868Zm1.486-.012c-.486-.217-1.024-.255-1.488.014l.501.865c.11-.063.295-.093.58.034l.407-.913Zm.056-.875c-.463.268-.7.75-.756 1.278l.994.107c.033-.308.151-.455.263-.52l-.501-.865Zm1.487-.015c-.484-.214-1.022-.253-1.486.014l.499.867c.11-.064.297-.093.581.033l.406-.914Zm.056-.873c-.462.267-.699.749-.756 1.276l.994.108c.033-.307.151-.454.263-.518l-.501-.866Zm1.728.109c-.547-.316-1.18-.422-1.726-.11l.496.868c.13-.075.367-.102.73.107l.5-.865Zm1.855 3.22c.001-.62-.213-1.275-.536-1.835-.323-.56-.782-1.074-1.32-1.385l-.5.865c.35.203.695.57.954 1.02.258.448.403.93.402 1.333l1 .002Zm-.451 1.283c.315-.335.449-.798.451-1.281l-1-.006c-.001.317-.088.505-.18.601l.729.686Zm-.849-.219a.198.198 0 0 1 .008-.121l.931.364a.802.802 0 0 0 .03-.491l-.968.248Zm.474.561h.001v-1h-.001v1Zm-.458-.699c-.031.073-.72 1.756-1.332 4.502l.977.218a33.79 33.79 0 0 1 .857-3.16 22.275 22.275 0 0 1 .416-1.162l-.918-.398ZM42.68 28.55c-.545 2.458-1.133 6.294-.82 10.596l.997-.073c-.304-4.175.267-7.908.8-10.307l-.977-.216Zm-.82 10.597a.201.201 0 0 1 .047-.145l.762.647a.799.799 0 0 0 .188-.577l-.998.075Zm.047-.145a.201.201 0 0 1 .135-.07l.088.995a.799.799 0 0 0 .539-.278L41.906 39Zm.153-.072-.029.002.053.998.028-.001-.052-.999Zm-.002 0a.2.2 0 0 1 .134.054l-.678.734a.802.802 0 0 0 .543.213l.001-1Zm.134.054a.19.19 0 0 1 .063.13l-.996.08c.016.2.107.387.255.524l.678-.734Zm.064.133c-.522-7.21 1.452-13.124 2-14.596l-.938-.348c-.57 1.535-2.596 7.604-2.06 15.016l.998-.072Zm.762-14.747c.292.153.612.24.93.203l-.115-.993c-.062.007-.179-.006-.35-.095l-.465.885Zm-1.573-2.688c.333.208.658.56.903.986.246.425.39.883.403 1.276l1-.033c-.02-.592-.229-1.21-.537-1.743-.308-.533-.738-1.023-1.242-1.335l-.527.85Zm.403-1.662c-.444.254-.617.742-.639 1.215l.999.045c.014-.297.11-.377.136-.392l-.496-.868Zm.594-.152a1.167 1.167 0 0 0-.592.15l.492.872a.166.166 0 0 1 .084-.022l.016-1Zm.882.272a1.776 1.776 0 0 0-.868-.271l-.044.999a.775.775 0 0 1 .38.118l.532-.846Zm1.708 2.978c0-.577-.2-1.184-.498-1.703-.3-.519-.725-.996-1.227-1.285l-.499.866c.313.18.625.511.86.918.234.407.364.843.364 1.204h1Zm-.347 1.068c.25-.288.346-.676.347-1.066l-1-.003c0 .246-.063.368-.102.413l.755.656Zm-.442.14a.198.198 0 0 1-.133-.008l.394-.92a.802.802 0 0 0-.538-.032l.277.96Zm.114-.087a.198.198 0 0 1-.114.087l-.277-.96a.802.802 0 0 0-.462.352l.853.521Zm-.013.021.003-.004-.832-.554-.004.004.833.555Zm.01 0 .026-.061.006-.015v-.002l-.002.007-.912-.41a2.055 2.055 0 0 0-.047.114l.93.367Zm-.884-.565c-.108-.937-.692-1.95-1.452-2.511l-.594.804c.536.397.976 1.159 1.052 1.82l.994-.113Zm-2.246-2.052c.107.936.693 1.949 1.452 2.51l.595-.803c-.537-.398-.978-1.16-1.053-1.82l-.994.113Zm-.28-.218c.018.591.227 1.208.535 1.742.308.534.739 1.025 1.243 1.338l.528-.85c-.334-.207-.66-.562-.905-.987-.246-.426-.39-.884-.402-1.275l-1 .032Zm-.076.33a.775.775 0 0 1 .337.094l.477-.88a1.775 1.775 0 0 0-.771-.213l-.043 1Zm-.07.022a.167.167 0 0 1 .085-.021l.013-1a1.166 1.166 0 0 0-.589.15l.492.871Zm-.132.392c.012-.298.11-.378.135-.393l-.496-.868c-.445.254-.619.744-.638 1.22l1 .04Zm1.54 2.627c-.021-.59-.23-1.206-.537-1.738-.307-.532-.736-1.02-1.238-1.334l-.529.849c.332.207.656.56.901.985.245.424.39.881.403 1.272l1-.034Zm.145-.346c-.03.017-.151.059-.412-.079l-.467.884c.424.224.934.316 1.377.061l-.498-.866Zm.136-.39c-.012.292-.108.373-.137.39l.5.866c.44-.253.617-.737.636-1.216l-1-.04Zm-5.537 4.581c.241-.268.343-.627.358-.989l-1-.042c-.009.218-.066.323-.102.363l.744.668Zm-.414.16a.198.198 0 0 1-.05-.003l.184-.982a.802.802 0 0 0-.204-.012l.07.997Zm.132-.062a.2.2 0 0 1-.132.062l-.07-.997a.8.8 0 0 0-.529.252l.73.683Zm.043-.072a.2.2 0 0 1-.043.072l-.73-.683a.8.8 0 0 0-.173.285l.946.326Zm-1.502.093c.35.204.75.317 1.136.233l-.213-.977c-.058.013-.199.008-.422-.121l-.501.865Zm-1.723-2.985c-.002.577.198 1.184.497 1.701.299.518.725.995 1.226 1.284l.5-.865c-.314-.182-.626-.513-.86-.919-.235-.406-.364-.84-.363-1.198l-1-.003Zm.64-1.315c-.47.27-.638.804-.64 1.315l1 .003c.001-.34.11-.435.139-.451l-.5-.867Zm.593-.152a1.17 1.17 0 0 0-.59.15l.492.87a.165.165 0 0 1 .084-.02l.014-1Zm.787.213a1.779 1.779 0 0 0-.773-.213l-.042 1a.777.777 0 0 1 .338.093l.477-.88Zm1.567 2.685c-.335-.208-.66-.562-.905-.988-.246-.425-.389-.882-.4-1.272l-1 .03c.018.591.226 1.208.534 1.742.308.534.738 1.023 1.242 1.337l.529-.849Zm4.852-2.626c-.109-.935-.692-1.945-1.448-2.505l-.595.803c.533.396.973 1.156 1.05 1.817l.993-.115Zm-2.242-2.047c.106.934.689 1.944 1.447 2.506l.596-.803c-.537-.398-.975-1.158-1.05-1.816l-.993.113Zm2.023 2.008c-.335-.208-.66-.562-.905-.987-.246-.425-.389-.882-.4-1.271l-1 .03c.018.591.226 1.208.534 1.74.308.534.738 1.023 1.242 1.337l.529-.849Zm-.399 1.662c.44-.255.614-.74.634-1.217l-1-.04c-.011.295-.108.376-.135.392l.501.865Zm-1.377-.058c.426.223.937.314 1.378.058l-.503-.865c-.026.015-.146.06-.41-.079l-.465.886Zm-1.574-2.685c.333.207.657.56.903.985.245.425.39.882.403 1.275l1-.035c-.02-.592-.23-1.208-.538-1.74-.307-.533-.737-1.021-1.24-1.334l-.528.849Zm.403-1.664c-.441.254-.617.741-.638 1.217l.999.045c.013-.297.11-.38.138-.395l-.5-.867Zm.595-.151a1.164 1.164 0 0 0-.59.148l.488.873a.164.164 0 0 1 .084-.021l.018-1Zm-.51.498v.002h1v-.002h-1Zm1.296-.284a1.778 1.778 0 0 0-.773-.215l-.044.999a.78.78 0 0 1 .338.094l.479-.878Zm.24 3.61c-.108-.936-.692-1.947-1.45-2.507l-.594.804c.534.396.974 1.156 1.05 1.817l.994-.115Zm-2.244-2.048c.107.935.692 1.945 1.45 2.506l.595-.803c-.537-.397-.976-1.158-1.051-1.817l-.994.114Zm-.28-.22c.018.592.226 1.209.534 1.742.308.534.738 1.023 1.243 1.336l.527-.85c-.334-.207-.659-.561-.904-.986-.245-.425-.389-.881-.4-1.272l-1 .03Zm-.078.33a.775.775 0 0 1 .337.094l.48-.877c-.236-.13-.5-.204-.77-.217l-.047 1Zm.523-.499v-.001h-1v.001h1Zm-.592.522a.167.167 0 0 1 .085-.022l.015-1a1.166 1.166 0 0 0-.591.151l.49.87Zm-.134.39c.013-.296.11-.376.137-.392l-.497-.867c-.443.253-.618.74-.639 1.215l1 .044Zm1.543 2.63c-.02-.592-.229-1.209-.537-1.742-.308-.533-.738-1.023-1.242-1.335l-.527.85c.334.207.658.56.903.985.246.425.39.883.403 1.275l1-.034Zm.14-.348c-.026.015-.145.06-.408-.079l-.465.886c.426.223.936.313 1.376.057l-.502-.864Zm.139-.391c-.011.294-.109.374-.135.389l.495.869c.444-.253.62-.741.64-1.22l-1-.038Zm-.56.523c-.107-.937-.691-1.948-1.452-2.51l-.594.805c.537.396.977 1.158 1.053 1.82l.993-.115Zm-2.245-2.05c.107.935.691 1.948 1.451 2.51l.594-.805c-.536-.396-.976-1.16-1.052-1.82l-.994.114Zm2.025 2.01c-.334-.207-.66-.562-.905-.987-.246-.426-.39-.883-.401-1.274l-1 .032c.019.591.227 1.208.535 1.742.308.534.74 1.024 1.244 1.337l.527-.85Zm-.402 1.662c.443-.252.62-.74.638-1.217l-1-.04c-.01.294-.108.373-.133.388l.495.87Zm-1.374-.06c.425.223.937.314 1.377.058l-.502-.865c-.027.016-.147.06-.411-.078l-.464.886Zm-1.572-2.684c.333.207.657.56.902.985.245.425.39.882.402 1.274l1-.034c-.02-.59-.229-1.207-.536-1.74-.307-.532-.737-1.02-1.239-1.334l-.529.849Zm.403-1.664c-.444.254-.618.742-.638 1.219l1 .04c.012-.297.108-.376.135-.391l-.497-.868Zm.591-.152a1.18 1.18 0 0 0-.589.15l.492.872a.167.167 0 0 1 .084-.022l.013-1Zm.786.214a1.776 1.776 0 0 0-.77-.214l-.044 1a.776.776 0 0 1 .337.093l.477-.88Zm.243 3.611c-.108-.935-.692-1.944-1.447-2.507l-.597.803c.535.398.975 1.16 1.05 1.819l.994-.115Zm-2.243-2.05c.105.936.69 1.947 1.449 2.51l.595-.804c-.537-.398-.976-1.16-1.05-1.817l-.994.111Z" fill="#101828"/></svg>