<svg width="24" height="24" viewBox="0 0 24 24" fill="none" xmlns="http://www.w3.org/2000/svg">
<mask id="mask0_2082_9354" style="mask-type:luminance" maskUnits="userSpaceOnUse" x="0" y="3" width="24" height="18">
<path d="M0 3H24V21H0V3Z" fill="white"/>
</mask>
<g mask="url(#mask0_2082_9354)">
<path fill-rule="evenodd" clip-rule="evenodd" d="M0 3V21H24V3H0Z" fill="#FFB400"/>
<mask id="mask1_2082_9354" style="mask-type:luminance" maskUnits="userSpaceOnUse" x="0" y="3" width="24" height="18">
<path fill-rule="evenodd" clip-rule="evenodd" d="M0 3V21H24V3H0Z" fill="white"/>
</mask>
<g mask="url(#mask1_2082_9354)">
<path fill-rule="evenodd" clip-rule="evenodd" d="M0 3V7.5H24V3H0ZM0 16.5V21H24V16.5H0Z" fill="#D92D20"/>
<path d="M3.7561 10.704H4.5961V15.072H3.7561V10.704Z" fill="#F2F4F7"/>
<path fill-rule="evenodd" clip-rule="evenodd" d="M4.93192 9.948H3.41992V10.368H3.67192V10.704H4.67992V10.368H4.93192V9.948ZM4.67992 15.324H4.93192V15.744H3.41992V15.324H3.67192V14.988H4.67992V15.324Z" fill="#F79009"/>
<path fill-rule="evenodd" clip-rule="evenodd" d="M4.17589 10.032C4.35889 10.032 4.37764 9.96303 4.48489 9.86028C4.56889 9.78078 4.76389 9.68178 4.76389 9.57003C4.76389 9.31503 4.50064 9.10803 4.17589 9.10803C3.85114 9.10803 3.58789 9.31503 3.58789 9.57003C3.58789 9.69453 3.72289 9.77703 3.82414 9.86028C3.93064 9.94803 4.00864 10.032 4.17589 10.032Z" fill="#D92D20"/>
<path fill-rule="evenodd" clip-rule="evenodd" d="M3.41992 15.744H4.93192V16.416C4.93192 16.416 4.74292 16.332 4.55392 16.332C4.36492 16.332 4.17592 16.416 4.17592 16.416C4.17592 16.416 3.98692 16.332 3.79792 16.332C3.60892 16.332 3.41992 16.416 3.41992 16.416V15.744Z" fill="#0B70FE"/>
<mask id="mask2_2082_9354" style="mask-type:luminance" maskUnits="userSpaceOnUse" x="3" y="15" width="2" height="2">
<path fill-rule="evenodd" clip-rule="evenodd" d="M3.41992 15.744H4.93192V16.416C4.93192 16.416 4.74292 16.332 4.55392 16.332C4.36492 16.332 4.17592 16.416 4.17592 16.416C4.17592 16.416 3.98692 16.332 3.79792 16.332C3.60892 16.332 3.41992 16.416 3.41992 16.416V15.744Z" fill="white"/>
</mask>
<g mask="url(#mask2_2082_9354)">
<path d="M3.40653 16.2841L3.37354 16.2038C3.502 16.1446 3.64159 16.1134 3.78304 16.1123C3.87154 16.1123 3.91804 16.1251 3.99604 16.1596C4.05161 16.1882 4.11357 16.2021 4.17603 16.2001C4.2385 16.2021 4.30046 16.1882 4.35604 16.1596C4.42224 16.1263 4.49571 16.11 4.56978 16.1123C4.70628 16.1123 4.84279 16.1423 4.97929 16.2038L4.94628 16.2841C4.82813 16.2298 4.69981 16.2012 4.56978 16.2001C4.50732 16.198 4.44537 16.212 4.38979 16.2406C4.32358 16.2739 4.25011 16.2901 4.17603 16.2878C4.10221 16.29 4.02901 16.2738 3.96303 16.2406C3.90746 16.212 3.8455 16.198 3.78304 16.2001C3.65779 16.2001 3.53253 16.2278 3.40653 16.2841ZM3.40653 16.0321L3.37354 15.9518C3.502 15.8926 3.64159 15.8614 3.78304 15.8603C3.87154 15.8603 3.91804 15.8731 3.99604 15.9076C4.05161 15.9362 4.11357 15.9501 4.17603 15.9481C4.2385 15.9501 4.30046 15.9362 4.35604 15.9076C4.42224 15.8743 4.49571 15.858 4.56978 15.8603C4.70628 15.8603 4.84279 15.8903 4.97929 15.9518L4.94628 16.0321C4.82813 15.9778 4.69981 15.9492 4.56978 15.9481C4.50732 15.946 4.44537 15.96 4.38979 15.9886C4.32358 16.0219 4.25011 16.0381 4.17603 16.0358C4.10221 16.038 4.02901 16.0218 3.96303 15.9886C3.90746 15.96 3.8455 15.946 3.78304 15.9481C3.65779 15.9481 3.53253 15.9758 3.40653 16.0321Z" fill="white"/>
</g>
<path d="M11.988 10.704H12.828V15.072H11.988V10.704Z" fill="#F2F4F7"/>
<path fill-rule="evenodd" clip-rule="evenodd" d="M13.1641 9.948H11.6521V10.368H11.9041V10.704H12.9121V10.368H13.1641V9.948ZM12.9121 15.324H13.1641V15.744H11.6521V15.324H11.9041V14.988H12.9121V15.324Z" fill="#F79009"/>
<path fill-rule="evenodd" clip-rule="evenodd" d="M12.4081 10.032C12.5911 10.032 12.6091 9.96303 12.7171 9.86028C12.8011 9.78078 12.9961 9.68178 12.9961 9.57003C12.9961 9.31503 12.7328 9.10803 12.4081 9.10803C12.0833 9.10803 11.8201 9.31503 11.8201 9.57003C11.8201 9.69453 11.9551 9.77703 12.0563 9.86028C12.1628 9.94803 12.2416 10.032 12.4081 10.032Z" fill="#D92D20"/>
<path fill-rule="evenodd" clip-rule="evenodd" d="M11.6521 15.744H13.1641V16.416C13.1641 16.416 12.9751 16.332 12.7861 16.332C12.5971 16.332 12.4081 16.416 12.4081 16.416C12.4081 16.416 12.2191 16.332 12.0301 16.332C11.8411 16.332 11.6521 16.416 11.6521 16.416V15.744Z" fill="#0B70FE"/>
<mask id="mask3_2082_9354" style="mask-type:luminance" maskUnits="userSpaceOnUse" x="11" y="15" width="3" height="2">
<path fill-rule="evenodd" clip-rule="evenodd" d="M11.6521 15.744H13.1641V16.416C13.1641 16.416 12.9751 16.332 12.7861 16.332C12.5971 16.332 12.4081 16.416 12.4081 16.416C12.4081 16.416 12.2191 16.332 12.0301 16.332C11.8411 16.332 11.6521 16.416 11.6521 16.416V15.744Z" fill="white"/>
</mask>
<g mask="url(#mask3_2082_9354)">
<path d="M11.6387 16.2841L11.6057 16.2038C11.7342 16.1446 11.8738 16.1134 12.0152 16.1123C12.1037 16.1123 12.1502 16.1251 12.2282 16.1596C12.2838 16.1882 12.3457 16.2021 12.4082 16.2001C12.4707 16.2021 12.5326 16.1882 12.5882 16.1596C12.6544 16.1263 12.7279 16.11 12.802 16.1123C12.9385 16.1123 13.075 16.1423 13.2115 16.2038L13.1785 16.2841C13.0603 16.2298 12.932 16.2012 12.802 16.2001C12.7395 16.198 12.6775 16.212 12.622 16.2406C12.5558 16.2739 12.4823 16.2901 12.4082 16.2878C12.3344 16.29 12.2612 16.2738 12.1952 16.2406C12.1396 16.212 12.0777 16.198 12.0152 16.2001C11.89 16.2001 11.7647 16.2278 11.6387 16.2841ZM11.6387 16.0321L11.6057 15.9518C11.7342 15.8926 11.8738 15.8614 12.0152 15.8603C12.1037 15.8603 12.1502 15.8731 12.2282 15.9076C12.2838 15.9362 12.3457 15.9501 12.4082 15.9481C12.4707 15.9501 12.5326 15.9362 12.5882 15.9076C12.6544 15.8743 12.7279 15.858 12.802 15.8603C12.9385 15.8603 13.075 15.8903 13.2115 15.9518L13.1785 16.0321C13.0603 15.9778 12.932 15.9492 12.802 15.9481C12.7395 15.946 12.6775 15.96 12.622 15.9886C12.5558 16.0219 12.4823 16.0381 12.4082 16.0358C12.3344 16.038 12.2612 16.0218 12.1952 15.9886C12.1396 15.96 12.0777 15.946 12.0152 15.9481C11.89 15.9481 11.7647 15.9758 11.6387 16.0321Z" fill="white"/>
</g>
<path fill-rule="evenodd" clip-rule="evenodd" d="M3.74089 14.76C3.89239 14.5762 3.97714 14.409 3.97714 14.232C3.97871 14.1288 3.94659 14.028 3.88564 13.9447L3.89539 13.9402C3.89464 13.9402 4.06114 13.8675 4.11964 13.8397C4.22339 13.7907 4.32254 13.7325 4.41589 13.6657C4.47514 13.6222 4.55464 13.5757 4.67539 13.5105L4.78939 13.4505L4.82014 13.4332C4.87864 13.4025 4.92289 13.3785 4.96339 13.3545C5.09089 13.281 5.17414 13.2195 5.23864 13.1385C5.27568 13.0946 5.30287 13.0433 5.31837 12.988C5.33388 12.9327 5.33734 12.8748 5.32853 12.818C5.31971 12.7613 5.29882 12.7071 5.26727 12.6591C5.23572 12.6112 5.19424 12.5705 5.14564 12.54C5.04139 12.4687 4.90114 12.4282 4.69489 12.396L4.65214 12.39C4.47958 12.3629 4.30708 12.3354 4.13464 12.3075C4.65064 12.2212 5.38789 12.2527 5.71264 12.42L6.02014 11.823C5.36014 11.4817 3.85339 11.5162 3.29089 11.904C2.87839 12.1882 2.93389 12.618 3.36289 12.8025C3.54289 12.8797 3.77614 12.9315 4.20889 13.0005C4.14407 13.0377 4.08124 13.0782 4.02064 13.122C3.96051 13.1653 3.89648 13.203 3.82939 13.2345L3.64189 13.3177L3.61714 13.3282C3.26764 13.4872 3.09739 13.707 3.14839 14.1045L3.17614 14.3197L3.22489 14.3347L3.74089 14.76ZM3.30889 14.205L3.30739 14.2072L3.30814 14.2057V14.2042L3.30889 14.205ZM12.5294 14.232C12.5294 14.409 12.6141 14.577 12.7656 14.76L13.2816 14.3347L13.3304 14.3197L13.3581 14.1045C13.4084 13.707 13.2389 13.4872 12.8894 13.3282L12.8654 13.3177C12.8174 13.2967 12.7124 13.2502 12.6779 13.2337C12.6106 13.2025 12.5463 13.1651 12.4859 13.122C12.425 13.0782 12.362 13.0376 12.2969 13.0005C12.7296 12.9315 12.9644 12.8805 13.1429 12.8025C13.5726 12.618 13.6281 12.1875 13.2149 11.904C12.6524 11.5162 11.1464 11.4817 10.4849 11.823L10.7939 12.42C11.1186 12.2527 11.8559 12.2212 12.3719 12.3075C12.1995 12.3354 12.027 12.3629 11.8544 12.39L11.8116 12.396C11.6054 12.4282 11.4644 12.4695 11.3609 12.54C11.3123 12.5705 11.2708 12.6112 11.2393 12.6591C11.2077 12.7071 11.1868 12.7613 11.178 12.818C11.1692 12.8748 11.1727 12.9327 11.1882 12.988C11.2037 13.0433 11.2309 13.0946 11.2679 13.1385C11.3324 13.2202 11.4164 13.281 11.5431 13.3545C11.5836 13.3785 11.6271 13.4025 11.6856 13.4332L11.7171 13.4497L11.8311 13.5097C11.9519 13.5757 12.0314 13.6222 12.0906 13.6657C12.1836 13.7332 12.2781 13.788 12.3869 13.8397C12.4454 13.8675 12.6119 13.9402 12.6111 13.9402L12.6209 13.9447C12.56 14.028 12.5279 14.1288 12.5294 14.232Z" fill="#D92D20"/>
<path d="M4.44235 12.3L4.6906 12.351V12.7208C4.4266 12.9315 3.7561 13.287 3.7561 13.287V12.3H4.44235ZM12.2364 12.3L11.9881 12.351V12.7208C12.2521 12.9315 12.9226 13.287 12.9226 13.287V12.3H12.2364Z" fill="#F2F4F7"/>
<path fill-rule="evenodd" clip-rule="evenodd" d="M11.0821 8.40447V8.28147C10.6501 7.97172 10.1971 7.81647 9.72461 7.81647C9.29417 7.61961 8.81967 7.53894 8.34836 7.58247V7.58022C7.65086 7.51272 6.94661 7.81647 6.94661 7.81647C6.23711 7.81647 5.58911 8.28147 5.58911 8.28147V8.40447L6.43661 9.25497C6.43661 9.25497 6.67511 10.074 8.34536 9.88197V9.88422C8.34536 9.88422 9.45086 9.85422 9.52811 9.82797C9.55961 9.81747 9.59111 9.80847 9.62411 9.79872C9.84086 9.73572 10.0876 9.66372 10.2346 9.25497L11.0821 8.40447ZM8.34461 7.62072C8.32061 7.90347 8.18336 9.61122 8.34461 9.87597V7.62072Z" fill="#D92D20"/>
<path fill-rule="evenodd" clip-rule="evenodd" d="M6.23539 9.11247V9.10947L5.63989 8.54847L5.69764 8.48772L6.25639 9.01347L6.27139 8.94822C6.33553 8.96482 6.40166 8.9724 6.46789 8.97072V8.85747L6.59239 8.92497C6.65314 8.95797 6.74089 8.96697 6.85489 8.94747C6.94039 8.93397 6.99739 8.83572 7.01539 8.62722L7.05289 8.20497L7.17964 8.60997C7.23664 8.79222 7.32364 8.87247 7.44814 8.87247C7.56889 8.87247 7.61764 8.82897 7.62289 8.71647L7.63789 8.39922L7.78189 8.68272C7.83364 8.78472 7.90489 8.83122 8.00689 8.83122C8.15164 8.83122 8.24839 8.71047 8.24839 8.52072H8.41939C8.41939 8.71047 8.51614 8.83122 8.66089 8.83122C8.76289 8.83122 8.83339 8.78472 8.88589 8.68272L9.02914 8.39922L9.04414 8.71647C9.05014 8.82897 9.09889 8.87322 9.21964 8.87322C9.34414 8.87322 9.43114 8.79222 9.48814 8.60922L9.61414 8.20422L9.65164 8.62722C9.67039 8.83572 9.72739 8.93472 9.81214 8.94822C9.92689 8.96697 10.0146 8.95797 10.0754 8.92497L10.1991 8.85747V8.97147C10.2659 8.97329 10.3325 8.96571 10.3971 8.94897L10.4234 9.07122L11.0421 8.48847L11.0999 8.54922L10.3296 9.27447C10.2171 9.48147 10.1601 9.61797 10.1601 9.67497C10.1601 9.76122 9.93514 9.81297 9.49564 9.86547C9.15064 9.90672 8.74489 9.93447 8.41189 9.93897H8.32789C7.96564 9.93262 7.60394 9.90809 7.24414 9.86547C6.80464 9.81297 6.57889 9.76122 6.57889 9.67497C6.57847 9.66129 6.57645 9.6477 6.57289 9.63447C6.5263 9.56384 6.49371 9.48491 6.47689 9.40197C6.45536 9.3591 6.43311 9.31659 6.41014 9.27447L6.23989 9.11247L6.23614 9.11172L6.23539 9.11247ZM10.3641 9.12597C10.2269 9.14997 10.1271 9.14772 10.0746 9.10497C9.97989 9.1289 9.88101 9.13146 9.78514 9.11247C9.66739 9.09372 9.58489 9.01497 9.53539 8.88522C9.47645 8.96471 9.38916 9.01843 9.29164 9.03522C9.82939 9.11022 10.2059 9.21822 10.2059 9.21822C10.2059 9.21822 10.1969 9.29772 10.1744 9.39072C10.1976 9.34197 10.2269 9.28797 10.2591 9.22797L10.2666 9.21747L10.3641 9.12597ZM9.03814 9.00297C8.99238 8.98064 8.9539 8.94579 8.92714 8.90247C8.8876 8.93756 8.84108 8.96388 8.79064 8.97972C8.87539 8.98572 8.95789 8.99472 9.03814 9.00297ZM8.49439 8.96322C8.42866 8.93232 8.37301 8.88343 8.33389 8.82222C8.29507 8.88294 8.23998 8.93154 8.17489 8.96247L8.29039 8.96022H8.35789C8.40364 8.96022 8.44939 8.96172 8.49439 8.96322ZM6.46639 9.21072L6.38839 9.13797C6.48214 9.14697 6.55189 9.13797 6.59314 9.10497C6.67564 9.12897 6.77239 9.13122 6.88264 9.11247C7.00039 9.09372 7.08289 9.01497 7.13164 8.88522C7.18903 8.96205 7.273 9.01473 7.36714 9.03297C6.90364 9.09822 6.55789 9.18672 6.46714 9.21147L6.46639 9.21072ZM7.87339 8.97822C7.79378 8.98415 7.71427 8.9914 7.63489 8.99997C7.67804 8.97752 7.71431 8.94384 7.73989 8.90247C7.77964 8.93697 7.82389 8.96247 7.87339 8.97822ZM9.93964 9.67572C9.99889 9.70347 10.0454 9.67572 10.0829 9.62322C10.0799 9.63631 10.0779 9.64959 10.0769 9.66297C10.0697 9.66735 10.0622 9.67112 10.0544 9.67422C10.0139 9.68952 9.97229 9.70156 9.92989 9.71022C9.78314 9.7412 9.63497 9.76498 9.48589 9.78147C9.12964 9.82422 8.70589 9.85272 8.36989 9.85422C7.99687 9.84955 7.62436 9.82526 7.25389 9.78147C7.10482 9.76498 6.95664 9.7412 6.80989 9.71022C6.77257 9.70246 6.73575 9.69244 6.69964 9.68022C6.7027 9.67884 6.7057 9.67734 6.70864 9.67572C6.89239 9.59022 8.10589 9.50922 8.32414 9.49572C8.54239 9.50922 9.75664 9.59022 9.93964 9.67572Z" fill="#F79009"/>
<path fill-rule="evenodd" clip-rule="evenodd" d="M8.17058 8.24774C8.17544 8.27412 8.1835 8.29981 8.19458 8.32424C8.1586 8.31077 8.12049 8.30391 8.08208 8.30399C7.96583 8.30399 7.87208 8.36099 7.87208 8.42999C7.87208 8.49974 7.96583 8.55599 8.08208 8.55599C8.19833 8.55599 8.29208 8.49974 8.29208 8.42999C8.29208 8.49974 8.38658 8.55599 8.50208 8.55599C8.61833 8.55599 8.71208 8.49974 8.71208 8.42999C8.71208 8.36099 8.61833 8.30399 8.50208 8.30399C8.47425 8.30404 8.44653 8.30756 8.41958 8.31449C8.42604 8.27646 8.42553 8.23758 8.41808 8.19974C8.39558 8.08574 8.32208 8.00474 8.25383 8.01749C8.18633 8.03099 8.14883 8.13374 8.17058 8.24774ZM6.93458 8.40749C6.9236 8.38328 6.91554 8.35785 6.91058 8.33174C6.88808 8.21774 6.92558 8.11424 6.99383 8.10149C7.06208 8.08799 7.13633 8.16899 7.15808 8.28374C7.16558 8.32424 7.16558 8.36399 7.15958 8.39849C7.18653 8.39156 7.21425 8.38804 7.24208 8.38799C7.35833 8.38799 7.45208 8.44499 7.45208 8.51399C7.45208 8.58374 7.35833 8.63999 7.24208 8.63999C7.12583 8.63999 7.03208 8.58374 7.03208 8.51399C7.03208 8.58374 6.93833 8.63999 6.82208 8.63999C6.70583 8.63999 6.61208 8.58374 6.61208 8.51399C6.61208 8.44499 6.70583 8.38799 6.82208 8.38799C6.86333 8.38799 6.90233 8.39474 6.93458 8.40749ZM9.56558 8.48474C9.55583 8.55374 9.45533 8.59649 9.34058 8.57999C9.22508 8.56424 9.14033 8.49524 9.14933 8.42624C9.15908 8.35724 9.26033 8.31449 9.37508 8.33099C9.41311 8.33584 9.44995 8.34753 9.48383 8.36549C9.47616 8.33988 9.47162 8.31344 9.47033 8.28674C9.46433 8.17124 9.51533 8.07449 9.58508 8.07074C9.65483 8.06699 9.71633 8.15774 9.72233 8.27324C9.72461 8.31204 9.71978 8.35093 9.70808 8.38799C9.73553 8.38507 9.76325 8.38558 9.79058 8.38949C9.90608 8.40524 9.99158 8.47424 9.98183 8.54324C9.97208 8.61224 9.87083 8.65499 9.75608 8.63849C9.64133 8.62274 9.55583 8.55374 9.56558 8.48474ZM10.3651 8.81774C10.4678 8.87249 10.5773 8.86649 10.6096 8.80499L10.6118 8.80199C10.6215 8.81239 10.6336 8.82014 10.6471 8.82449C10.7146 8.84474 10.7956 8.77199 10.8293 8.66024C10.8631 8.54924 10.8368 8.44274 10.7701 8.42249C10.7033 8.40224 10.6223 8.47574 10.5886 8.58674C10.5804 8.61229 10.5754 8.63873 10.5736 8.66549C10.548 8.63701 10.5175 8.61338 10.4836 8.59574C10.3816 8.54099 10.2721 8.54699 10.2391 8.60774C10.2068 8.66924 10.2631 8.76374 10.3651 8.81774ZM6.24383 8.84399C6.14108 8.89799 6.03158 8.89274 5.99933 8.83124C5.9988 8.83 5.9983 8.82875 5.99783 8.82749C5.988 8.838 5.97559 8.84576 5.96183 8.84999C5.89508 8.87024 5.81408 8.79749 5.77958 8.68649C5.74583 8.57549 5.77208 8.46899 5.83958 8.44874C5.90558 8.42849 5.98733 8.50124 6.02108 8.61224C6.02896 8.63782 6.03375 8.66426 6.03533 8.69099C6.06089 8.66251 6.09138 8.63888 6.12533 8.62124C6.22808 8.56649 6.33758 8.57249 6.36983 8.63399C6.40283 8.69549 6.34583 8.78924 6.24383 8.84399ZM8.24033 6.05774H8.41508V6.16799H8.52983V6.34274H8.41508V6.69299H8.52983V6.86774H8.12408V6.69299H8.24033V6.34274H8.12408V6.16799H8.24033V6.05774Z" fill="#F79009"/>
<path d="M8.20801 7.00806H8.54401V8.10006H8.20801V7.00806Z" fill="#F79009"/>
<path d="M5.74491 8.27774L5.58666 8.33399C5.42166 7.86524 5.46891 7.54724 5.75016 7.40999C5.99766 7.28999 6.35841 7.24049 6.83466 7.25999L6.82716 7.42724C6.37716 7.40924 6.04191 7.45499 5.82366 7.56149C5.63916 7.65149 5.60541 7.88024 5.74491 8.27774Z" fill="#F79009"/>
<path d="M7.59743 7.07925C7.21268 7.07925 7.05518 7.17225 6.96518 7.449C6.90743 7.6245 6.96293 7.77525 7.14368 7.9155L7.04093 8.04825C6.80693 7.86675 6.72443 7.644 6.80543 7.3965C6.92018 7.044 7.14518 6.91125 7.59668 6.91125C7.89293 6.91125 8.12318 6.9885 8.28368 7.14675L8.30918 7.1715V7.9815H8.14118V7.2435C8.01593 7.13475 7.83518 7.0785 7.59668 7.0785L7.59743 7.07925Z" fill="#F79009"/>
<path d="M10.9501 8.36247L11.1076 8.41797C11.2726 7.94922 11.2254 7.63122 10.9449 7.49397C10.6974 7.37397 10.3359 7.32447 9.86035 7.34397L9.8671 7.51122C10.3171 7.49322 10.6531 7.53897 10.8706 7.64547C11.0559 7.73547 11.0896 7.96422 10.9494 8.36172L10.9501 8.36247Z" fill="#F79009"/>
<path d="M9.08773 7.09195C9.47248 7.09195 9.62998 7.1857 9.71998 7.4617C9.77773 7.63795 9.72148 7.78795 9.54073 7.9282L9.64423 8.06095C9.87823 7.87945 9.96073 7.6567 9.87973 7.40995C9.76498 7.05745 9.53923 6.92395 9.08773 6.92395C8.79223 6.92395 8.56123 7.00195 8.40073 7.1602L8.37598 7.18495V7.99495H8.54398V7.2562C8.66923 7.14745 8.84923 7.09195 9.08773 7.09195Z" fill="#F79009"/>
<path opacity="0.3" fill-rule="evenodd" clip-rule="evenodd" d="M5.604 9.948H11.064V14.853C11.064 14.853 10.659 16.5 8.334 16.5C6.009 16.5 5.604 14.8102 5.604 14.8102V9.948Z" fill="#D0D5DD"/>
<mask id="mask4_2082_9354" style="mask-type:luminance" maskUnits="userSpaceOnUse" x="5" y="9" width="7" height="8">
<path fill-rule="evenodd" clip-rule="evenodd" d="M5.604 9.948H11.064V14.853C11.064 14.853 10.659 16.5 8.334 16.5C6.009 16.5 5.604 14.8102 5.604 14.8102V9.948Z" fill="white"/>
</mask>
<g mask="url(#mask4_2082_9354)">
<path d="M5.604 12.972H8.376V16.248H5.604V12.972Z" fill="#F79009"/>
<path d="M5.94 13.14H6.276V16.248H5.94V13.14ZM7.116 13.14H7.452V16.248H7.116V13.14ZM6.528 13.14H6.864V16.248H6.528V13.14ZM7.704 13.14H8.04V16.248H7.704V13.14ZM5.604 9.86401H8.376V13.056H5.604V9.86401Z" fill="#D92D20"/>
<path d="M8.29199 12.8881H11.064V16.0801H8.29199V12.8881Z" fill="#D92D20"/>
<path d="M8.29199 9.948H11.232V13.056H8.29199V9.948Z" fill="#F2F4F7"/>
<path fill-rule="evenodd" clip-rule="evenodd" d="M10.7699 15.105V13.266H8.66992V15.09L8.67367 15.1035C8.77942 15.5565 9.14167 15.786 9.71992 15.786C10.2974 15.786 10.6597 15.5625 10.7662 15.12L10.7699 15.105ZM9.71992 15.534C9.25567 15.534 9.00217 15.378 8.92192 15.06V13.518H10.5179V15.0742C10.4377 15.3817 10.1842 15.534 9.71992 15.534Z" fill="#F79009"/>
<path fill-rule="evenodd" clip-rule="evenodd" d="M9.8071 13.4198H9.6316V14.2538L8.9416 13.5038L8.8186 13.6163L9.44185 14.2951H8.8771V14.547H9.4561L8.8186 15.2408L8.94235 15.3548L9.63235 14.6048V15.579H9.8071V14.6918L10.4161 15.3548L10.5399 15.2408L9.90235 14.547H10.6141V14.2951H9.91585L10.5399 13.6171L10.4161 13.503L9.8071 14.166V13.4198Z" fill="#F79009"/>
<path fill-rule="evenodd" clip-rule="evenodd" d="M10.1123 16.0822C10.1123 16.0822 8.33325 16.2217 8.33325 15.0742C8.33325 15.0742 8.316 16.0822 6.45825 16.0822V16.9875H10.1123V16.0822Z" fill="#F2F4F7"/>
<path fill-rule="evenodd" clip-rule="evenodd" d="M8.3341 13.644C8.6821 13.644 8.9641 13.3433 8.9641 12.972C8.9641 12.6008 8.6821 12.3 8.3341 12.3C7.9861 12.3 7.7041 12.6008 7.7041 12.972C7.7041 13.3433 7.9861 13.644 8.3341 13.644Z" fill="#0B70FE" stroke="#D92D20" stroke-width="1.167"/>
</g>
</g>
</g>
</svg>
