<svg viewBox="0 0 64 64" fill="none" xmlns="http://www.w3.org/2000/svg"><path fill-rule="evenodd" clip-rule="evenodd" d="M45.817 10.555 16.105 27.82l-4.377 5.456L3.2 43.902l29.713-17.267 8.528-10.626 4.376-5.454Z" fill="#101828"/><path d="m16.105 27.821-.251-.432a.501.501 0 0 0-.139.12l.39.312Zm29.712-17.267.39.313a.5.5 0 0 0-.641-.745l.25.433Zm-34.09 22.723.39.313-.39-.313ZM3.2 43.902l-.39-.313a.5.5 0 0 0 .641.745l-.25-.432Zm29.713-17.267.251.433a.5.5 0 0 0 .14-.12l-.39-.313Zm8.528-10.626.39.313-.39-.313ZM16.356 28.253l29.712-17.266-.502-.865L15.854 27.39l.503.864Zm-4.238 5.337 4.377-5.456-.78-.626-4.377 5.456.78.626ZM3.59 44.215l8.528-10.625-.78-.626L2.81 43.589l.78.626Zm29.072-18.012L2.949 43.47l.502.864 29.713-17.266-.502-.865Zm8.389-10.507-8.528 10.627.78.625 8.528-10.626-.78-.626Zm4.376-5.454-4.376 5.454.78.626 4.376-5.455-.78-.625Z" fill="#101828"/><path d="M29.456 58.875 17.323 28.388l30.819-17.266 11.25 30.258-29.936 17.495Z" fill="#fff" stroke="#101828"/><path fill-rule="evenodd" clip-rule="evenodd" d="M46.697 16.04a.733.733 0 0 0 .329-.102c.466-.268.687-.974.49-1.572a1.156 1.156 0 0 0-.321-.505.735.735 0 0 0-.883-.096c-.468.27-.69.975-.49 1.579a.096.096 0 0 0 .006.017.085.085 0 0 1 .005.012c.106.299.3.512.525.61a.732.732 0 0 0 .34.058Zm-5.57 3.325a.732.732 0 0 1-.669.044c-.224-.096-.419-.309-.524-.61l-.012-.028c-.198-.604.022-1.307.491-1.577a.735.735 0 0 1 .883.095c.15.137.26.31.321.503.196.6-.024 1.305-.49 1.573Zm-6.229 3.531a.732.732 0 0 0 .329-.103c.466-.268.687-.973.49-1.572a1.157 1.157 0 0 0-.32-.505.736.736 0 0 0-.882-.095c-.47.27-.69.974-.492 1.578l.011.029c.106.3.3.512.525.61a.732.732 0 0 0 .34.058Zm-5.571 3.324a.73.73 0 0 1-.667.045c-.225-.097-.419-.31-.525-.61a.109.109 0 0 0-.004-.01.12.12 0 0 1-.007-.02c-.199-.603.022-1.306.49-1.576a.735.735 0 0 1 .883.095c.15.137.26.31.321.504.197.599-.024 1.304-.49 1.572h-.001Zm-5.898 3.428a.732.732 0 0 1-.669.045c-.224-.098-.419-.31-.525-.61l-.01-.029c-.199-.604.02-1.308.49-1.578a.736.736 0 0 1 .883.095c.15.137.26.311.322.505.195.599-.025 1.304-.49 1.572Z" fill="#101828"/><path fill-rule="evenodd" clip-rule="evenodd" d="M44.407 9.213c1.513.875 2.71 2.882 2.79 4.648l.002.18v.006c-.003.88-.3 1.558-.84 1.935-.227-.098-.42-.31-.526-.61l.005-.002c.36-.206.562-.679.565-1.326 0-.104-.005-.21-.016-.316-.13-1.453-1.146-3.112-2.377-3.828-.35-.202-.68-.303-.967-.303a.965.965 0 0 0-.483.12c-.36.21-.561.68-.561 1.329.004.43.075.857.212 1.264l-.7.408a4.974 4.974 0 0 1-.308-1.676c.003-.943.345-1.659.963-2.014.62-.359 1.416-.292 2.24.185Zm-3.11 8.076c-.08-1.766-1.276-3.774-2.79-4.65-.825-.475-1.62-.543-2.24-.184-.619.355-.96 1.071-.963 2.015a4.987 4.987 0 0 0 .308 1.676l.7-.409a4.082 4.082 0 0 1-.212-1.264c0-.65.2-1.118.561-1.328a.965.965 0 0 1 .484-.12c.286 0 .615.101.964.302 1.232.716 2.249 2.376 2.38 3.829.009.106.015.213.015.315-.004.647-.205 1.12-.565 1.326l-.005.002c.105.301.3.512.524.61.541-.375.838-1.054.84-1.934v-.006l-.002-.18Zm-8.69-1.221c1.515.875 2.71 2.882 2.79 4.648l.003.181v.005c-.003.88-.3 1.559-.84 1.935-.227-.097-.42-.31-.526-.61h.002l.002-.001h.002c.36-.208.562-.68.564-1.327 0-.103-.005-.21-.015-.316-.131-1.453-1.147-3.112-2.378-3.828-.35-.201-.68-.303-.965-.303a.965.965 0 0 0-.483.12c-.361.21-.563.68-.563 1.33.004.43.076.856.213 1.263l-.7.409a4.982 4.982 0 0 1-.308-1.677c.003-.943.345-1.659.963-2.014.62-.358 1.415-.292 2.24.185Zm-3.11 8.075c-.078-1.764-1.275-3.773-2.79-4.647-.823-.477-1.619-.543-2.24-.186-.616.355-.96 1.071-.962 2.016A4.978 4.978 0 0 0 23.813 23l.7-.409a4.082 4.082 0 0 1-.212-1.264c0-.65.202-1.12.562-1.328a.964.964 0 0 1 .483-.12c.286 0 .616.102.966.302 1.231.716 2.247 2.377 2.377 3.83a3.1 3.1 0 0 1 .016.314c-.002.648-.205 1.12-.565 1.326l-.005.003c.106.3.3.512.525.61.54-.376.837-1.056.84-1.935v-.006l-.001-.09-.002-.091Zm-5.899 3.43c-.08-1.767-1.275-3.774-2.79-4.65-.824-.477-1.618-.543-2.24-.184-.617.354-.96 1.07-.962 2.014a5.015 5.015 0 0 0 .307 1.676l.7-.408a4.082 4.082 0 0 1-.212-1.265c0-.65.202-1.12.563-1.328a.965.965 0 0 1 .483-.12c.286 0 .614.1.965.301 1.231.717 2.248 2.377 2.379 3.83.01.106.015.212.015.314-.003.649-.205 1.12-.565 1.328h-.002l-.004.002c.106.3.3.512.525.61.541-.377.838-1.056.84-1.936v-.005l-.002-.18Z" fill="#FF5A22"/><path d="M25.914 31.08c.324-.188.7-.008.854.398l1.473 3.904c.157.416.024.89-.3 1.077l-3.037 1.753c-.316.182-.694.003-.85-.413l-1.472-3.904c-.153-.406-.023-.879.294-1.063l3.038-1.753Zm7.286-4.207c.316-.182.693-.002.847.404l1.47 3.902c.157.417.027.89-.29 1.073l-3.037 1.754c-.324.188-.7.006-.858-.41l-1.473-3.902c-.152-.407-.02-.881.302-1.067l3.038-1.754Z" fill="#FF5A22"/><path d="M40.61 22.375c.316-.183.701-.008.855.398l1.471 3.904c.157.416.019.894-.298 1.077l-3.037 1.754c-.316.182-.701.007-.858-.41l-1.474-3.903c-.152-.407-.013-.885.302-1.067l3.039-1.753Zm-11.444 16.68c.323-.188.705.003.857.41l1.473 3.902c.152.407.024.89-.298 1.077l-3.038 1.753c-.317.184-.698-.007-.85-.413l-1.474-3.903c-.152-.407-.024-.89.292-1.072l3.038-1.755Zm7.285-4.206c.316-.183.698.007.851.413l1.472 3.904c.152.405.024.89-.29 1.072l-3.04 1.753c-.323.187-.704-.002-.857-.41l-1.473-3.902c-.152-.406-.024-.89.3-1.077l3.037-1.753Zm7.278-4.203c.316-.182.705.004.858.41l1.472 3.902c.154.407.018.894-.298 1.078l-3.037 1.753c-.316.182-.705-.003-.859-.41l-1.472-3.902c-.153-.406-.018-.894.299-1.077l3.037-1.754Zm-11.44 16.692c.323-.187.7-.007.857.408l1.473 3.904c.152.406.022.88-.302 1.067l-3.038 1.754c-.317.181-.695.003-.847-.404l-1.473-3.903c-.157-.417-.024-.89.291-1.072l3.038-1.754Zm7.285-4.207c.316-.182.694-.002.85.414l1.473 3.903c.152.406.022.88-.295 1.063l-3.037 1.753c-.325.187-.701.007-.855-.398l-1.473-3.904c-.156-.416-.024-.89.3-1.076l3.037-1.755Zm7.277-4.202c.317-.181.702-.006.859.41l1.473 3.902c.152.407.012.885-.302 1.068l-3.038 1.753c-.316.183-.702.007-.855-.399l-1.472-3.904c-.157-.415-.018-.893.298-1.076l3.037-1.754Zm1.045-20.76c.316-.183.693-.003.846.404l1.472 3.903c.157.417.026.89-.29 1.072l-3.038 1.754c-.323.187-.7.007-.857-.409l-1.473-3.904c-.152-.405-.022-.879.302-1.066l3.038-1.753Zm3.119 8.273c.316-.184.697.007.85.413l1.473 3.902c.152.407.024.89-.29 1.073l-3.04 1.754c-.324.187-.705-.003-.857-.41l-1.474-3.902c-.152-.407-.024-.89.299-1.077l3.038-1.753h.001Zm3.123 8.281c.316-.182.693-.002.85.413l1.473 3.904c.152.406.02.879-.295 1.063l-3.038 1.753c-.323.187-.7.007-.855-.398l-1.47-3.904c-.157-.417-.027-.89.297-1.078l3.038-1.753Z" fill="#101828"/></svg>