<svg width="23" height="22" viewBox="0 0 23 22" fill="none" xmlns="http://www.w3.org/2000/svg"><path d="M1.65 14a.99.99 0 0 1-.775-.338.87.87 0 0 1-.225-.762c.317-1.65 1.2-2.88 2.65-3.688C4.75 8.405 6.333 8 8.05 8s3.3.404 4.75 1.213c1.45.808 2.333 2.037 2.65 3.687a.87.87 0 0 1-.225.762.99.99 0 0 1-.775.338H1.65Zm15.9 8v-2h1.4l1.4-14H10.8l-.1-.875a.996.996 0 0 1 .238-.787.925.925 0 0 1 .737-.338h3.875V1c0-.283.096-.52.287-.713A.968.968 0 0 1 16.55 0a.97.97 0 0 1 .712.287c.192.192.288.43.288.713v3h3.9c.3 0 .55.108.75.325a.94.94 0 0 1 .25.775L20.9 20.55c-.05.4-.23.742-.537 1.025A1.59 1.59 0 0 1 19.25 22h-1.7Zm-4.725-10c-.483-.667-1.162-1.167-2.037-1.5A7.764 7.764 0 0 0 8 10c-.983 0-1.912.167-2.787.5-.875.333-1.555.833-2.038 1.5h9.65ZM1.5 18a.967.967 0 0 1-.713-.288A.968.968 0 0 1 .5 17a.97.97 0 0 1 .287-.712A.967.967 0 0 1 1.5 16h13a.97.97 0 0 1 .713.288c.191.191.287.429.287.712s-.096.52-.287.712A.968.968 0 0 1 14.5 18h-13Zm0 4a.967.967 0 0 1-.713-.288A.968.968 0 0 1 .5 21a.97.97 0 0 1 .287-.712A.967.967 0 0 1 1.5 20h13a.97.97 0 0 1 .713.288c.191.191.287.429.287.712s-.096.52-.287.712A.968.968 0 0 1 14.5 22h-13Z" fill="currentColor"/></svg>