<svg width="21" height="18" viewBox="0 0 21 18" fill="none" xmlns="http://www.w3.org/2000/svg"><path d="M3.525 18c-.55 0-1.02-.196-1.412-.587A1.927 1.927 0 0 1 1.525 16V8.05C1.142 7.7.846 7.25.638 6.7.43 6.15.425 5.55.625 4.9l1.05-3.4c.133-.433.371-.792.713-1.075A1.803 1.803 0 0 1 3.575 0h13.9c.45 0 .842.137 1.175.412.333.275.575.638.725 1.088l1.05 3.4c.2.65.196 1.242-.012 1.775a3.958 3.958 0 0 1-.888 1.375V16a1.93 1.93 0 0 1-.587 1.413 1.928 1.928 0 0 1-1.413.587h-14Zm9.2-11c.45 0 .792-.154 1.025-.463.233-.308.325-.654.275-1.037l-.55-3.5h-1.95v3.7c0 .35.117.654.35.913.233.258.517.387.85.387Zm-4.5 0c.383 0 .696-.129.938-.387.241-.259.362-.563.362-.913V2h-1.95l-.55 3.5c-.067.4.021.75.263 1.05.241.3.554.45.937.45Zm-4.45 0c.3 0 .562-.108.787-.325a1.4 1.4 0 0 0 .413-.825L5.525 2h-1.95l-1 3.35c-.1.333-.046.692.162 1.075.209.383.555.575 1.038.575Zm13.5 0c.483 0 .833-.192 1.05-.575.217-.383.267-.742.15-1.075L17.425 2h-1.9l.55 3.85a1.4 1.4 0 0 0 .413.825c.225.217.487.325.787.325Zm-13.75 9h14V8.95a.605.605 0 0 1-.162.05h-.088c-.45 0-.846-.075-1.188-.225-.341-.15-.679-.392-1.012-.725-.3.3-.642.533-1.025.7-.383.167-.792.25-1.225.25a3.194 3.194 0 0 1-2.3-.95 3.05 3.05 0 0 1-.987.7A2.95 2.95 0 0 1 8.325 9c-.483 0-.92-.083-1.313-.25a3.26 3.26 0 0 1-1.037-.7c-.35.35-.696.596-1.037.737A3.01 3.01 0 0 1 3.775 9h-.112a.254.254 0 0 1-.138-.05V16Z" fill="currentColor"/></svg>