<svg width="81" height="80" viewBox="0 0 81 80" fill="none" xmlns="http://www.w3.org/2000/svg"><path d="m70.514 24.388-7.2 6.567-26.36-15.213 7.2-6.568 26.36 15.214Z" fill="#fff" stroke="#101828" stroke-linejoin="round"/><path d="m3.574 24.39 7.201 6.565 26.187-15.213-7.202-6.568L3.574 24.389Z" fill="#fff" stroke="#101828" stroke-linejoin="round"/><path fill-rule="evenodd" clip-rule="evenodd" d="m10.776 30.957 26.177-15.215h.002l26.352 15.213-26.18 15.214-26.35-15.212Zm15.009 7.032-12.18-7.032-.004.003 12.184 7.03Zm5.2-17.143 5.973-3.47.003.001v-.008l-5.975 3.477Z" fill="#101828"/><path d="m37.127 46.17-.076 27.189-26.353-15.214.079-27.19 26.35 15.214Z" fill="#fff" stroke="#101828" stroke-linejoin="round"/><path d="m37.126 46.17-7.201 6.567L3.574 37.523l7.201-6.568L37.127 46.17Zm26.181-15.215-.077 27.19-26.18 15.214.078-27.19 26.18-15.214Z" fill="#fff" stroke="#101828" stroke-linejoin="round"/><path d="m37.126 46.17 7.201 6.567 26.188-15.214-7.2-6.568-26.19 15.214Zm40.295 8.47L58.88 65.414l-.036 11.56L77.386 66.2l.035-11.56Zm-29.454 4.475 10.91 6.299L77.42 54.64l-10.91-6.3-18.542 10.775Z" fill="#fff" stroke="#101828" stroke-linejoin="round"/><path d="m47.966 59.115-.035 11.56 10.91 6.299.036-11.56-10.91-6.299Z" fill="#fff" stroke="#101828" stroke-linejoin="round"/><path d="m73.484 52.366-3.075-1.775-18.542 10.775 3.076 1.776 18.541-10.776Z" fill="#FF5A22"/><path d="M54.943 63.142v11.581l-3.076-1.775V61.366l3.076 1.776ZM37.882 8.559C31.61 4.939 26.52 7.839 26.5 15.03c-.02 7.22 5.037 15.98 11.308 19.6 6.26 3.615 11.35.712 11.37-6.506.02-7.192-5.036-15.954-11.296-19.566Z" fill="#FF5A22"/><path d="M37.862 13.217c-.92-.532-1.66-.097-1.662.948l-.013 4.574-3.982-2.299c-.908-.524-1.646-.09-1.65.94-.004 1.059.73 2.33 1.64 2.854l3.98 2.299-.011 4.575c-.004 1.057.73 2.33 1.65 2.861.908.524 1.66.11 1.662-.947l.014-4.576 3.981 2.299c.897.518 1.646.104 1.651-.954.003-1.03-.743-2.323-1.64-2.84l-3.981-2.298.012-4.576c.003-1.044-.742-2.335-1.65-2.861v.001Z" fill="#fff"/></svg>