<svg width="20" height="20" viewBox="0 0 20 20" fill="none" xmlns="http://www.w3.org/2000/svg">
    <mask id="a" style="mask-type:alpha" maskUnits="userSpaceOnUse" x="0" y="0" width="20" height="20">
        <path fill="#D9D9D9" d="M0 0h20v20H0z" />
    </mask>
    <g mask="url(#a)">
        <path
            d="M12.749 16c-1.666 0-3.082-.583-4.249-1.75-1.167-1.167-1.75-2.583-1.75-4.249 0-1.653.583-3.067 1.75-4.24C9.667 4.586 11.083 4 12.749 4c1.653 0 3.067.587 4.24 1.76 1.174 1.174 1.761 2.588 1.761 4.241 0 1.666-.587 3.082-1.76 4.249-1.174 1.167-2.588 1.75-4.241 1.75Zm-.01-1.5c1.257 0 2.323-.434 3.198-1.302.876-.868 1.313-1.93 1.313-3.188 0-1.257-.438-2.322-1.313-3.197C15.063 5.938 14 5.5 12.75 5.5c-1.264 0-2.33.438-3.198 1.313C8.684 7.688 8.25 8.75 8.25 10c0 1.264.434 2.33 1.302 3.198.868.868 1.93 1.302 3.188 1.302Zm.762-4.794V7.752a.728.728 0 0 0-.216-.536A.727.727 0 0 0 12.75 7a.729.729 0 0 0-.534.214.718.718 0 0 0-.216.53v2.253c0 .1.017.197.052.295.035.097.087.18.156.25l1.73 1.711A.735.735 0 0 0 15 12.25a.71.71 0 0 0 .23-.528.727.727 0 0 0-.226-.53L13.5 9.705ZM3.255 7.5a.737.737 0 0 1-.536-.214.714.714 0 0 1-.219-.532c0-.21.072-.39.215-.535A.718.718 0 0 1 3.248 6h1.497c.212 0 .39.071.536.214.146.143.219.32.219.532 0 .21-.072.39-.215.535a.718.718 0 0 1-.533.219H3.255ZM2.25 10.75a.728.728 0 0 1-.534-.214.72.72 0 0 1-.216-.532c0-.21.072-.39.216-.535a.72.72 0 0 1 .534-.219h2.5c.213 0 .39.071.534.214a.72.72 0 0 1 .216.532c0 .21-.072.39-.216.535a.72.72 0 0 1-.534.219h-2.5ZM3.255 14a.738.738 0 0 1-.536-.214.714.714 0 0 1-.219-.532c0-.21.072-.39.215-.535a.718.718 0 0 1 .533-.219h1.497a.74.74 0 0 1 .755.746c0 .21-.072.39-.215.535a.718.718 0 0 1-.533.219H3.255Z"
            fill="#344054" />
    </g>
</svg>