<svg width="56" height="56" viewBox="0 0 56 56" fill="none" xmlns="http://www.w3.org/2000/svg">
<rect width="56" height="56" rx="16" fill="#039855"/>
<path d="M23.9994 30.6667C23.9994 30.6667 25.7494 32.6667 28.6661 32.6667C31.5828 32.6667 33.3328 30.6667 33.3328 30.6667M32.3328 24H32.3461M24.9994 24H25.0128M28.6661 38.6667C34.9253 38.6667 39.9994 33.5926 39.9994 27.3333C39.9994 21.0741 34.9253 16 28.6661 16C22.4069 16 17.3328 21.0741 17.3328 27.3333C17.3328 28.6 17.5405 29.8181 17.9239 30.9555C18.0682 31.3835 18.1403 31.5975 18.1533 31.7619C18.1662 31.9243 18.1565 32.0381 18.1163 32.1959C18.0756 32.3558 17.9858 32.522 17.8062 32.8544L15.6253 36.8911C15.3143 37.4669 15.1587 37.7548 15.1935 37.977C15.2238 38.1706 15.3377 38.341 15.505 38.443C15.697 38.5601 16.0225 38.5265 16.6735 38.4592L23.5015 37.7534C23.7083 37.732 23.8117 37.7213 23.9059 37.7249C23.9986 37.7284 24.064 37.7371 24.1544 37.758C24.2463 37.7792 24.3618 37.8237 24.593 37.9127C25.857 38.3997 27.2304 38.6667 28.6661 38.6667ZM32.9994 24C32.9994 24.3682 32.7009 24.6667 32.3328 24.6667C31.9646 24.6667 31.6661 24.3682 31.6661 24C31.6661 23.6318 31.9646 23.3333 32.3328 23.3333C32.7009 23.3333 32.9994 23.6318 32.9994 24ZM25.6661 24C25.6661 24.3682 25.3676 24.6667 24.9994 24.6667C24.6312 24.6667 24.3328 24.3682 24.3328 24C24.3328 23.6318 24.6312 23.3333 24.9994 23.3333C25.3676 23.3333 25.6661 23.6318 25.6661 24Z" stroke="white" stroke-width="2" stroke-linecap="round" stroke-linejoin="round"/>
</svg>
