<svg width="56" height="56" viewBox="0 0 56 56" fill="none" xmlns="http://www.w3.org/2000/svg">
    <rect width="56" height="56" rx="16" fill="#039855" />
    <path
        d="M24 30.667s1.75 2 4.666 2c2.917 0 4.667-2 4.667-2m-1-6.667h.013M25 24h.014m3.653 14.667c6.26 0 11.333-5.074 11.333-11.334C40 21.074 34.925 16 28.666 16c-6.26 0-11.333 5.074-11.333 11.333 0 1.267.208 2.485.59 3.623.145.428.217.642.23.806.013.162.004.276-.037.434-.04.16-.13.326-.31.658l-2.18 4.037c-.312.576-.467.864-.432 1.086.03.194.144.364.311.466.192.117.518.084 1.168.016l6.829-.706c.206-.021.31-.032.404-.028.093.003.158.012.248.033.092.021.208.066.439.155 1.264.487 2.637.754 4.073.754ZM33 24a.667.667 0 1 1-1.333 0A.667.667 0 0 1 33 24Zm-7.333 0a.667.667 0 1 1-1.333 0 .667.667 0 0 1 1.333 0Z"
        stroke="#fff" stroke-width="2" stroke-linecap="round" stroke-linejoin="round" />
</svg>