<svg width="81" height="80" viewBox="0 0 81 80" fill="none" xmlns="http://www.w3.org/2000/svg"><path d="M51.423 6.461c-.154 0-.308-.153-.308-.153.154 0 .154 0 .308.153 0-.153 0-.153 0 0Z" fill="#101828"/><path d="M51.423 6.461c-.154 0-.308-.153-.308-.153.154 0 .154 0 .308.153 0-.153 0-.153 0 0Z" fill="#101828"/><path d="M51.73 6.462c-.615-.308-1.384-.308-2.307.307l-24.77 14.308c-1.845 1.077-3.153 3.54-3.153 5.54V74.5c.27.811 1.612 2.06 2 2.5a4.17 4.17 0 0 1-2.656-.955l-3.267-2.699c-.923-.71-.923-1.077-.923-2V68.77L16.5 23.54c0-2 1.385-4.462 3.23-5.539L44.5 3.692c.923-.615 1.846-.769 2.308-.461l4.923 3.23Z" fill="#fff" stroke="#101828"/><path d="M49.157 6.455c1.671-1.078 3.191-.154 3.191 1.849l.152 48.37c0 2.002-1.368 4.466-3.191 5.545L24.843 76.545c-1.671 1.078-3.343.13-3.343-1.872V26.5c0-2.003 1.368-4.64 3.191-5.719L49.157 6.455Z" fill="#fff" stroke="#101828"/><path d="M50.193 11.846v42.616L23.577 70V27.23l26.616-15.384Zm-16.77 6.924c-.154-.308-.154-.77.308-.924l5.846-3.385c.308-.153.77-.153.923.308 0 .308 0 .616-.462.923l-5.692 3.231c-.307.154-.77.154-.923-.154Zm3.385 45.384c.923-.462 1.692-.154 1.692.923s-.77 2.308-1.692 2.923c-.923.462-1.693.154-1.693-.923.154-1.077.77-2.462 1.693-2.923Zm-17.873-36c.468.308.935.923.935 1.538v4.616c0 .615-.468.769-.935.461-.467-.307-.935-.923-.935-1.538v-4.616c.156-.615.468-.769.935-.461Zm0 10c.468.307.935.923.935 1.538v4.616c0 .615-.468.769-.935.461-.467-.307-.935-.923-.935-1.538v-4.616c0-.615.468-.769.935-.461Z" fill="#101828"/><path d="M56.192 19.538c4.923-2.769 8.77-.307 8.616 5.539-.308 5.385-4.154 11.692-8.77 14.308l-6.615 3.692c-.154.154-.462.308-.616.615l-3.692 8c-.154.154-.154.308-.308.308-.153.154-.307 0-.461-.154l-.308-5.538h-.153c-4.616 2.615-8.616.923-8.77-4.154-.154-2.923.77-6.154 2.462-8.923 1.538-2.616 3.692-5.077 6-6.308l12.615-7.384Z" fill="#FF5A22"/><path d="M42.346 34.308c.308-.154.77-.308 1.077-.308.308 0 .616.154.77.308.153.154.307.461.307.923 0 .461-.154.769-.308 1.23-.153.462-.461.924-.769 1.385-.308.462-.615.923-1.077 1.539-.461.615-.769 1.077-.923 1.384l-.461.923 3.077-1.846h.307s.154.154.154.308 0 .307-.154.307c0 .154-.154.154-.307.308L40.5 42.615c-.154.154-.308.154-.308 0-.153 0-.153-.154-.153-.307 0-.308.153-.77.307-1.077.154-.462.462-.77.616-1.231.307-.308.615-.923 1.077-1.385.307-.461.615-.923.923-1.23.153-.308.461-.616.461-.923.154-.308.154-.616.154-.77 0-.461-.154-.615-.308-.769-.154-.154-.615 0-1.077.308-.461.307-1.077.769-1.538 1.23l-.154.154h-.308s-.153-.154-.153-.307c0-.154 0-.308.153-.462.77-.615 1.385-1.23 2.154-1.538Zm7.846.154s.154.153.154.307 0 .308-.154.308c0 .154-.153.154-.307.308l-.616.461v1.385c0 .154 0 .307-.154.461-.153.154-.153.308-.307.308H48.5c-.154 0-.154-.154-.154-.308v-1.384l-2.769 1.538c-.154.154-.308.154-.308 0-.154 0-.154-.154-.154-.307v-.154c0-.154 0-.308.154-.462l2.77-5.692c0-.154.153-.154.153-.308.154-.154.154-.154.308-.154l.154-.154c.154-.153.308-.153.308 0 .153 0 .153.154.153.308v4l.616-.462c.308-.153.461-.153.461 0Zm-1.692.769v-3.539l-2.308 4.923 2.308-1.384Zm5.23-8.154h.309s.153.154.153.308v.153l-2.307 9.385c0 .154 0 .154-.154.308 0 .154-.154.154-.154.154h-.308s-.154-.154-.154-.308v-.154l2.308-9.385c0-.153 0-.153.154-.307 0-.154.154-.154.154-.154Zm5.54-2.462c.153-.153.307-.153.307 0 .154 0 .154.154.154.308s0 .308-.154.462l-2.462 7.384c0 .154-.153.154-.153.308s-.154.154-.154.154H56.5s-.154-.154-.154-.308v-.308l2.462-7.077-3.231 1.847h-.308c-.154 0-.154-.154-.154-.308s0-.308.154-.308c0-.154.154-.307.308-.307l3.692-1.847Z" fill="#fff"/></svg>