<svg width="81" height="80" viewBox="0 0 81 80" fill="none" xmlns="http://www.w3.org/2000/svg">
  <path
    d="m78.897 39.704-.027 12.39-37.996 22.08.03-12.39 37.993-22.08Zm-37.994 22.08-.029 12.39L2.097 51.785l.028-12.388 38.778 22.387Z"
    fill="#fff" stroke="#101828" stroke-linejoin="round" />
  <path d="m78.897 39.704-37.994 22.08L2.125 39.397l37.996-22.082 38.776 22.389Z" fill="#fff" stroke="#101828"
    stroke-linejoin="round" />
  <path
    d="m6.225 31.277 34.147-19.845 9.456 5.46-34.147 19.844-9.456-5.46Zm34.449 24.629 34.148-19.843-.01 3.41L40.665 59.32l.01-3.413Z"
    fill="#fff" stroke="#101828" stroke-linejoin="round" />
  <path d="M15.5 36.845 49.647 17l24.994 19.171-34.147 19.843L15.5 36.844Z" fill="#fff" stroke="#101828"
    stroke-linejoin="round" />
  <path d="m15.68 36.736 24.994 19.17-.01 3.413L6.203 39.42l.023-8.144 9.456 5.46Z" fill="#fff" stroke="#101828"
    stroke-linejoin="round" />
  <path
    d="M62 55.654c.002.65-.194 1.393-.527 2.067-.336.678-.785 1.235-1.246 1.544-.457.309-.728.253-.859.166-.162-.107-.366-.421-.368-1.087-.002-.645.196-1.389.53-2.064.336-.678.786-1.237 1.245-1.547.456-.307.726-.25.858-.163.162.108.365.422.367 1.084Zm.5-.001c.005 1.483-.886 3.282-1.994 4.027l1.994-4.027Z"
    fill="#101828" stroke="#101828" />
  <path d="m47.105 17.088-12.998 7.56-1.554-6.262 13-7.556 1.552 6.258Z" fill="#fff" stroke="#101828"
    stroke-linejoin="round" />
  <path
    d="m27.577 15.514 13.001-7.557 4.976 2.873-13.001 7.556-4.976-2.872Zm4.976 2.872 1.553 6.259-6.544-3.778.015-5.353 4.976 2.872Zm-14.37-5.76-.04 14.04-1.913 1.115.04-14.04 1.913-1.115ZM16.27 13.74l-.04 14.04-1.335-.77.038-14.04 1.336.77Z"
    fill="#fff" stroke="#101828" stroke-linejoin="round" />
  <path
    d="M20.665 5.877c-.138-.08-.327-.069-.535.051l-10.46 6.04c-.416.24-.752.829-.75 1.303l.01 3.995c0 .24.085.408.221.486l2.208 1.282c-.137-.08-.222-.247-.222-.485l-.011-3.997c-.002-.473.334-1.062.75-1.302l10.46-6.04c.209-.12.398-.13.534-.051l-2.205-1.28v-.002Z"
    fill="#fff" stroke="#101828" stroke-linejoin="round" />
  <path
    d="M22.337 7.21c.416-.24.753-.04.755.435l.011 3.995c0 .478-.334 1.063-.75 1.303l-10.461 6.04c-.416.24-.754.044-.755-.434l-.013-3.997c-.002-.473.334-1.062.75-1.302l10.461-6.04h.002Zm-5.669 22.33 13.917-8.087.91 3.765-13.915 8.086-.912-3.765Z"
    fill="#101828" stroke="#101828" stroke-linejoin="round" />
  <path
    d="m13.62 27.78 13.917-8.087 3.048 1.76-13.917 8.086-3.048-1.758Zm3.048 1.76.912 3.764-4.89-2.822.93-2.701 3.048 1.758Z"
    fill="#fff" stroke="#101828" stroke-linejoin="round" />
  <path
    d="m56.103 25.312 2.41 1.722-2.484 1.373-2.41-1.722 2.484-1.373Zm5.304 3.79 2.406 1.72-2.485 1.373-2.406-1.719 2.485-1.374Z"
    fill="#101828" stroke="#101828" />
  <path d="m70.05 34.667-3.452 1.91-3.308-2.364 3.455-1.909 3.305 2.363Z" fill="#FF5A22" />
  <path
    d="m51.35 27.939 2.411 1.722-2.49 1.376-2.408-1.723 2.488-1.375Zm5.305 3.791 2.405 1.72-2.489 1.374-2.406-1.719 2.49-1.376Zm-10.06-1.162 2.41 1.722-2.485 1.374-2.41-1.723 2.485-1.373Zm5.325 4.022 2.406 1.72-2.485 1.373-2.405-1.719 2.484-1.374Zm-16.281 2.034 2.409 1.722-2.493 1.379-2.41-1.723 2.494-1.378Zm-5.167 2.856 2.41 1.722-2.489 1.376-2.409-1.722 2.488-1.376Zm10.469.936 2.406 1.719-2.493 1.377-2.405-1.719 2.492-1.377Zm-5.165 2.854 2.406 1.72-2.49 1.377-2.405-1.72 2.49-1.377Zm10.059 1.162 2.406 1.72-7.245 4.005-2.405-1.719 7.244-4.006Z"
    fill="#101828" stroke="#101828" />
  <path
    d="m65.298 37.294-8.21 4.54-3.306-2.365 8.21-4.538 3.306 2.363Zm-28.075-6.736-12.288 7.156c-.08-1.184-.512-2.288-1.264-3.312-.848-1.136-2.016-2.032-3.2-2.72a17.142 17.142 0 0 0-2.56-1.2l12.304-7.156c.768.304 1.664.704 2.56 1.216 1.184.672 2.352 1.568 3.184 2.704.768 1.024 1.184 2.144 1.264 3.312Z"
    fill="#FF5A22" />
</svg>