<svg width="48" height="48" viewBox="0 0 48 48" fill="none" xmlns="http://www.w3.org/2000/svg">
<path fill-rule="evenodd" clip-rule="evenodd" d="M33.1406 36.7679C33.7619 36.7679 34.2656 37.2716 34.2656 37.8929V43.7956C34.2656 45.956 32.5028 47.7187 30.3426 47.7187H17.7512C15.591 47.7187 13.8281 45.9559 13.8281 43.7956V38.046C13.8281 37.4247 14.3318 36.921 14.9531 36.921C15.5744 36.921 16.0781 37.4247 16.0781 38.046V43.7956C16.0781 44.7132 16.8336 45.4687 17.7512 45.4687H30.3426C31.2602 45.4687 32.0156 44.7133 32.0156 43.7956V37.8929C32.0156 37.2716 32.5193 36.7679 33.1406 36.7679Z" fill="#344054"/>
<path fill-rule="evenodd" clip-rule="evenodd" d="M26.9531 36.4666C27.5744 36.4666 28.0781 36.9702 28.0781 37.5916V45.5445C28.0781 46.1658 27.5744 46.6695 26.9531 46.6695C26.3318 46.6695 25.8281 46.1658 25.8281 45.5445V37.5916C25.8281 36.9702 26.3318 36.4666 26.9531 36.4666Z" fill="#344054"/>
<path d="M29.8281 7.03137H18.1719C17.0673 7.03137 16.1719 7.9268 16.1719 9.03137V13.0939C16.1719 14.1984 17.0673 15.0939 18.1719 15.0939H29.8281C30.9327 15.0939 31.8281 14.1984 31.8281 13.0939V9.03137C31.8281 7.9268 30.9327 7.03137 29.8281 7.03137Z" fill="#FF5A22"/>
<path fill-rule="evenodd" clip-rule="evenodd" d="M15.0469 26.3438C15.0469 25.7224 15.5506 25.2188 16.1719 25.2188H17.2031C17.8244 25.2188 18.3281 25.7224 18.3281 26.3438C18.3281 26.9651 17.8244 27.4688 17.2031 27.4688H16.1719C15.5506 27.4688 15.0469 26.9651 15.0469 26.3438Z" fill="#344054"/>
<path fill-rule="evenodd" clip-rule="evenodd" d="M15.0469 31.9689C15.0469 31.3476 15.5506 30.8439 16.1719 30.8439H17.2031C17.8244 30.8439 18.3281 31.3476 18.3281 31.9689C18.3281 32.5902 17.8244 33.0939 17.2031 33.0939H16.1719C15.5506 33.0939 15.0469 32.5902 15.0469 31.9689Z" fill="#344054"/>
<path fill-rule="evenodd" clip-rule="evenodd" d="M22.3594 26.3438C22.3594 25.7224 22.8631 25.2188 23.4844 25.2188H24.5156C25.1369 25.2188 25.6406 25.7224 25.6406 26.3438C25.6406 26.9651 25.1369 27.4688 24.5156 27.4688H23.4844C22.8631 27.4688 22.3594 26.9651 22.3594 26.3438Z" fill="#344054"/>
<path fill-rule="evenodd" clip-rule="evenodd" d="M22.3594 31.9689C22.3594 31.3476 22.8631 30.8439 23.4844 30.8439H24.5156C25.1369 30.8439 25.6406 31.3476 25.6406 31.9689C25.6406 32.5902 25.1369 33.0939 24.5156 33.0939H23.4844C22.8631 33.0939 22.3594 32.5902 22.3594 31.9689Z" fill="#344054"/>
<path fill-rule="evenodd" clip-rule="evenodd" d="M29.6719 26.3438C29.6719 25.7224 30.1756 25.2188 30.7969 25.2188H31.8281C32.4494 25.2188 32.9531 25.7224 32.9531 26.3438C32.9531 26.9651 32.4494 27.4688 31.8281 27.4688H30.7969C30.1756 27.4688 29.6719 26.9651 29.6719 26.3438Z" fill="#344054"/>
<path fill-rule="evenodd" clip-rule="evenodd" d="M29.6719 31.9689C29.6719 31.3476 30.1756 30.8439 30.7969 30.8439H31.8281C32.4494 30.8439 32.9531 31.3476 32.9531 31.9689C32.9531 32.5902 32.4494 33.0939 31.8281 33.0939H30.7969C30.1756 33.0939 29.6719 32.5902 29.6719 31.9689Z" fill="#344054"/>
<path fill-rule="evenodd" clip-rule="evenodd" d="M13.6396 2.53125C12.4752 2.53125 11.5312 3.47519 11.5312 4.63959V34.3604C11.5312 35.5248 12.4752 36.4688 13.6396 36.4688H34.3604C35.5248 36.4688 36.4688 35.5249 36.4688 34.3603V4.63959C36.4688 3.47518 35.5249 2.53125 34.3603 2.53125H13.6396ZM9.28125 4.63959C9.28125 2.2325 11.2326 0.28125 13.6396 0.28125H34.3603C36.7675 0.28125 38.7188 2.2325 38.7188 4.63959V34.3603C38.7188 36.7675 36.7675 38.7188 34.3604 38.7188H13.6396C11.2326 38.7188 9.28125 36.7675 9.28125 34.3604V4.63959Z" fill="#344054"/>
<path fill-rule="evenodd" clip-rule="evenodd" d="M37.5938 6.65625C38.2151 6.65625 38.7188 7.15993 38.7188 7.78125V15.4947C38.7188 19.0012 35.8762 21.8438 32.3696 21.8438H15.6303C12.1238 21.8438 9.28125 19.0012 9.28125 15.4947V8.25C9.28125 7.62868 9.78493 7.125 10.4062 7.125C11.0276 7.125 11.5312 7.62868 11.5312 8.25V15.4947C11.5312 17.7586 13.3664 19.5938 15.6303 19.5938H32.3696C34.6336 19.5938 36.4688 17.7585 36.4688 15.4947V7.78125C36.4688 7.15993 36.9724 6.65625 37.5938 6.65625Z" fill="#344054"/>
</svg>
